<?xml version="1.0" encoding="UTF-8" standalone="no"?>
<!DOCTYPE svg PUBLIC "-//W3C//DTD SVG 1.1//EN"
 "http://www.w3.org/Graphics/SVG/1.1/DTD/svg11.dtd">
<!-- Generated by graphviz version 2.43.0 (0)
 -->
<!-- Title: %3 Pages: 1 -->
<svg width="1586pt" height="548pt"
 viewBox="0.00 0.00 1586.39 548.00" xmlns="http://www.w3.org/2000/svg" xmlns:xlink="http://www.w3.org/1999/xlink">
<g id="graph0" class="graph" transform="scale(1 1) rotate(0) translate(4 544)">
<title>%3</title>
<polygon fill="#21495c" stroke="transparent" points="-4,4 -4,-544 1582.39,-544 1582.39,4 -4,4"/>
<!-- n0 -->
<g id="node1" class="node">
<title>n0</title>
<ellipse fill="#2b8ea4" stroke="#007add" cx="1064.34" cy="-522" rx="33.6" ry="18"/>
<text text-anchor="middle" x="1064.34" y="-518.3" font-family="Times,serif" font-size="14.00" fill="white">RAIZ</text>
</g>
<!-- n1 -->
<g id="node2" class="node">
<title>n1</title>
<ellipse fill="#2b8ea4" stroke="#007add" cx="1064.34" cy="-450" rx="94.48" ry="18"/>
<text text-anchor="middle" x="1064.34" y="-446.3" font-family="Times,serif" font-size="14.00" fill="white">INSTRUCCIONES</text>
</g>
<!-- n0&#45;&gt;n1 -->
<g id="edge1" class="edge">
<title>n0&#45;&gt;n1</title>
<path fill="none" stroke="#b9ff00" d="M1064.34,-503.7C1064.34,-495.98 1064.34,-486.71 1064.34,-478.11"/>
<polygon fill="#b9ff00" stroke="#b9ff00" points="1067.84,-478.1 1064.34,-468.1 1060.84,-478.1 1067.84,-478.1"/>
</g>
<!-- n2 -->
<g id="node3" class="node">
<title>n2</title>
<ellipse fill="#2b8ea4" stroke="#007add" cx="1007.34" cy="-378" rx="37.89" ry="18"/>
<text text-anchor="middle" x="1007.34" y="-374.3" font-family="Times,serif" font-size="14.00" fill="white">MAIN</text>
</g>
<!-- n1&#45;&gt;n2 -->
<g id="edge2" class="edge">
<title>n1&#45;&gt;n2</title>
<path fill="none" stroke="#b9ff00" d="M1050.55,-432.05C1043.51,-423.42 1034.83,-412.76 1027.1,-403.27"/>
<polygon fill="#b9ff00" stroke="#b9ff00" points="1029.65,-400.85 1020.62,-395.31 1024.22,-405.27 1029.65,-400.85"/>
</g>
<!-- n19 -->
<g id="node20" class="node">
<title>n19</title>
<ellipse fill="#2b8ea4" stroke="#007add" cx="1153.34" cy="-378" rx="57.69" ry="18"/>
<text text-anchor="middle" x="1153.34" y="-374.3" font-family="Times,serif" font-size="14.00" fill="white">FUNCION</text>
</g>
<!-- n1&#45;&gt;n19 -->
<g id="edge19" class="edge">
<title>n1&#45;&gt;n19</title>
<path fill="none" stroke="#b9ff00" d="M1085.43,-432.41C1097.24,-423.12 1112.12,-411.42 1124.94,-401.34"/>
<polygon fill="#b9ff00" stroke="#b9ff00" points="1127.32,-403.92 1133.02,-394.99 1122.99,-398.42 1127.32,-403.92"/>
</g>
<!-- n3 -->
<g id="node4" class="node">
<title>n3</title>
<ellipse fill="#2b8ea4" stroke="#007add" cx="900.34" cy="-306" rx="94.48" ry="18"/>
<text text-anchor="middle" x="900.34" y="-302.3" font-family="Times,serif" font-size="14.00" fill="white">INSTRUCCIONES</text>
</g>
<!-- n2&#45;&gt;n3 -->
<g id="edge3" class="edge">
<title>n2&#45;&gt;n3</title>
<path fill="none" stroke="#b9ff00" d="M985.95,-363C971.09,-353.29 951,-340.14 934.02,-329.03"/>
<polygon fill="#b9ff00" stroke="#b9ff00" points="935.74,-325.98 925.46,-323.43 931.91,-331.84 935.74,-325.98"/>
</g>
<!-- n4 -->
<g id="node5" class="node">
<title>n4</title>
<ellipse fill="#2b8ea4" stroke="#007add" cx="385.34" cy="-234" rx="132.68" ry="18"/>
<text text-anchor="middle" x="385.34" y="-230.3" font-family="Times,serif" font-size="14.00" fill="white">DECLARACION ARREGLO</text>
</g>
<!-- n3&#45;&gt;n4 -->
<g id="edge4" class="edge">
<title>n3&#45;&gt;n4</title>
<path fill="none" stroke="#b9ff00" d="M826.01,-294.9C736.46,-282.73 585.65,-262.23 485.8,-248.65"/>
<polygon fill="#b9ff00" stroke="#b9ff00" points="486.08,-245.16 475.7,-247.28 485.14,-252.1 486.08,-245.16"/>
</g>
<!-- n14 -->
<g id="node15" class="node">
<title>n14</title>
<ellipse fill="#2b8ea4" stroke="#007add" cx="900.34" cy="-234" rx="117.78" ry="18"/>
<text text-anchor="middle" x="900.34" y="-230.3" font-family="Times,serif" font-size="14.00" fill="white">LLAMADA A FUNCION</text>
</g>
<!-- n3&#45;&gt;n14 -->
<g id="edge14" class="edge">
<title>n3&#45;&gt;n14</title>
<path fill="none" stroke="#b9ff00" d="M900.34,-287.7C900.34,-279.98 900.34,-270.71 900.34,-262.11"/>
<polygon fill="#b9ff00" stroke="#b9ff00" points="903.84,-262.1 900.34,-252.1 896.84,-262.1 903.84,-262.1"/>
</g>
<!-- n5 -->
<g id="node6" class="node">
<title>n5</title>
<ellipse fill="#2b8ea4" stroke="#007add" cx="77.34" cy="-162" rx="77.19" ry="18"/>
<text text-anchor="middle" x="77.34" y="-158.3" font-family="Times,serif" font-size="14.00" fill="white">TIPO.ENTERO</text>
</g>
<!-- n4&#45;&gt;n5 -->
<g id="edge5" class="edge">
<title>n4&#45;&gt;n5</title>
<path fill="none" stroke="#b9ff00" d="M320.4,-218.24C267.51,-206.22 193.26,-189.35 140.78,-177.42"/>
<polygon fill="#b9ff00" stroke="#b9ff00" points="141.44,-173.98 130.92,-175.18 139.89,-180.8 141.44,-173.98"/>
</g>
<!-- n6 -->
<g id="node7" class="node">
<title>n6</title>
<ellipse fill="#2b8ea4" stroke="#007add" cx="199.34" cy="-162" rx="27" ry="18"/>
<text text-anchor="middle" x="199.34" y="-158.3" font-family="Times,serif" font-size="14.00" fill="white">2</text>
</g>
<!-- n4&#45;&gt;n6 -->
<g id="edge6" class="edge">
<title>n4&#45;&gt;n6</title>
<path fill="none" stroke="#b9ff00" d="M336.57,-217.17C307,-207.22 268.67,-193.72 235.34,-180 233.52,-179.25 231.66,-178.46 229.79,-177.64"/>
<polygon fill="#b9ff00" stroke="#b9ff00" points="231.06,-174.37 220.5,-173.43 228.17,-180.75 231.06,-174.37"/>
</g>
<!-- n7 -->
<g id="node8" class="node">
<title>n7</title>
<ellipse fill="#2b8ea4" stroke="#007add" cx="306.34" cy="-162" rx="62.29" ry="18"/>
<text text-anchor="middle" x="306.34" y="-158.3" font-family="Times,serif" font-size="14.00" fill="white">instruccion</text>
</g>
<!-- n4&#45;&gt;n7 -->
<g id="edge7" class="edge">
<title>n4&#45;&gt;n7</title>
<path fill="none" stroke="#b9ff00" d="M366.22,-216.05C356.08,-207.07 343.47,-195.9 332.44,-186.12"/>
<polygon fill="#b9ff00" stroke="#b9ff00" points="334.55,-183.32 324.75,-179.31 329.91,-188.56 334.55,-183.32"/>
</g>
<!-- n8 -->
<g id="node9" class="node">
<title>n8</title>
<ellipse fill="#2b8ea4" stroke="#007add" cx="464.34" cy="-162" rx="77.19" ry="18"/>
<text text-anchor="middle" x="464.34" y="-158.3" font-family="Times,serif" font-size="14.00" fill="white">TIPO.ENTERO</text>
</g>
<!-- n4&#45;&gt;n8 -->
<g id="edge8" class="edge">
<title>n4&#45;&gt;n8</title>
<path fill="none" stroke="#b9ff00" d="M404.47,-216.05C414.54,-207.13 427.04,-196.06 438.01,-186.34"/>
<polygon fill="#b9ff00" stroke="#b9ff00" points="440.5,-188.8 445.67,-179.55 435.86,-183.56 440.5,-188.8"/>
</g>
<!-- n9 -->
<g id="node10" class="node">
<title>n9</title>
<ellipse fill="#2b8ea4" stroke="#007add" cx="693.34" cy="-162" rx="133.78" ry="18"/>
<text text-anchor="middle" x="693.34" y="-158.3" font-family="Times,serif" font-size="14.00" fill="white">DIMENSIONES ARREGLO</text>
</g>
<!-- n4&#45;&gt;n9 -->
<g id="edge9" class="edge">
<title>n4&#45;&gt;n9</title>
<path fill="none" stroke="#b9ff00" d="M450.29,-218.24C499.34,-207.09 566.78,-191.77 618.17,-180.08"/>
<polygon fill="#b9ff00" stroke="#b9ff00" points="619.25,-183.43 628.22,-177.8 617.7,-176.6 619.25,-183.43"/>
</g>
<!-- n10 -->
<g id="node11" class="node">
<title>n10</title>
<ellipse fill="#2b8ea4" stroke="#007add" cx="621.34" cy="-90" rx="63.09" ry="18"/>
<text text-anchor="middle" x="621.34" y="-86.3" font-family="Times,serif" font-size="14.00" fill="white">PRIMITIVO</text>
</g>
<!-- n9&#45;&gt;n10 -->
<g id="edge10" class="edge">
<title>n9&#45;&gt;n10</title>
<path fill="none" stroke="#b9ff00" d="M675.91,-144.05C666.89,-135.28 655.73,-124.43 645.86,-114.83"/>
<polygon fill="#b9ff00" stroke="#b9ff00" points="648.22,-112.25 638.61,-107.79 643.34,-117.27 648.22,-112.25"/>
</g>
<!-- n12 -->
<g id="node13" class="node">
<title>n12</title>
<ellipse fill="#2b8ea4" stroke="#007add" cx="765.34" cy="-90" rx="63.09" ry="18"/>
<text text-anchor="middle" x="765.34" y="-86.3" font-family="Times,serif" font-size="14.00" fill="white">PRIMITIVO</text>
</g>
<!-- n9&#45;&gt;n12 -->
<g id="edge12" class="edge">
<title>n9&#45;&gt;n12</title>
<path fill="none" stroke="#b9ff00" d="M710.77,-144.05C719.79,-135.28 730.96,-124.43 740.83,-114.83"/>
<polygon fill="#b9ff00" stroke="#b9ff00" points="743.34,-117.27 748.07,-107.79 738.46,-112.25 743.34,-117.27"/>
</g>
<!-- n11 -->
<g id="node12" class="node">
<title>n11</title>
<ellipse fill="#2b8ea4" stroke="#007add" cx="621.34" cy="-18" rx="27" ry="18"/>
<text text-anchor="middle" x="621.34" y="-14.3" font-family="Times,serif" font-size="14.00" fill="white">3</text>
</g>
<!-- n10&#45;&gt;n11 -->
<g id="edge11" class="edge">
<title>n10&#45;&gt;n11</title>
<path fill="none" stroke="#b9ff00" d="M621.34,-71.7C621.34,-63.98 621.34,-54.71 621.34,-46.11"/>
<polygon fill="#b9ff00" stroke="#b9ff00" points="624.84,-46.1 621.34,-36.1 617.84,-46.1 624.84,-46.1"/>
</g>
<!-- n13 -->
<g id="node14" class="node">
<title>n13</title>
<ellipse fill="#2b8ea4" stroke="#007add" cx="765.34" cy="-18" rx="27" ry="18"/>
<text text-anchor="middle" x="765.34" y="-14.3" font-family="Times,serif" font-size="14.00" fill="white">2</text>
</g>
<!-- n12&#45;&gt;n13 -->
<g id="edge13" class="edge">
<title>n12&#45;&gt;n13</title>
<path fill="none" stroke="#b9ff00" d="M765.34,-71.7C765.34,-63.98 765.34,-54.71 765.34,-46.11"/>
<polygon fill="#b9ff00" stroke="#b9ff00" points="768.84,-46.1 765.34,-36.1 761.84,-46.1 768.84,-46.1"/>
</g>
<!-- n15 -->
<g id="node16" class="node">
<title>n15</title>
<ellipse fill="#2b8ea4" stroke="#007add" cx="889.34" cy="-162" rx="44.39" ry="18"/>
<text text-anchor="middle" x="889.34" y="-158.3" font-family="Times,serif" font-size="14.00" fill="white">marcar</text>
</g>
<!-- n14&#45;&gt;n15 -->
<g id="edge15" class="edge">
<title>n14&#45;&gt;n15</title>
<path fill="none" stroke="#b9ff00" d="M897.62,-215.7C896.41,-207.98 894.96,-198.71 893.6,-190.11"/>
<polygon fill="#b9ff00" stroke="#b9ff00" points="897.04,-189.44 892.03,-180.1 890.13,-190.53 897.04,-189.44"/>
</g>
<!-- n16 -->
<g id="node17" class="node">
<title>n16</title>
<ellipse fill="#2b8ea4" stroke="#007add" cx="1029.34" cy="-162" rx="77.99" ry="18"/>
<text text-anchor="middle" x="1029.34" y="-158.3" font-family="Times,serif" font-size="14.00" fill="white">PARAMETROS</text>
</g>
<!-- n14&#45;&gt;n16 -->
<g id="edge16" class="edge">
<title>n14&#45;&gt;n16</title>
<path fill="none" stroke="#b9ff00" d="M930.59,-216.59C948.72,-206.75 971.93,-194.15 991.3,-183.64"/>
<polygon fill="#b9ff00" stroke="#b9ff00" points="993.06,-186.67 1000.18,-178.83 989.72,-180.52 993.06,-186.67"/>
</g>
<!-- n17 -->
<g id="node18" class="node">
<title>n17</title>
<ellipse fill="#2b8ea4" stroke="#007add" cx="1029.34" cy="-90" rx="89.88" ry="18"/>
<text text-anchor="middle" x="1029.34" y="-86.3" font-family="Times,serif" font-size="14.00" fill="white">IDENTIFICADOR</text>
</g>
<!-- n16&#45;&gt;n17 -->
<g id="edge17" class="edge">
<title>n16&#45;&gt;n17</title>
<path fill="none" stroke="#b9ff00" d="M1029.34,-143.7C1029.34,-135.98 1029.34,-126.71 1029.34,-118.11"/>
<polygon fill="#b9ff00" stroke="#b9ff00" points="1032.84,-118.1 1029.34,-108.1 1025.84,-118.1 1032.84,-118.1"/>
</g>
<!-- n18 -->
<g id="node19" class="node">
<title>n18</title>
<ellipse fill="#2b8ea4" stroke="#007add" cx="1029.34" cy="-18" rx="62.29" ry="18"/>
<text text-anchor="middle" x="1029.34" y="-14.3" font-family="Times,serif" font-size="14.00" fill="white">instruccion</text>
</g>
<!-- n17&#45;&gt;n18 -->
<g id="edge18" class="edge">
<title>n17&#45;&gt;n18</title>
<path fill="none" stroke="#b9ff00" d="M1029.34,-71.7C1029.34,-63.98 1029.34,-54.71 1029.34,-46.11"/>
<polygon fill="#b9ff00" stroke="#b9ff00" points="1032.84,-46.1 1029.34,-36.1 1025.84,-46.1 1032.84,-46.1"/>
</g>
<!-- n20 -->
<g id="node21" class="node">
<title>n20</title>
<ellipse fill="#2b8ea4" stroke="#007add" cx="1083.34" cy="-306" rx="44.39" ry="18"/>
<text text-anchor="middle" x="1083.34" y="-302.3" font-family="Times,serif" font-size="14.00" fill="white">marcar</text>
</g>
<!-- n19&#45;&gt;n20 -->
<g id="edge20" class="edge">
<title>n19&#45;&gt;n20</title>
<path fill="none" stroke="#b9ff00" d="M1136.75,-360.41C1127.73,-351.39 1116.43,-340.09 1106.55,-330.21"/>
<polygon fill="#b9ff00" stroke="#b9ff00" points="1108.88,-327.58 1099.33,-322.99 1103.93,-332.53 1108.88,-327.58"/>
</g>
<!-- n21 -->
<g id="node22" class="node">
<title>n21</title>
<ellipse fill="#2b8ea4" stroke="#007add" cx="1223.34" cy="-306" rx="77.99" ry="18"/>
<text text-anchor="middle" x="1223.34" y="-302.3" font-family="Times,serif" font-size="14.00" fill="white">PARAMETROS</text>
</g>
<!-- n19&#45;&gt;n21 -->
<g id="edge21" class="edge">
<title>n19&#45;&gt;n21</title>
<path fill="none" stroke="#b9ff00" d="M1169.93,-360.41C1178.7,-351.65 1189.61,-340.73 1199.29,-331.06"/>
<polygon fill="#b9ff00" stroke="#b9ff00" points="1201.79,-333.5 1206.39,-323.96 1196.84,-328.55 1201.79,-333.5"/>
</g>
<!-- n25 -->
<g id="node26" class="node">
<title>n25</title>
<ellipse fill="#2b8ea4" stroke="#007add" cx="1442.34" cy="-306" rx="94.48" ry="18"/>
<text text-anchor="middle" x="1442.34" y="-302.3" font-family="Times,serif" font-size="14.00" fill="white">INSTRUCCIONES</text>
</g>
<!-- n19&#45;&gt;n25 -->
<g id="edge25" class="edge">
<title>n19&#45;&gt;n25</title>
<path fill="none" stroke="#b9ff00" d="M1197.55,-366.29C1245.26,-354.74 1321.75,-336.21 1376.53,-322.94"/>
<polygon fill="#b9ff00" stroke="#b9ff00" points="1377.6,-326.28 1386.49,-320.53 1375.95,-319.48 1377.6,-326.28"/>
</g>
<!-- n22 -->
<g id="node23" class="node">
<title>n22</title>
<ellipse fill="#2b8ea4" stroke="#007add" cx="1223.34" cy="-234" rx="71.49" ry="18"/>
<text text-anchor="middle" x="1223.34" y="-230.3" font-family="Times,serif" font-size="14.00" fill="white">PARAMETRO</text>
</g>
<!-- n21&#45;&gt;n22 -->
<g id="edge22" class="edge">
<title>n21&#45;&gt;n22</title>
<path fill="none" stroke="#b9ff00" d="M1223.34,-287.7C1223.34,-279.98 1223.34,-270.71 1223.34,-262.11"/>
<polygon fill="#b9ff00" stroke="#b9ff00" points="1226.84,-262.1 1223.34,-252.1 1219.84,-262.1 1226.84,-262.1"/>
</g>
<!-- n23 -->
<g id="node24" class="node">
<title>n23</title>
<ellipse fill="#2b8ea4" stroke="#007add" cx="1208.34" cy="-162" rx="83.39" ry="18"/>
<text text-anchor="middle" x="1208.34" y="-158.3" font-family="Times,serif" font-size="14.00" fill="white">TIPO.ARREGLO</text>
</g>
<!-- n22&#45;&gt;n23 -->
<g id="edge23" class="edge">
<title>n22&#45;&gt;n23</title>
<path fill="none" stroke="#b9ff00" d="M1219.64,-215.7C1217.98,-207.98 1216,-198.71 1214.15,-190.11"/>
<polygon fill="#b9ff00" stroke="#b9ff00" points="1217.53,-189.15 1212.01,-180.1 1210.68,-190.62 1217.53,-189.15"/>
</g>
<!-- n24 -->
<g id="node25" class="node">
<title>n24</title>
<ellipse fill="#2b8ea4" stroke="#007add" cx="1372.34" cy="-162" rx="62.29" ry="18"/>
<text text-anchor="middle" x="1372.34" y="-158.3" font-family="Times,serif" font-size="14.00" fill="white">instruccion</text>
</g>
<!-- n22&#45;&gt;n24 -->
<g id="edge24" class="edge">
<title>n22&#45;&gt;n24</title>
<path fill="none" stroke="#b9ff00" d="M1255.67,-217.81C1278.04,-207.3 1307.97,-193.24 1331.91,-182"/>
<polygon fill="#b9ff00" stroke="#b9ff00" points="1333.53,-185.1 1341.1,-177.68 1330.56,-178.76 1333.53,-185.1"/>
</g>
<!-- n26 -->
<g id="node27" class="node">
<title>n26</title>
<ellipse fill="#2b8ea4" stroke="#007add" cx="1500.34" cy="-234" rx="59.59" ry="18"/>
<text text-anchor="middle" x="1500.34" y="-230.3" font-family="Times,serif" font-size="14.00" fill="white">IMPRIMIR</text>
</g>
<!-- n25&#45;&gt;n26 -->
<g id="edge26" class="edge">
<title>n25&#45;&gt;n26</title>
<path fill="none" stroke="#b9ff00" d="M1456.38,-288.05C1463.44,-279.54 1472.12,-269.07 1479.89,-259.68"/>
<polygon fill="#b9ff00" stroke="#b9ff00" points="1482.75,-261.72 1486.43,-251.79 1477.36,-257.26 1482.75,-261.72"/>
</g>
<!-- n27 -->
<g id="node28" class="node">
<title>n27</title>
<ellipse fill="#2b8ea4" stroke="#007add" cx="1515.34" cy="-162" rx="63.09" ry="18"/>
<text text-anchor="middle" x="1515.34" y="-158.3" font-family="Times,serif" font-size="14.00" fill="white">PRIMITIVO</text>
</g>
<!-- n26&#45;&gt;n27 -->
<g id="edge27" class="edge">
<title>n26&#45;&gt;n27</title>
<path fill="none" stroke="#b9ff00" d="M1504.05,-215.7C1505.7,-207.98 1507.69,-198.71 1509.53,-190.11"/>
<polygon fill="#b9ff00" stroke="#b9ff00" points="1513,-190.62 1511.68,-180.1 1506.16,-189.15 1513,-190.62"/>
</g>
<!-- n28 -->
<g id="node29" class="node">
<title>n28</title>
<ellipse fill="#2b8ea4" stroke="#007add" cx="1515.34" cy="-90" rx="46.29" ry="18"/>
<text text-anchor="middle" x="1515.34" y="-86.3" font-family="Times,serif" font-size="14.00" fill="white">si entro</text>
</g>
<!-- n27&#45;&gt;n28 -->
<g id="edge28" class="edge">
<title>n27&#45;&gt;n28</title>
<path fill="none" stroke="#b9ff00" d="M1515.34,-143.7C1515.34,-135.98 1515.34,-126.71 1515.34,-118.11"/>
<polygon fill="#b9ff00" stroke="#b9ff00" points="1518.84,-118.1 1515.34,-108.1 1511.84,-118.1 1518.84,-118.1"/>
</g>
</g>
</svg>
