<?xml version="1.0" encoding="UTF-8" standalone="no"?>
<!DOCTYPE svg PUBLIC "-//W3C//DTD SVG 1.1//EN"
 "http://www.w3.org/Graphics/SVG/1.1/DTD/svg11.dtd">
<!-- Generated by graphviz version 2.43.0 (0)
 -->
<!-- Title: %3 Pages: 1 -->
<svg width="2438pt" height="476pt"
 viewBox="0.00 0.00 2437.69 476.00" xmlns="http://www.w3.org/2000/svg" xmlns:xlink="http://www.w3.org/1999/xlink">
<g id="graph0" class="graph" transform="scale(1 1) rotate(0) translate(4 472)">
<title>%3</title>
<polygon fill="#21495c" stroke="transparent" points="-4,4 -4,-472 2433.69,-472 2433.69,4 -4,4"/>
<!-- n0 -->
<g id="node1" class="node">
<title>n0</title>
<ellipse fill="#2b8ea4" stroke="#007add" cx="927" cy="-450" rx="33.6" ry="18"/>
<text text-anchor="middle" x="927" y="-446.3" font-family="Times,serif" font-size="14.00" fill="white">RAIZ</text>
</g>
<!-- n1 -->
<g id="node2" class="node">
<title>n1</title>
<ellipse fill="#2b8ea4" stroke="#007add" cx="927" cy="-378" rx="94.48" ry="18"/>
<text text-anchor="middle" x="927" y="-374.3" font-family="Times,serif" font-size="14.00" fill="white">INSTRUCCIONES</text>
</g>
<!-- n0&#45;&gt;n1 -->
<g id="edge1" class="edge">
<title>n0&#45;&gt;n1</title>
<path fill="none" stroke="#b9ff00" d="M927,-431.7C927,-423.98 927,-414.71 927,-406.11"/>
<polygon fill="#b9ff00" stroke="#b9ff00" points="930.5,-406.1 927,-396.1 923.5,-406.1 930.5,-406.1"/>
</g>
<!-- n2 -->
<g id="node3" class="node">
<title>n2</title>
<ellipse fill="#2b8ea4" stroke="#007add" cx="296" cy="-306" rx="37.89" ry="18"/>
<text text-anchor="middle" x="296" y="-302.3" font-family="Times,serif" font-size="14.00" fill="white">MAIN</text>
</g>
<!-- n1&#45;&gt;n2 -->
<g id="edge2" class="edge">
<title>n1&#45;&gt;n2</title>
<path fill="none" stroke="#b9ff00" d="M843.81,-369.44C742.24,-359.97 565.28,-342.7 414,-324 389.97,-321.03 363.27,-317.22 341.34,-313.97"/>
<polygon fill="#b9ff00" stroke="#b9ff00" points="341.73,-310.49 331.32,-312.47 340.69,-317.41 341.73,-310.49"/>
</g>
<!-- n13 -->
<g id="node14" class="node">
<title>n13</title>
<ellipse fill="#2b8ea4" stroke="#007add" cx="506" cy="-306" rx="82.59" ry="18"/>
<text text-anchor="middle" x="506" y="-302.3" font-family="Times,serif" font-size="14.00" fill="white">DECLARACION</text>
</g>
<!-- n1&#45;&gt;n13 -->
<g id="edge13" class="edge">
<title>n1&#45;&gt;n13</title>
<path fill="none" stroke="#b9ff00" d="M858.42,-365.6C781.83,-352.86 658.3,-332.32 579.69,-319.25"/>
<polygon fill="#b9ff00" stroke="#b9ff00" points="579.82,-315.73 569.38,-317.54 578.67,-322.63 579.82,-315.73"/>
</g>
<!-- n19 -->
<g id="node20" class="node">
<title>n19</title>
<ellipse fill="#2b8ea4" stroke="#007add" cx="927" cy="-306" rx="57.69" ry="18"/>
<text text-anchor="middle" x="927" y="-302.3" font-family="Times,serif" font-size="14.00" fill="white">FUNCION</text>
</g>
<!-- n1&#45;&gt;n19 -->
<g id="edge19" class="edge">
<title>n1&#45;&gt;n19</title>
<path fill="none" stroke="#b9ff00" d="M927,-359.7C927,-351.98 927,-342.71 927,-334.11"/>
<polygon fill="#b9ff00" stroke="#b9ff00" points="930.5,-334.1 927,-324.1 923.5,-334.1 930.5,-334.1"/>
</g>
<!-- n32 -->
<g id="node33" class="node">
<title>n32</title>
<ellipse fill="#2b8ea4" stroke="#007add" cx="1379" cy="-306" rx="57.69" ry="18"/>
<text text-anchor="middle" x="1379" y="-302.3" font-family="Times,serif" font-size="14.00" fill="white">FUNCION</text>
</g>
<!-- n1&#45;&gt;n32 -->
<g id="edge32" class="edge">
<title>n1&#45;&gt;n32</title>
<path fill="none" stroke="#b9ff00" d="M997.62,-366.06C1085.81,-352.4 1235.18,-329.27 1318.41,-316.38"/>
<polygon fill="#b9ff00" stroke="#b9ff00" points="1319.12,-319.82 1328.47,-314.83 1318.05,-312.9 1319.12,-319.82"/>
</g>
<!-- n45 -->
<g id="node46" class="node">
<title>n45</title>
<ellipse fill="#2b8ea4" stroke="#007add" cx="1913" cy="-306" rx="57.69" ry="18"/>
<text text-anchor="middle" x="1913" y="-302.3" font-family="Times,serif" font-size="14.00" fill="white">FUNCION</text>
</g>
<!-- n1&#45;&gt;n45 -->
<g id="edge45" class="edge">
<title>n1&#45;&gt;n45</title>
<path fill="none" stroke="#b9ff00" d="M1013.64,-370.85C1207.75,-357.07 1674.02,-323.97 1846.97,-311.69"/>
<polygon fill="#b9ff00" stroke="#b9ff00" points="1847.47,-315.16 1857.2,-310.96 1846.98,-308.18 1847.47,-315.16"/>
</g>
<!-- n3 -->
<g id="node4" class="node">
<title>n3</title>
<ellipse fill="#2b8ea4" stroke="#007add" cx="223" cy="-234" rx="94.48" ry="18"/>
<text text-anchor="middle" x="223" y="-230.3" font-family="Times,serif" font-size="14.00" fill="white">INSTRUCCIONES</text>
</g>
<!-- n2&#45;&gt;n3 -->
<g id="edge3" class="edge">
<title>n2&#45;&gt;n3</title>
<path fill="none" stroke="#b9ff00" d="M279.8,-289.46C270.4,-280.45 258.37,-268.92 247.81,-258.79"/>
<polygon fill="#b9ff00" stroke="#b9ff00" points="250.07,-256.11 240.43,-251.71 245.23,-261.16 250.07,-256.11"/>
</g>
<!-- n4 -->
<g id="node5" class="node">
<title>n4</title>
<ellipse fill="#2b8ea4" stroke="#007add" cx="171" cy="-162" rx="82.59" ry="18"/>
<text text-anchor="middle" x="171" y="-158.3" font-family="Times,serif" font-size="14.00" fill="white">DECLARACION</text>
</g>
<!-- n3&#45;&gt;n4 -->
<g id="edge4" class="edge">
<title>n3&#45;&gt;n4</title>
<path fill="none" stroke="#b9ff00" d="M210.41,-216.05C204.24,-207.75 196.69,-197.58 189.85,-188.38"/>
<polygon fill="#b9ff00" stroke="#b9ff00" points="192.61,-186.22 183.83,-180.28 186.99,-190.39 192.61,-186.22"/>
</g>
<!-- n10 -->
<g id="node11" class="node">
<title>n10</title>
<ellipse fill="#2b8ea4" stroke="#007add" cx="399" cy="-162" rx="59.59" ry="18"/>
<text text-anchor="middle" x="399" y="-158.3" font-family="Times,serif" font-size="14.00" fill="white">IMPRIMIR</text>
</g>
<!-- n3&#45;&gt;n10 -->
<g id="edge10" class="edge">
<title>n3&#45;&gt;n10</title>
<path fill="none" stroke="#b9ff00" d="M262.06,-217.46C289.63,-206.5 326.59,-191.8 355.17,-180.43"/>
<polygon fill="#b9ff00" stroke="#b9ff00" points="356.51,-183.66 364.51,-176.72 353.93,-177.16 356.51,-183.66"/>
</g>
<!-- n5 -->
<g id="node6" class="node">
<title>n5</title>
<ellipse fill="#2b8ea4" stroke="#007add" cx="27" cy="-90" rx="27" ry="18"/>
<text text-anchor="middle" x="27" y="-86.3" font-family="Times,serif" font-size="14.00" fill="white">var</text>
</g>
<!-- n4&#45;&gt;n5 -->
<g id="edge5" class="edge">
<title>n4&#45;&gt;n5</title>
<path fill="none" stroke="#b9ff00" d="M138.68,-145.29C114.49,-133.53 81.6,-117.54 57.78,-105.96"/>
<polygon fill="#b9ff00" stroke="#b9ff00" points="59.02,-102.67 48.5,-101.45 55.96,-108.97 59.02,-102.67"/>
</g>
<!-- n6 -->
<g id="node7" class="node">
<title>n6</title>
<ellipse fill="#2b8ea4" stroke="#007add" cx="99" cy="-90" rx="27" ry="18"/>
<text text-anchor="middle" x="99" y="-86.3" font-family="Times,serif" font-size="14.00" fill="white">a</text>
</g>
<!-- n4&#45;&gt;n6 -->
<g id="edge6" class="edge">
<title>n4&#45;&gt;n6</title>
<path fill="none" stroke="#b9ff00" d="M153.57,-144.05C143.79,-134.55 131.5,-122.59 121.05,-112.44"/>
<polygon fill="#b9ff00" stroke="#b9ff00" points="123.45,-109.89 113.84,-105.42 118.57,-114.9 123.45,-109.89"/>
</g>
<!-- n7 -->
<g id="node8" class="node">
<title>n7</title>
<ellipse fill="#2b8ea4" stroke="#007add" cx="171" cy="-90" rx="27" ry="18"/>
<text text-anchor="middle" x="171" y="-86.3" font-family="Times,serif" font-size="14.00" fill="white">=</text>
</g>
<!-- n4&#45;&gt;n7 -->
<g id="edge7" class="edge">
<title>n4&#45;&gt;n7</title>
<path fill="none" stroke="#b9ff00" d="M171,-143.7C171,-135.98 171,-126.71 171,-118.11"/>
<polygon fill="#b9ff00" stroke="#b9ff00" points="174.5,-118.1 171,-108.1 167.5,-118.1 174.5,-118.1"/>
</g>
<!-- n8 -->
<g id="node9" class="node">
<title>n8</title>
<ellipse fill="#2b8ea4" stroke="#007add" cx="279" cy="-90" rx="63.09" ry="18"/>
<text text-anchor="middle" x="279" y="-86.3" font-family="Times,serif" font-size="14.00" fill="white">PRIMITIVO</text>
</g>
<!-- n4&#45;&gt;n8 -->
<g id="edge8" class="edge">
<title>n4&#45;&gt;n8</title>
<path fill="none" stroke="#b9ff00" d="M196.05,-144.76C210.98,-135.09 230.11,-122.69 246.23,-112.24"/>
<polygon fill="#b9ff00" stroke="#b9ff00" points="248.34,-115.04 254.83,-106.67 244.53,-109.17 248.34,-115.04"/>
</g>
<!-- n9 -->
<g id="node10" class="node">
<title>n9</title>
<ellipse fill="#2b8ea4" stroke="#007add" cx="244" cy="-18" rx="140.28" ry="18"/>
<text text-anchor="middle" x="244" y="-14.3" font-family="Times,serif" font-size="14.00" fill="white">declaracion dentro del main</text>
</g>
<!-- n8&#45;&gt;n9 -->
<g id="edge9" class="edge">
<title>n8&#45;&gt;n9</title>
<path fill="none" stroke="#b9ff00" d="M270.53,-72.05C266.5,-64.01 261.6,-54.2 257.11,-45.23"/>
<polygon fill="#b9ff00" stroke="#b9ff00" points="260.24,-43.65 252.64,-36.28 253.98,-46.78 260.24,-43.65"/>
</g>
<!-- n11 -->
<g id="node12" class="node">
<title>n11</title>
<ellipse fill="#2b8ea4" stroke="#007add" cx="458" cy="-90" rx="63.09" ry="18"/>
<text text-anchor="middle" x="458" y="-86.3" font-family="Times,serif" font-size="14.00" fill="white">PRIMITIVO</text>
</g>
<!-- n10&#45;&gt;n11 -->
<g id="edge11" class="edge">
<title>n10&#45;&gt;n11</title>
<path fill="none" stroke="#b9ff00" d="M412.98,-144.41C420.22,-135.82 429.21,-125.16 437.24,-115.63"/>
<polygon fill="#b9ff00" stroke="#b9ff00" points="439.94,-117.86 443.71,-107.96 434.59,-113.35 439.94,-117.86"/>
</g>
<!-- n12 -->
<g id="node13" class="node">
<title>n12</title>
<ellipse fill="#2b8ea4" stroke="#007add" cx="484" cy="-18" rx="81.49" ry="18"/>
<text text-anchor="middle" x="484" y="-14.3" font-family="Times,serif" font-size="14.00" fill="white">dentro de main</text>
</g>
<!-- n11&#45;&gt;n12 -->
<g id="edge12" class="edge">
<title>n11&#45;&gt;n12</title>
<path fill="none" stroke="#b9ff00" d="M464.29,-72.05C467.22,-64.18 470.77,-54.62 474.05,-45.79"/>
<polygon fill="#b9ff00" stroke="#b9ff00" points="477.38,-46.87 477.58,-36.28 470.82,-44.43 477.38,-46.87"/>
</g>
<!-- n14 -->
<g id="node15" class="node">
<title>n14</title>
<ellipse fill="#2b8ea4" stroke="#007add" cx="362" cy="-234" rx="27" ry="18"/>
<text text-anchor="middle" x="362" y="-230.3" font-family="Times,serif" font-size="14.00" fill="white">var</text>
</g>
<!-- n13&#45;&gt;n14 -->
<g id="edge14" class="edge">
<title>n13&#45;&gt;n14</title>
<path fill="none" stroke="#b9ff00" d="M473.68,-289.29C449.49,-277.53 416.6,-261.54 392.78,-249.96"/>
<polygon fill="#b9ff00" stroke="#b9ff00" points="394.02,-246.67 383.5,-245.45 390.96,-252.97 394.02,-246.67"/>
</g>
<!-- n15 -->
<g id="node16" class="node">
<title>n15</title>
<ellipse fill="#2b8ea4" stroke="#007add" cx="434" cy="-234" rx="27" ry="18"/>
<text text-anchor="middle" x="434" y="-230.3" font-family="Times,serif" font-size="14.00" fill="white">a</text>
</g>
<!-- n13&#45;&gt;n15 -->
<g id="edge15" class="edge">
<title>n13&#45;&gt;n15</title>
<path fill="none" stroke="#b9ff00" d="M488.57,-288.05C478.79,-278.55 466.5,-266.59 456.05,-256.44"/>
<polygon fill="#b9ff00" stroke="#b9ff00" points="458.45,-253.89 448.84,-249.42 453.57,-258.9 458.45,-253.89"/>
</g>
<!-- n16 -->
<g id="node17" class="node">
<title>n16</title>
<ellipse fill="#2b8ea4" stroke="#007add" cx="506" cy="-234" rx="27" ry="18"/>
<text text-anchor="middle" x="506" y="-230.3" font-family="Times,serif" font-size="14.00" fill="white">=</text>
</g>
<!-- n13&#45;&gt;n16 -->
<g id="edge16" class="edge">
<title>n13&#45;&gt;n16</title>
<path fill="none" stroke="#b9ff00" d="M506,-287.7C506,-279.98 506,-270.71 506,-262.11"/>
<polygon fill="#b9ff00" stroke="#b9ff00" points="509.5,-262.1 506,-252.1 502.5,-262.1 509.5,-262.1"/>
</g>
<!-- n17 -->
<g id="node18" class="node">
<title>n17</title>
<ellipse fill="#2b8ea4" stroke="#007add" cx="614" cy="-234" rx="63.09" ry="18"/>
<text text-anchor="middle" x="614" y="-230.3" font-family="Times,serif" font-size="14.00" fill="white">PRIMITIVO</text>
</g>
<!-- n13&#45;&gt;n17 -->
<g id="edge17" class="edge">
<title>n13&#45;&gt;n17</title>
<path fill="none" stroke="#b9ff00" d="M531.05,-288.76C545.98,-279.09 565.11,-266.69 581.23,-256.24"/>
<polygon fill="#b9ff00" stroke="#b9ff00" points="583.34,-259.04 589.83,-250.67 579.53,-253.17 583.34,-259.04"/>
</g>
<!-- n18 -->
<g id="node19" class="node">
<title>n18</title>
<ellipse fill="#2b8ea4" stroke="#007add" cx="614" cy="-162" rx="69.59" ry="18"/>
<text text-anchor="middle" x="614" y="-158.3" font-family="Times,serif" font-size="14.00" fill="white">declaracion1</text>
</g>
<!-- n17&#45;&gt;n18 -->
<g id="edge18" class="edge">
<title>n17&#45;&gt;n18</title>
<path fill="none" stroke="#b9ff00" d="M614,-215.7C614,-207.98 614,-198.71 614,-190.11"/>
<polygon fill="#b9ff00" stroke="#b9ff00" points="617.5,-190.1 614,-180.1 610.5,-190.1 617.5,-190.1"/>
</g>
<!-- n20 -->
<g id="node21" class="node">
<title>n20</title>
<ellipse fill="#2b8ea4" stroke="#007add" cx="763" cy="-234" rx="67.69" ry="18"/>
<text text-anchor="middle" x="763" y="-230.3" font-family="Times,serif" font-size="14.00" fill="white">holamundo1</text>
</g>
<!-- n19&#45;&gt;n20 -->
<g id="edge20" class="edge">
<title>n19&#45;&gt;n20</title>
<path fill="none" stroke="#b9ff00" d="M894.21,-291C869.04,-280.26 834.05,-265.33 806.54,-253.58"/>
<polygon fill="#b9ff00" stroke="#b9ff00" points="807.72,-250.28 797.15,-249.58 804.97,-256.72 807.72,-250.28"/>
</g>
<!-- n21 -->
<g id="node22" class="node">
<title>n21</title>
<ellipse fill="#2b8ea4" stroke="#007add" cx="927" cy="-234" rx="77.99" ry="18"/>
<text text-anchor="middle" x="927" y="-230.3" font-family="Times,serif" font-size="14.00" fill="white">PARAMETROS</text>
</g>
<!-- n19&#45;&gt;n21 -->
<g id="edge21" class="edge">
<title>n19&#45;&gt;n21</title>
<path fill="none" stroke="#b9ff00" d="M927,-287.7C927,-279.98 927,-270.71 927,-262.11"/>
<polygon fill="#b9ff00" stroke="#b9ff00" points="930.5,-262.1 927,-252.1 923.5,-262.1 930.5,-262.1"/>
</g>
<!-- n22 -->
<g id="node23" class="node">
<title>n22</title>
<ellipse fill="#2b8ea4" stroke="#007add" cx="1117" cy="-234" rx="94.48" ry="18"/>
<text text-anchor="middle" x="1117" y="-230.3" font-family="Times,serif" font-size="14.00" fill="white">INSTRUCCIONES</text>
</g>
<!-- n19&#45;&gt;n22 -->
<g id="edge22" class="edge">
<title>n19&#45;&gt;n22</title>
<path fill="none" stroke="#b9ff00" d="M962.74,-291.83C991.89,-281.09 1033.45,-265.78 1066.09,-253.76"/>
<polygon fill="#b9ff00" stroke="#b9ff00" points="1067.3,-257.04 1075.47,-250.3 1064.88,-250.47 1067.3,-257.04"/>
</g>
<!-- n23 -->
<g id="node24" class="node">
<title>n23</title>
<ellipse fill="#2b8ea4" stroke="#007add" cx="888" cy="-162" rx="82.59" ry="18"/>
<text text-anchor="middle" x="888" y="-158.3" font-family="Times,serif" font-size="14.00" fill="white">DECLARACION</text>
</g>
<!-- n22&#45;&gt;n23 -->
<g id="edge23" class="edge">
<title>n22&#45;&gt;n23</title>
<path fill="none" stroke="#b9ff00" d="M1069.27,-218.41C1032.81,-207.27 982.47,-191.88 944.09,-180.14"/>
<polygon fill="#b9ff00" stroke="#b9ff00" points="944.69,-176.67 934.1,-177.09 942.64,-183.36 944.69,-176.67"/>
</g>
<!-- n29 -->
<g id="node30" class="node">
<title>n29</title>
<ellipse fill="#2b8ea4" stroke="#007add" cx="1120" cy="-162" rx="59.59" ry="18"/>
<text text-anchor="middle" x="1120" y="-158.3" font-family="Times,serif" font-size="14.00" fill="white">IMPRIMIR</text>
</g>
<!-- n22&#45;&gt;n29 -->
<g id="edge29" class="edge">
<title>n22&#45;&gt;n29</title>
<path fill="none" stroke="#b9ff00" d="M1117.74,-215.7C1118.07,-207.98 1118.47,-198.71 1118.84,-190.11"/>
<polygon fill="#b9ff00" stroke="#b9ff00" points="1122.34,-190.25 1119.27,-180.1 1115.34,-189.95 1122.34,-190.25"/>
</g>
<!-- n24 -->
<g id="node25" class="node">
<title>n24</title>
<ellipse fill="#2b8ea4" stroke="#007add" cx="736" cy="-90" rx="27" ry="18"/>
<text text-anchor="middle" x="736" y="-86.3" font-family="Times,serif" font-size="14.00" fill="white">var</text>
</g>
<!-- n23&#45;&gt;n24 -->
<g id="edge24" class="edge">
<title>n23&#45;&gt;n24</title>
<path fill="none" stroke="#b9ff00" d="M853.94,-145.57C830.8,-135.06 799.51,-120.78 772,-108 770.21,-107.17 768.38,-106.31 766.53,-105.45"/>
<polygon fill="#b9ff00" stroke="#b9ff00" points="767.84,-102.2 757.3,-101.11 764.86,-108.53 767.84,-102.2"/>
</g>
<!-- n25 -->
<g id="node26" class="node">
<title>n25</title>
<ellipse fill="#2b8ea4" stroke="#007add" cx="812" cy="-90" rx="30.59" ry="18"/>
<text text-anchor="middle" x="812" y="-86.3" font-family="Times,serif" font-size="14.00" fill="white">hola</text>
</g>
<!-- n23&#45;&gt;n25 -->
<g id="edge25" class="edge">
<title>n23&#45;&gt;n25</title>
<path fill="none" stroke="#b9ff00" d="M869.99,-144.41C859.57,-134.82 846.36,-122.65 835.18,-112.35"/>
<polygon fill="#b9ff00" stroke="#b9ff00" points="837.55,-109.77 827.82,-105.57 832.8,-114.92 837.55,-109.77"/>
</g>
<!-- n26 -->
<g id="node27" class="node">
<title>n26</title>
<ellipse fill="#2b8ea4" stroke="#007add" cx="888" cy="-90" rx="27" ry="18"/>
<text text-anchor="middle" x="888" y="-86.3" font-family="Times,serif" font-size="14.00" fill="white">=</text>
</g>
<!-- n23&#45;&gt;n26 -->
<g id="edge26" class="edge">
<title>n23&#45;&gt;n26</title>
<path fill="none" stroke="#b9ff00" d="M888,-143.7C888,-135.98 888,-126.71 888,-118.11"/>
<polygon fill="#b9ff00" stroke="#b9ff00" points="891.5,-118.1 888,-108.1 884.5,-118.1 891.5,-118.1"/>
</g>
<!-- n27 -->
<g id="node28" class="node">
<title>n27</title>
<ellipse fill="#2b8ea4" stroke="#007add" cx="996" cy="-90" rx="63.09" ry="18"/>
<text text-anchor="middle" x="996" y="-86.3" font-family="Times,serif" font-size="14.00" fill="white">PRIMITIVO</text>
</g>
<!-- n23&#45;&gt;n27 -->
<g id="edge27" class="edge">
<title>n23&#45;&gt;n27</title>
<path fill="none" stroke="#b9ff00" d="M913.05,-144.76C927.98,-135.09 947.11,-122.69 963.23,-112.24"/>
<polygon fill="#b9ff00" stroke="#b9ff00" points="965.34,-115.04 971.83,-106.67 961.53,-109.17 965.34,-115.04"/>
</g>
<!-- n28 -->
<g id="node29" class="node">
<title>n28</title>
<ellipse fill="#2b8ea4" stroke="#007add" cx="996" cy="-18" rx="28.7" ry="18"/>
<text text-anchor="middle" x="996" y="-14.3" font-family="Times,serif" font-size="14.00" fill="white">100</text>
</g>
<!-- n27&#45;&gt;n28 -->
<g id="edge28" class="edge">
<title>n27&#45;&gt;n28</title>
<path fill="none" stroke="#b9ff00" d="M996,-71.7C996,-63.98 996,-54.71 996,-46.11"/>
<polygon fill="#b9ff00" stroke="#b9ff00" points="999.5,-46.1 996,-36.1 992.5,-46.1 999.5,-46.1"/>
</g>
<!-- n30 -->
<g id="node31" class="node">
<title>n30</title>
<ellipse fill="#2b8ea4" stroke="#007add" cx="1167" cy="-90" rx="89.88" ry="18"/>
<text text-anchor="middle" x="1167" y="-86.3" font-family="Times,serif" font-size="14.00" fill="white">IDENTIFICADOR</text>
</g>
<!-- n29&#45;&gt;n30 -->
<g id="edge30" class="edge">
<title>n29&#45;&gt;n30</title>
<path fill="none" stroke="#b9ff00" d="M1131.38,-144.05C1136.89,-135.84 1143.64,-125.79 1149.77,-116.66"/>
<polygon fill="#b9ff00" stroke="#b9ff00" points="1152.73,-118.53 1155.4,-108.28 1146.92,-114.63 1152.73,-118.53"/>
</g>
<!-- n31 -->
<g id="node32" class="node">
<title>n31</title>
<ellipse fill="#2b8ea4" stroke="#007add" cx="1167" cy="-18" rx="30.59" ry="18"/>
<text text-anchor="middle" x="1167" y="-14.3" font-family="Times,serif" font-size="14.00" fill="white">hola</text>
</g>
<!-- n30&#45;&gt;n31 -->
<g id="edge31" class="edge">
<title>n30&#45;&gt;n31</title>
<path fill="none" stroke="#b9ff00" d="M1167,-71.7C1167,-63.98 1167,-54.71 1167,-46.11"/>
<polygon fill="#b9ff00" stroke="#b9ff00" points="1170.5,-46.1 1167,-36.1 1163.5,-46.1 1170.5,-46.1"/>
</g>
<!-- n33 -->
<g id="node34" class="node">
<title>n33</title>
<ellipse fill="#2b8ea4" stroke="#007add" cx="1297" cy="-234" rx="67.69" ry="18"/>
<text text-anchor="middle" x="1297" y="-230.3" font-family="Times,serif" font-size="14.00" fill="white">holamundo2</text>
</g>
<!-- n32&#45;&gt;n33 -->
<g id="edge33" class="edge">
<title>n32&#45;&gt;n33</title>
<path fill="none" stroke="#b9ff00" d="M1359.98,-288.76C1349.29,-279.64 1335.78,-268.1 1324.01,-258.06"/>
<polygon fill="#b9ff00" stroke="#b9ff00" points="1326.08,-255.22 1316.2,-251.39 1321.53,-260.54 1326.08,-255.22"/>
</g>
<!-- n34 -->
<g id="node35" class="node">
<title>n34</title>
<ellipse fill="#2b8ea4" stroke="#007add" cx="1461" cy="-234" rx="77.99" ry="18"/>
<text text-anchor="middle" x="1461" y="-230.3" font-family="Times,serif" font-size="14.00" fill="white">PARAMETROS</text>
</g>
<!-- n32&#45;&gt;n34 -->
<g id="edge34" class="edge">
<title>n32&#45;&gt;n34</title>
<path fill="none" stroke="#b9ff00" d="M1398.02,-288.76C1408.63,-279.71 1422.03,-268.27 1433.73,-258.28"/>
<polygon fill="#b9ff00" stroke="#b9ff00" points="1436.18,-260.79 1441.52,-251.63 1431.64,-255.46 1436.18,-260.79"/>
</g>
<!-- n35 -->
<g id="node36" class="node">
<title>n35</title>
<ellipse fill="#2b8ea4" stroke="#007add" cx="1651" cy="-234" rx="94.48" ry="18"/>
<text text-anchor="middle" x="1651" y="-230.3" font-family="Times,serif" font-size="14.00" fill="white">INSTRUCCIONES</text>
</g>
<!-- n32&#45;&gt;n35 -->
<g id="edge35" class="edge">
<title>n32&#45;&gt;n35</title>
<path fill="none" stroke="#b9ff00" d="M1422.1,-293.91C1466.62,-282.45 1536.58,-264.45 1587.44,-251.36"/>
<polygon fill="#b9ff00" stroke="#b9ff00" points="1588.53,-254.69 1597.35,-248.81 1586.79,-247.91 1588.53,-254.69"/>
</g>
<!-- n36 -->
<g id="node37" class="node">
<title>n36</title>
<ellipse fill="#2b8ea4" stroke="#007add" cx="1481" cy="-162" rx="82.59" ry="18"/>
<text text-anchor="middle" x="1481" y="-158.3" font-family="Times,serif" font-size="14.00" fill="white">DECLARACION</text>
</g>
<!-- n35&#45;&gt;n36 -->
<g id="edge36" class="edge">
<title>n35&#45;&gt;n36</title>
<path fill="none" stroke="#b9ff00" d="M1613.27,-217.46C1587.81,-206.98 1554.05,-193.08 1527.01,-181.94"/>
<polygon fill="#b9ff00" stroke="#b9ff00" points="1528.33,-178.7 1517.75,-178.13 1525.66,-185.17 1528.33,-178.7"/>
</g>
<!-- n42 -->
<g id="node43" class="node">
<title>n42</title>
<ellipse fill="#2b8ea4" stroke="#007add" cx="1684" cy="-162" rx="59.59" ry="18"/>
<text text-anchor="middle" x="1684" y="-158.3" font-family="Times,serif" font-size="14.00" fill="white">IMPRIMIR</text>
</g>
<!-- n35&#45;&gt;n42 -->
<g id="edge42" class="edge">
<title>n35&#45;&gt;n42</title>
<path fill="none" stroke="#b9ff00" d="M1658.99,-216.05C1662.74,-208.09 1667.31,-198.41 1671.5,-189.51"/>
<polygon fill="#b9ff00" stroke="#b9ff00" points="1674.76,-190.81 1675.86,-180.28 1668.43,-187.83 1674.76,-190.81"/>
</g>
<!-- n37 -->
<g id="node38" class="node">
<title>n37</title>
<ellipse fill="#2b8ea4" stroke="#007add" cx="1329" cy="-90" rx="27" ry="18"/>
<text text-anchor="middle" x="1329" y="-86.3" font-family="Times,serif" font-size="14.00" fill="white">var</text>
</g>
<!-- n36&#45;&gt;n37 -->
<g id="edge37" class="edge">
<title>n36&#45;&gt;n37</title>
<path fill="none" stroke="#b9ff00" d="M1446.94,-145.57C1423.8,-135.06 1392.51,-120.78 1365,-108 1363.21,-107.17 1361.38,-106.31 1359.53,-105.45"/>
<polygon fill="#b9ff00" stroke="#b9ff00" points="1360.84,-102.2 1350.3,-101.11 1357.86,-108.53 1360.84,-102.2"/>
</g>
<!-- n38 -->
<g id="node39" class="node">
<title>n38</title>
<ellipse fill="#2b8ea4" stroke="#007add" cx="1405" cy="-90" rx="30.59" ry="18"/>
<text text-anchor="middle" x="1405" y="-86.3" font-family="Times,serif" font-size="14.00" fill="white">hola</text>
</g>
<!-- n36&#45;&gt;n38 -->
<g id="edge38" class="edge">
<title>n36&#45;&gt;n38</title>
<path fill="none" stroke="#b9ff00" d="M1462.99,-144.41C1452.57,-134.82 1439.36,-122.65 1428.18,-112.35"/>
<polygon fill="#b9ff00" stroke="#b9ff00" points="1430.55,-109.77 1420.82,-105.57 1425.8,-114.92 1430.55,-109.77"/>
</g>
<!-- n39 -->
<g id="node40" class="node">
<title>n39</title>
<ellipse fill="#2b8ea4" stroke="#007add" cx="1481" cy="-90" rx="27" ry="18"/>
<text text-anchor="middle" x="1481" y="-86.3" font-family="Times,serif" font-size="14.00" fill="white">=</text>
</g>
<!-- n36&#45;&gt;n39 -->
<g id="edge39" class="edge">
<title>n36&#45;&gt;n39</title>
<path fill="none" stroke="#b9ff00" d="M1481,-143.7C1481,-135.98 1481,-126.71 1481,-118.11"/>
<polygon fill="#b9ff00" stroke="#b9ff00" points="1484.5,-118.1 1481,-108.1 1477.5,-118.1 1484.5,-118.1"/>
</g>
<!-- n40 -->
<g id="node41" class="node">
<title>n40</title>
<ellipse fill="#2b8ea4" stroke="#007add" cx="1589" cy="-90" rx="63.09" ry="18"/>
<text text-anchor="middle" x="1589" y="-86.3" font-family="Times,serif" font-size="14.00" fill="white">PRIMITIVO</text>
</g>
<!-- n36&#45;&gt;n40 -->
<g id="edge40" class="edge">
<title>n36&#45;&gt;n40</title>
<path fill="none" stroke="#b9ff00" d="M1506.05,-144.76C1520.98,-135.09 1540.11,-122.69 1556.23,-112.24"/>
<polygon fill="#b9ff00" stroke="#b9ff00" points="1558.34,-115.04 1564.83,-106.67 1554.53,-109.17 1558.34,-115.04"/>
</g>
<!-- n41 -->
<g id="node42" class="node">
<title>n41</title>
<ellipse fill="#2b8ea4" stroke="#007add" cx="1589" cy="-18" rx="28.7" ry="18"/>
<text text-anchor="middle" x="1589" y="-14.3" font-family="Times,serif" font-size="14.00" fill="white">100</text>
</g>
<!-- n40&#45;&gt;n41 -->
<g id="edge41" class="edge">
<title>n40&#45;&gt;n41</title>
<path fill="none" stroke="#b9ff00" d="M1589,-71.7C1589,-63.98 1589,-54.71 1589,-46.11"/>
<polygon fill="#b9ff00" stroke="#b9ff00" points="1592.5,-46.1 1589,-36.1 1585.5,-46.1 1592.5,-46.1"/>
</g>
<!-- n43 -->
<g id="node44" class="node">
<title>n43</title>
<ellipse fill="#2b8ea4" stroke="#007add" cx="1760" cy="-90" rx="89.88" ry="18"/>
<text text-anchor="middle" x="1760" y="-86.3" font-family="Times,serif" font-size="14.00" fill="white">IDENTIFICADOR</text>
</g>
<!-- n42&#45;&gt;n43 -->
<g id="edge43" class="edge">
<title>n42&#45;&gt;n43</title>
<path fill="none" stroke="#b9ff00" d="M1701.63,-144.76C1711.37,-135.79 1723.64,-124.49 1734.42,-114.56"/>
<polygon fill="#b9ff00" stroke="#b9ff00" points="1736.96,-116.98 1741.94,-107.63 1732.21,-111.83 1736.96,-116.98"/>
</g>
<!-- n44 -->
<g id="node45" class="node">
<title>n44</title>
<ellipse fill="#2b8ea4" stroke="#007add" cx="1760" cy="-18" rx="30.59" ry="18"/>
<text text-anchor="middle" x="1760" y="-14.3" font-family="Times,serif" font-size="14.00" fill="white">hola</text>
</g>
<!-- n43&#45;&gt;n44 -->
<g id="edge44" class="edge">
<title>n43&#45;&gt;n44</title>
<path fill="none" stroke="#b9ff00" d="M1760,-71.7C1760,-63.98 1760,-54.71 1760,-46.11"/>
<polygon fill="#b9ff00" stroke="#b9ff00" points="1763.5,-46.1 1760,-36.1 1756.5,-46.1 1763.5,-46.1"/>
</g>
<!-- n46 -->
<g id="node47" class="node">
<title>n46</title>
<ellipse fill="#2b8ea4" stroke="#007add" cx="1831" cy="-234" rx="67.69" ry="18"/>
<text text-anchor="middle" x="1831" y="-230.3" font-family="Times,serif" font-size="14.00" fill="white">holamundo3</text>
</g>
<!-- n45&#45;&gt;n46 -->
<g id="edge46" class="edge">
<title>n45&#45;&gt;n46</title>
<path fill="none" stroke="#b9ff00" d="M1893.98,-288.76C1883.29,-279.64 1869.78,-268.1 1858.01,-258.06"/>
<polygon fill="#b9ff00" stroke="#b9ff00" points="1860.08,-255.22 1850.2,-251.39 1855.53,-260.54 1860.08,-255.22"/>
</g>
<!-- n47 -->
<g id="node48" class="node">
<title>n47</title>
<ellipse fill="#2b8ea4" stroke="#007add" cx="1995" cy="-234" rx="77.99" ry="18"/>
<text text-anchor="middle" x="1995" y="-230.3" font-family="Times,serif" font-size="14.00" fill="white">PARAMETROS</text>
</g>
<!-- n45&#45;&gt;n47 -->
<g id="edge47" class="edge">
<title>n45&#45;&gt;n47</title>
<path fill="none" stroke="#b9ff00" d="M1932.02,-288.76C1942.63,-279.71 1956.03,-268.27 1967.73,-258.28"/>
<polygon fill="#b9ff00" stroke="#b9ff00" points="1970.18,-260.79 1975.52,-251.63 1965.64,-255.46 1970.18,-260.79"/>
</g>
<!-- n48 -->
<g id="node49" class="node">
<title>n48</title>
<ellipse fill="#2b8ea4" stroke="#007add" cx="2185" cy="-234" rx="94.48" ry="18"/>
<text text-anchor="middle" x="2185" y="-230.3" font-family="Times,serif" font-size="14.00" fill="white">INSTRUCCIONES</text>
</g>
<!-- n45&#45;&gt;n48 -->
<g id="edge48" class="edge">
<title>n45&#45;&gt;n48</title>
<path fill="none" stroke="#b9ff00" d="M1956.1,-293.91C2000.62,-282.45 2070.58,-264.45 2121.44,-251.36"/>
<polygon fill="#b9ff00" stroke="#b9ff00" points="2122.53,-254.69 2131.35,-248.81 2120.79,-247.91 2122.53,-254.69"/>
</g>
<!-- n49 -->
<g id="node50" class="node">
<title>n49</title>
<ellipse fill="#2b8ea4" stroke="#007add" cx="2061" cy="-162" rx="82.59" ry="18"/>
<text text-anchor="middle" x="2061" y="-158.3" font-family="Times,serif" font-size="14.00" fill="white">DECLARACION</text>
</g>
<!-- n48&#45;&gt;n49 -->
<g id="edge49" class="edge">
<title>n48&#45;&gt;n49</title>
<path fill="none" stroke="#b9ff00" d="M2156.24,-216.76C2139.02,-207.05 2116.95,-194.59 2098.4,-184.11"/>
<polygon fill="#b9ff00" stroke="#b9ff00" points="2100.03,-181.02 2089.6,-179.15 2096.59,-187.11 2100.03,-181.02"/>
</g>
<!-- n55 -->
<g id="node56" class="node">
<title>n55</title>
<ellipse fill="#2b8ea4" stroke="#007add" cx="2228" cy="-162" rx="59.59" ry="18"/>
<text text-anchor="middle" x="2228" y="-158.3" font-family="Times,serif" font-size="14.00" fill="white">IMPRIMIR</text>
</g>
<!-- n48&#45;&gt;n55 -->
<g id="edge55" class="edge">
<title>n48&#45;&gt;n55</title>
<path fill="none" stroke="#b9ff00" d="M2195.41,-216.05C2200.48,-207.8 2206.68,-197.7 2212.31,-188.54"/>
<polygon fill="#b9ff00" stroke="#b9ff00" points="2215.43,-190.14 2217.69,-179.79 2209.47,-186.48 2215.43,-190.14"/>
</g>
<!-- n50 -->
<g id="node51" class="node">
<title>n50</title>
<ellipse fill="#2b8ea4" stroke="#007add" cx="1909" cy="-90" rx="27" ry="18"/>
<text text-anchor="middle" x="1909" y="-86.3" font-family="Times,serif" font-size="14.00" fill="white">var</text>
</g>
<!-- n49&#45;&gt;n50 -->
<g id="edge50" class="edge">
<title>n49&#45;&gt;n50</title>
<path fill="none" stroke="#b9ff00" d="M2026.94,-145.57C2003.8,-135.06 1972.51,-120.78 1945,-108 1943.21,-107.17 1941.38,-106.31 1939.53,-105.45"/>
<polygon fill="#b9ff00" stroke="#b9ff00" points="1940.84,-102.2 1930.3,-101.11 1937.86,-108.53 1940.84,-102.2"/>
</g>
<!-- n51 -->
<g id="node52" class="node">
<title>n51</title>
<ellipse fill="#2b8ea4" stroke="#007add" cx="1985" cy="-90" rx="30.59" ry="18"/>
<text text-anchor="middle" x="1985" y="-86.3" font-family="Times,serif" font-size="14.00" fill="white">hola</text>
</g>
<!-- n49&#45;&gt;n51 -->
<g id="edge51" class="edge">
<title>n49&#45;&gt;n51</title>
<path fill="none" stroke="#b9ff00" d="M2042.99,-144.41C2032.57,-134.82 2019.36,-122.65 2008.18,-112.35"/>
<polygon fill="#b9ff00" stroke="#b9ff00" points="2010.55,-109.77 2000.82,-105.57 2005.8,-114.92 2010.55,-109.77"/>
</g>
<!-- n52 -->
<g id="node53" class="node">
<title>n52</title>
<ellipse fill="#2b8ea4" stroke="#007add" cx="2061" cy="-90" rx="27" ry="18"/>
<text text-anchor="middle" x="2061" y="-86.3" font-family="Times,serif" font-size="14.00" fill="white">=</text>
</g>
<!-- n49&#45;&gt;n52 -->
<g id="edge52" class="edge">
<title>n49&#45;&gt;n52</title>
<path fill="none" stroke="#b9ff00" d="M2061,-143.7C2061,-135.98 2061,-126.71 2061,-118.11"/>
<polygon fill="#b9ff00" stroke="#b9ff00" points="2064.5,-118.1 2061,-108.1 2057.5,-118.1 2064.5,-118.1"/>
</g>
<!-- n53 -->
<g id="node54" class="node">
<title>n53</title>
<ellipse fill="#2b8ea4" stroke="#007add" cx="2169" cy="-90" rx="63.09" ry="18"/>
<text text-anchor="middle" x="2169" y="-86.3" font-family="Times,serif" font-size="14.00" fill="white">PRIMITIVO</text>
</g>
<!-- n49&#45;&gt;n53 -->
<g id="edge53" class="edge">
<title>n49&#45;&gt;n53</title>
<path fill="none" stroke="#b9ff00" d="M2086.05,-144.76C2100.98,-135.09 2120.11,-122.69 2136.23,-112.24"/>
<polygon fill="#b9ff00" stroke="#b9ff00" points="2138.34,-115.04 2144.83,-106.67 2134.53,-109.17 2138.34,-115.04"/>
</g>
<!-- n54 -->
<g id="node55" class="node">
<title>n54</title>
<ellipse fill="#2b8ea4" stroke="#007add" cx="2169" cy="-18" rx="28.7" ry="18"/>
<text text-anchor="middle" x="2169" y="-14.3" font-family="Times,serif" font-size="14.00" fill="white">100</text>
</g>
<!-- n53&#45;&gt;n54 -->
<g id="edge54" class="edge">
<title>n53&#45;&gt;n54</title>
<path fill="none" stroke="#b9ff00" d="M2169,-71.7C2169,-63.98 2169,-54.71 2169,-46.11"/>
<polygon fill="#b9ff00" stroke="#b9ff00" points="2172.5,-46.1 2169,-36.1 2165.5,-46.1 2172.5,-46.1"/>
</g>
<!-- n56 -->
<g id="node57" class="node">
<title>n56</title>
<ellipse fill="#2b8ea4" stroke="#007add" cx="2340" cy="-90" rx="89.88" ry="18"/>
<text text-anchor="middle" x="2340" y="-86.3" font-family="Times,serif" font-size="14.00" fill="white">IDENTIFICADOR</text>
</g>
<!-- n55&#45;&gt;n56 -->
<g id="edge56" class="edge">
<title>n55&#45;&gt;n56</title>
<path fill="none" stroke="#b9ff00" d="M2252.86,-145.46C2268.22,-135.86 2288.18,-123.39 2305.11,-112.81"/>
<polygon fill="#b9ff00" stroke="#b9ff00" points="2307.03,-115.74 2313.65,-107.47 2303.32,-109.8 2307.03,-115.74"/>
</g>
<!-- n57 -->
<g id="node58" class="node">
<title>n57</title>
<ellipse fill="#2b8ea4" stroke="#007add" cx="2340" cy="-18" rx="30.59" ry="18"/>
<text text-anchor="middle" x="2340" y="-14.3" font-family="Times,serif" font-size="14.00" fill="white">hola</text>
</g>
<!-- n56&#45;&gt;n57 -->
<g id="edge57" class="edge">
<title>n56&#45;&gt;n57</title>
<path fill="none" stroke="#b9ff00" d="M2340,-71.7C2340,-63.98 2340,-54.71 2340,-46.11"/>
<polygon fill="#b9ff00" stroke="#b9ff00" points="2343.5,-46.1 2340,-36.1 2336.5,-46.1 2343.5,-46.1"/>
</g>
</g>
</svg>
