<?xml version="1.0" encoding="UTF-8" standalone="no"?>
<!DOCTYPE svg PUBLIC "-//W3C//DTD SVG 1.1//EN"
 "http://www.w3.org/Graphics/SVG/1.1/DTD/svg11.dtd">
<!-- Generated by graphviz version 2.43.0 (0)
 -->
<!-- Title: %3 Pages: 1 -->
<svg width="2258pt" height="1052pt"
 viewBox="0.00 0.00 2258.39 1052.00" xmlns="http://www.w3.org/2000/svg" xmlns:xlink="http://www.w3.org/1999/xlink">
<g id="graph0" class="graph" transform="scale(1 1) rotate(0) translate(4 1048)">
<title>%3</title>
<polygon fill="#21495c" stroke="transparent" points="-4,4 -4,-1048 2254.39,-1048 2254.39,4 -4,4"/>
<!-- n0 -->
<g id="node1" class="node">
<title>n0</title>
<ellipse fill="#2b8ea4" stroke="#007add" cx="1013.34" cy="-1026" rx="33.6" ry="18"/>
<text text-anchor="middle" x="1013.34" y="-1022.3" font-family="Times,serif" font-size="14.00" fill="white">RAIZ</text>
</g>
<!-- n1 -->
<g id="node2" class="node">
<title>n1</title>
<ellipse fill="#2b8ea4" stroke="#007add" cx="1013.34" cy="-954" rx="94.48" ry="18"/>
<text text-anchor="middle" x="1013.34" y="-950.3" font-family="Times,serif" font-size="14.00" fill="white">INSTRUCCIONES</text>
</g>
<!-- n0&#45;&gt;n1 -->
<g id="edge1" class="edge">
<title>n0&#45;&gt;n1</title>
<path fill="none" stroke="#b9ff00" d="M1013.34,-1007.7C1013.34,-999.98 1013.34,-990.71 1013.34,-982.11"/>
<polygon fill="#b9ff00" stroke="#b9ff00" points="1016.84,-982.1 1013.34,-972.1 1009.84,-982.1 1016.84,-982.1"/>
</g>
<!-- n2 -->
<g id="node3" class="node">
<title>n2</title>
<ellipse fill="#2b8ea4" stroke="#007add" cx="546.34" cy="-882" rx="57.69" ry="18"/>
<text text-anchor="middle" x="546.34" y="-878.3" font-family="Times,serif" font-size="14.00" fill="white">FUNCION</text>
</g>
<!-- n1&#45;&gt;n2 -->
<g id="edge2" class="edge">
<title>n1&#45;&gt;n2</title>
<path fill="none" stroke="#b9ff00" d="M941.65,-942.25C850.13,-928.54 693.36,-905.04 607.31,-892.14"/>
<polygon fill="#b9ff00" stroke="#b9ff00" points="607.59,-888.64 597.18,-890.62 606.55,-895.56 607.59,-888.64"/>
</g>
<!-- n66 -->
<g id="node67" class="node">
<title>n66</title>
<ellipse fill="#2b8ea4" stroke="#007add" cx="1013.34" cy="-882" rx="82.59" ry="18"/>
<text text-anchor="middle" x="1013.34" y="-878.3" font-family="Times,serif" font-size="14.00" fill="white">DECLARACION</text>
</g>
<!-- n1&#45;&gt;n66 -->
<g id="edge66" class="edge">
<title>n1&#45;&gt;n66</title>
<path fill="none" stroke="#b9ff00" d="M1013.34,-935.7C1013.34,-927.98 1013.34,-918.71 1013.34,-910.11"/>
<polygon fill="#b9ff00" stroke="#b9ff00" points="1016.84,-910.1 1013.34,-900.1 1009.84,-910.1 1016.84,-910.1"/>
</g>
<!-- n72 -->
<g id="node73" class="node">
<title>n72</title>
<ellipse fill="#2b8ea4" stroke="#007add" cx="1292.34" cy="-882" rx="37.89" ry="18"/>
<text text-anchor="middle" x="1292.34" y="-878.3" font-family="Times,serif" font-size="14.00" fill="white">MAIN</text>
</g>
<!-- n1&#45;&gt;n72 -->
<g id="edge72" class="edge">
<title>n1&#45;&gt;n72</title>
<path fill="none" stroke="#b9ff00" d="M1068.13,-939.25C1121.32,-925.91 1200.95,-905.93 1249.61,-893.72"/>
<polygon fill="#b9ff00" stroke="#b9ff00" points="1250.66,-897.07 1259.51,-891.24 1248.96,-890.28 1250.66,-897.07"/>
</g>
<!-- n3 -->
<g id="node4" class="node">
<title>n3</title>
<ellipse fill="#2b8ea4" stroke="#007add" cx="293.34" cy="-810" rx="61.99" ry="18"/>
<text text-anchor="middle" x="293.34" y="-806.3" font-family="Times,serif" font-size="14.00" fill="white">ackermann</text>
</g>
<!-- n2&#45;&gt;n3 -->
<g id="edge3" class="edge">
<title>n2&#45;&gt;n3</title>
<path fill="none" stroke="#b9ff00" d="M504.57,-869.44C461.19,-857.44 393.23,-838.64 346.16,-825.61"/>
<polygon fill="#b9ff00" stroke="#b9ff00" points="347.02,-822.22 336.45,-822.93 345.16,-828.97 347.02,-822.22"/>
</g>
<!-- n4 -->
<g id="node5" class="node">
<title>n4</title>
<ellipse fill="#2b8ea4" stroke="#007add" cx="451.34" cy="-810" rx="77.99" ry="18"/>
<text text-anchor="middle" x="451.34" y="-806.3" font-family="Times,serif" font-size="14.00" fill="white">PARAMETROS</text>
</g>
<!-- n2&#45;&gt;n4 -->
<g id="edge4" class="edge">
<title>n2&#45;&gt;n4</title>
<path fill="none" stroke="#b9ff00" d="M524.79,-865.12C512.09,-855.76 495.83,-843.78 481.84,-833.47"/>
<polygon fill="#b9ff00" stroke="#b9ff00" points="483.6,-830.42 473.47,-827.31 479.45,-836.06 483.6,-830.42"/>
</g>
<!-- n11 -->
<g id="node12" class="node">
<title>n11</title>
<ellipse fill="#2b8ea4" stroke="#007add" cx="649.34" cy="-810" rx="94.48" ry="18"/>
<text text-anchor="middle" x="649.34" y="-806.3" font-family="Times,serif" font-size="14.00" fill="white">INSTRUCCIONES</text>
</g>
<!-- n2&#45;&gt;n11 -->
<g id="edge11" class="edge">
<title>n2&#45;&gt;n11</title>
<path fill="none" stroke="#b9ff00" d="M569.2,-865.46C583.2,-855.95 601.35,-843.62 616.83,-833.1"/>
<polygon fill="#b9ff00" stroke="#b9ff00" points="618.81,-835.98 625.11,-827.47 614.87,-830.19 618.81,-835.98"/>
</g>
<!-- n5 -->
<g id="node6" class="node">
<title>n5</title>
<ellipse fill="#2b8ea4" stroke="#007add" cx="199.34" cy="-738" rx="71.49" ry="18"/>
<text text-anchor="middle" x="199.34" y="-734.3" font-family="Times,serif" font-size="14.00" fill="white">PARAMETRO</text>
</g>
<!-- n4&#45;&gt;n5 -->
<g id="edge5" class="edge">
<title>n4&#45;&gt;n5</title>
<path fill="none" stroke="#b9ff00" d="M403.65,-795.75C361.46,-784.03 299.88,-766.93 255.36,-754.56"/>
<polygon fill="#b9ff00" stroke="#b9ff00" points="256.14,-751.14 245.57,-751.84 254.27,-757.89 256.14,-751.14"/>
</g>
<!-- n8 -->
<g id="node9" class="node">
<title>n8</title>
<ellipse fill="#2b8ea4" stroke="#007add" cx="443.34" cy="-738" rx="71.49" ry="18"/>
<text text-anchor="middle" x="443.34" y="-734.3" font-family="Times,serif" font-size="14.00" fill="white">PARAMETRO</text>
</g>
<!-- n4&#45;&gt;n8 -->
<g id="edge8" class="edge">
<title>n4&#45;&gt;n8</title>
<path fill="none" stroke="#b9ff00" d="M449.37,-791.7C448.48,-783.98 447.42,-774.71 446.44,-766.11"/>
<polygon fill="#b9ff00" stroke="#b9ff00" points="449.91,-765.64 445.3,-756.1 442.96,-766.44 449.91,-765.64"/>
</g>
<!-- n6 -->
<g id="node7" class="node">
<title>n6</title>
<ellipse fill="#2b8ea4" stroke="#007add" cx="77.34" cy="-666" rx="77.19" ry="18"/>
<text text-anchor="middle" x="77.34" y="-662.3" font-family="Times,serif" font-size="14.00" fill="white">TIPO.ENTERO</text>
</g>
<!-- n5&#45;&gt;n6 -->
<g id="edge6" class="edge">
<title>n5&#45;&gt;n6</title>
<path fill="none" stroke="#b9ff00" d="M171.96,-721.29C154.82,-711.45 132.52,-698.66 113.87,-687.96"/>
<polygon fill="#b9ff00" stroke="#b9ff00" points="115.47,-684.84 105.05,-682.9 111.98,-690.91 115.47,-684.84"/>
</g>
<!-- n7 -->
<g id="node8" class="node">
<title>n7</title>
<ellipse fill="#2b8ea4" stroke="#007add" cx="199.34" cy="-666" rx="27" ry="18"/>
<text text-anchor="middle" x="199.34" y="-662.3" font-family="Times,serif" font-size="14.00" fill="white">m</text>
</g>
<!-- n5&#45;&gt;n7 -->
<g id="edge7" class="edge">
<title>n5&#45;&gt;n7</title>
<path fill="none" stroke="#b9ff00" d="M199.34,-719.7C199.34,-711.98 199.34,-702.71 199.34,-694.11"/>
<polygon fill="#b9ff00" stroke="#b9ff00" points="202.84,-694.1 199.34,-684.1 195.84,-694.1 202.84,-694.1"/>
</g>
<!-- n9 -->
<g id="node10" class="node">
<title>n9</title>
<ellipse fill="#2b8ea4" stroke="#007add" cx="321.34" cy="-666" rx="77.19" ry="18"/>
<text text-anchor="middle" x="321.34" y="-662.3" font-family="Times,serif" font-size="14.00" fill="white">TIPO.ENTERO</text>
</g>
<!-- n8&#45;&gt;n9 -->
<g id="edge9" class="edge">
<title>n8&#45;&gt;n9</title>
<path fill="none" stroke="#b9ff00" d="M415.96,-721.29C398.82,-711.45 376.52,-698.66 357.87,-687.96"/>
<polygon fill="#b9ff00" stroke="#b9ff00" points="359.47,-684.84 349.05,-682.9 355.98,-690.91 359.47,-684.84"/>
</g>
<!-- n10 -->
<g id="node11" class="node">
<title>n10</title>
<ellipse fill="#2b8ea4" stroke="#007add" cx="443.34" cy="-666" rx="27" ry="18"/>
<text text-anchor="middle" x="443.34" y="-662.3" font-family="Times,serif" font-size="14.00" fill="white">n</text>
</g>
<!-- n8&#45;&gt;n10 -->
<g id="edge10" class="edge">
<title>n8&#45;&gt;n10</title>
<path fill="none" stroke="#b9ff00" d="M443.34,-719.7C443.34,-711.98 443.34,-702.71 443.34,-694.11"/>
<polygon fill="#b9ff00" stroke="#b9ff00" points="446.84,-694.1 443.34,-684.1 439.84,-694.1 446.84,-694.1"/>
</g>
<!-- n12 -->
<g id="node13" class="node">
<title>n12</title>
<ellipse fill="#2b8ea4" stroke="#007add" cx="649.34" cy="-738" rx="73.39" ry="18"/>
<text text-anchor="middle" x="649.34" y="-734.3" font-family="Times,serif" font-size="14.00" fill="white">ASIGNACION</text>
</g>
<!-- n11&#45;&gt;n12 -->
<g id="edge12" class="edge">
<title>n11&#45;&gt;n12</title>
<path fill="none" stroke="#b9ff00" d="M649.34,-791.7C649.34,-783.98 649.34,-774.71 649.34,-766.11"/>
<polygon fill="#b9ff00" stroke="#b9ff00" points="652.84,-766.1 649.34,-756.1 645.84,-766.1 652.84,-766.1"/>
</g>
<!-- n21 -->
<g id="node22" class="node">
<title>n21</title>
<ellipse fill="#2b8ea4" stroke="#007add" cx="961.34" cy="-738" rx="27" ry="18"/>
<text text-anchor="middle" x="961.34" y="-734.3" font-family="Times,serif" font-size="14.00" fill="white">IF</text>
</g>
<!-- n11&#45;&gt;n21 -->
<g id="edge21" class="edge">
<title>n11&#45;&gt;n21</title>
<path fill="none" stroke="#b9ff00" d="M708.03,-795.83C772.24,-781.43 873.07,-758.8 926.08,-746.91"/>
<polygon fill="#b9ff00" stroke="#b9ff00" points="927.03,-750.29 936.02,-744.68 925.49,-743.46 927.03,-750.29"/>
</g>
<!-- n13 -->
<g id="node14" class="node">
<title>n13</title>
<ellipse fill="#2b8ea4" stroke="#007add" cx="546.34" cy="-666" rx="57.69" ry="18"/>
<text text-anchor="middle" x="546.34" y="-662.3" font-family="Times,serif" font-size="14.00" fill="white">contadorA</text>
</g>
<!-- n12&#45;&gt;n13 -->
<g id="edge13" class="edge">
<title>n12&#45;&gt;n13</title>
<path fill="none" stroke="#b9ff00" d="M625.71,-720.94C611.61,-711.36 593.52,-699.06 578.18,-688.63"/>
<polygon fill="#b9ff00" stroke="#b9ff00" points="579.75,-685.47 569.51,-682.74 575.81,-691.26 579.75,-685.47"/>
</g>
<!-- n14 -->
<g id="node15" class="node">
<title>n14</title>
<ellipse fill="#2b8ea4" stroke="#007add" cx="649.34" cy="-666" rx="27" ry="18"/>
<text text-anchor="middle" x="649.34" y="-662.3" font-family="Times,serif" font-size="14.00" fill="white">=</text>
</g>
<!-- n12&#45;&gt;n14 -->
<g id="edge14" class="edge">
<title>n12&#45;&gt;n14</title>
<path fill="none" stroke="#b9ff00" d="M649.34,-719.7C649.34,-711.98 649.34,-702.71 649.34,-694.11"/>
<polygon fill="#b9ff00" stroke="#b9ff00" points="652.84,-694.1 649.34,-684.1 645.84,-694.1 652.84,-694.1"/>
</g>
<!-- n15 -->
<g id="node16" class="node">
<title>n15</title>
<ellipse fill="#2b8ea4" stroke="#007add" cx="765.34" cy="-666" rx="71.49" ry="18"/>
<text text-anchor="middle" x="765.34" y="-662.3" font-family="Times,serif" font-size="14.00" fill="white">ARITMETICA</text>
</g>
<!-- n12&#45;&gt;n15 -->
<g id="edge15" class="edge">
<title>n12&#45;&gt;n15</title>
<path fill="none" stroke="#b9ff00" d="M675.67,-721.12C691.83,-711.36 712.73,-698.75 730.29,-688.15"/>
<polygon fill="#b9ff00" stroke="#b9ff00" points="732.37,-690.98 739.13,-682.82 728.75,-684.99 732.37,-690.98"/>
</g>
<!-- n16 -->
<g id="node17" class="node">
<title>n16</title>
<ellipse fill="#2b8ea4" stroke="#007add" cx="577.34" cy="-594" rx="89.88" ry="18"/>
<text text-anchor="middle" x="577.34" y="-590.3" font-family="Times,serif" font-size="14.00" fill="white">IDENTIFICADOR</text>
</g>
<!-- n15&#45;&gt;n16 -->
<g id="edge16" class="edge">
<title>n15&#45;&gt;n16</title>
<path fill="none" stroke="#b9ff00" d="M726.84,-650.67C698.13,-639.97 658.64,-625.27 627.46,-613.66"/>
<polygon fill="#b9ff00" stroke="#b9ff00" points="628.66,-610.37 618.07,-610.16 626.22,-616.93 628.66,-610.37"/>
</g>
<!-- n18 -->
<g id="node19" class="node">
<title>n18</title>
<ellipse fill="#2b8ea4" stroke="#007add" cx="712.34" cy="-594" rx="27" ry="18"/>
<text text-anchor="middle" x="712.34" y="-590.3" font-family="Times,serif" font-size="14.00" fill="white">+</text>
</g>
<!-- n15&#45;&gt;n18 -->
<g id="edge18" class="edge">
<title>n15&#45;&gt;n18</title>
<path fill="none" stroke="#b9ff00" d="M752.51,-648.05C745.78,-639.17 737.44,-628.14 730.09,-618.45"/>
<polygon fill="#b9ff00" stroke="#b9ff00" points="732.8,-616.22 723.97,-610.36 727.22,-620.44 732.8,-616.22"/>
</g>
<!-- n19 -->
<g id="node20" class="node">
<title>n19</title>
<ellipse fill="#2b8ea4" stroke="#007add" cx="820.34" cy="-594" rx="63.09" ry="18"/>
<text text-anchor="middle" x="820.34" y="-590.3" font-family="Times,serif" font-size="14.00" fill="white">PRIMITIVO</text>
</g>
<!-- n15&#45;&gt;n19 -->
<g id="edge19" class="edge">
<title>n15&#45;&gt;n19</title>
<path fill="none" stroke="#b9ff00" d="M778.66,-648.05C785.35,-639.54 793.58,-629.07 800.95,-619.68"/>
<polygon fill="#b9ff00" stroke="#b9ff00" points="803.73,-621.81 807.15,-611.79 798.22,-617.49 803.73,-621.81"/>
</g>
<!-- n17 -->
<g id="node18" class="node">
<title>n17</title>
<ellipse fill="#2b8ea4" stroke="#007add" cx="577.34" cy="-522" rx="57.69" ry="18"/>
<text text-anchor="middle" x="577.34" y="-518.3" font-family="Times,serif" font-size="14.00" fill="white">contadorA</text>
</g>
<!-- n16&#45;&gt;n17 -->
<g id="edge17" class="edge">
<title>n16&#45;&gt;n17</title>
<path fill="none" stroke="#b9ff00" d="M577.34,-575.7C577.34,-567.98 577.34,-558.71 577.34,-550.11"/>
<polygon fill="#b9ff00" stroke="#b9ff00" points="580.84,-550.1 577.34,-540.1 573.84,-550.1 580.84,-550.1"/>
</g>
<!-- n20 -->
<g id="node21" class="node">
<title>n20</title>
<ellipse fill="#2b8ea4" stroke="#007add" cx="815.34" cy="-522" rx="27" ry="18"/>
<text text-anchor="middle" x="815.34" y="-518.3" font-family="Times,serif" font-size="14.00" fill="white">1</text>
</g>
<!-- n19&#45;&gt;n20 -->
<g id="edge20" class="edge">
<title>n19&#45;&gt;n20</title>
<path fill="none" stroke="#b9ff00" d="M819.11,-575.7C818.56,-567.98 817.89,-558.71 817.28,-550.11"/>
<polygon fill="#b9ff00" stroke="#b9ff00" points="820.77,-549.83 816.56,-540.1 813.79,-550.33 820.77,-549.83"/>
</g>
<!-- n22 -->
<g id="node23" class="node">
<title>n22</title>
<ellipse fill="#2b8ea4" stroke="#007add" cx="961.34" cy="-666" rx="106.68" ry="18"/>
<text text-anchor="middle" x="961.34" y="-662.3" font-family="Times,serif" font-size="14.00" fill="white">INSTRUCCIONES IF</text>
</g>
<!-- n21&#45;&gt;n22 -->
<g id="edge22" class="edge">
<title>n21&#45;&gt;n22</title>
<path fill="none" stroke="#b9ff00" d="M961.34,-719.7C961.34,-711.98 961.34,-702.71 961.34,-694.11"/>
<polygon fill="#b9ff00" stroke="#b9ff00" points="964.84,-694.1 961.34,-684.1 957.84,-694.1 964.84,-694.1"/>
</g>
<!-- n30 -->
<g id="node31" class="node">
<title>n30</title>
<ellipse fill="#2b8ea4" stroke="#007add" cx="1126.34" cy="-666" rx="27" ry="18"/>
<text text-anchor="middle" x="1126.34" y="-662.3" font-family="Times,serif" font-size="14.00" fill="white">IF</text>
</g>
<!-- n21&#45;&gt;n30 -->
<g id="edge30" class="edge">
<title>n21&#45;&gt;n30</title>
<path fill="none" stroke="#b9ff00" d="M983.6,-727.56C1012.21,-715.42 1062.1,-694.25 1094.67,-680.44"/>
<polygon fill="#b9ff00" stroke="#b9ff00" points="1096.34,-683.53 1104.18,-676.4 1093.61,-677.09 1096.34,-683.53"/>
</g>
<!-- n23 -->
<g id="node24" class="node">
<title>n23</title>
<ellipse fill="#2b8ea4" stroke="#007add" cx="947.34" cy="-594" rx="44.39" ry="18"/>
<text text-anchor="middle" x="947.34" y="-590.3" font-family="Times,serif" font-size="14.00" fill="white">BREAK</text>
</g>
<!-- n22&#45;&gt;n23 -->
<g id="edge23" class="edge">
<title>n22&#45;&gt;n23</title>
<path fill="none" stroke="#b9ff00" d="M957.88,-647.7C956.34,-639.98 954.49,-630.71 952.77,-622.11"/>
<polygon fill="#b9ff00" stroke="#b9ff00" points="956.16,-621.22 950.76,-612.1 949.29,-622.6 956.16,-621.22"/>
</g>
<!-- n24 -->
<g id="node25" class="node">
<title>n24</title>
<ellipse fill="#2b8ea4" stroke="#007add" cx="931.34" cy="-522" rx="71.49" ry="18"/>
<text text-anchor="middle" x="931.34" y="-518.3" font-family="Times,serif" font-size="14.00" fill="white">ARITMETICA</text>
</g>
<!-- n23&#45;&gt;n24 -->
<g id="edge24" class="edge">
<title>n23&#45;&gt;n24</title>
<path fill="none" stroke="#b9ff00" d="M943.47,-576.05C941.69,-568.26 939.53,-558.82 937.53,-550.08"/>
<polygon fill="#b9ff00" stroke="#b9ff00" points="940.93,-549.24 935.29,-540.28 934.11,-550.8 940.93,-549.24"/>
</g>
<!-- n25 -->
<g id="node26" class="node">
<title>n25</title>
<ellipse fill="#2b8ea4" stroke="#007add" cx="688.34" cy="-450" rx="89.88" ry="18"/>
<text text-anchor="middle" x="688.34" y="-446.3" font-family="Times,serif" font-size="14.00" fill="white">IDENTIFICADOR</text>
</g>
<!-- n24&#45;&gt;n25 -->
<g id="edge25" class="edge">
<title>n24&#45;&gt;n25</title>
<path fill="none" stroke="#b9ff00" d="M886.21,-508C846.99,-496.7 789.92,-480.26 747.13,-467.94"/>
<polygon fill="#b9ff00" stroke="#b9ff00" points="747.99,-464.54 737.41,-465.14 746.05,-471.27 747.99,-464.54"/>
</g>
<!-- n27 -->
<g id="node28" class="node">
<title>n27</title>
<ellipse fill="#2b8ea4" stroke="#007add" cx="823.34" cy="-450" rx="27" ry="18"/>
<text text-anchor="middle" x="823.34" y="-446.3" font-family="Times,serif" font-size="14.00" fill="white">+</text>
</g>
<!-- n24&#45;&gt;n27 -->
<g id="edge27" class="edge">
<title>n24&#45;&gt;n27</title>
<path fill="none" stroke="#b9ff00" d="M906.57,-504.94C889.81,-494.08 867.68,-479.73 850.45,-468.57"/>
<polygon fill="#b9ff00" stroke="#b9ff00" points="852.24,-465.56 841.94,-463.05 848.43,-471.43 852.24,-465.56"/>
</g>
<!-- n28 -->
<g id="node29" class="node">
<title>n28</title>
<ellipse fill="#2b8ea4" stroke="#007add" cx="931.34" cy="-450" rx="63.09" ry="18"/>
<text text-anchor="middle" x="931.34" y="-446.3" font-family="Times,serif" font-size="14.00" fill="white">PRIMITIVO</text>
</g>
<!-- n24&#45;&gt;n28 -->
<g id="edge28" class="edge">
<title>n24&#45;&gt;n28</title>
<path fill="none" stroke="#b9ff00" d="M931.34,-503.7C931.34,-495.98 931.34,-486.71 931.34,-478.11"/>
<polygon fill="#b9ff00" stroke="#b9ff00" points="934.84,-478.1 931.34,-468.1 927.84,-478.1 934.84,-478.1"/>
</g>
<!-- n26 -->
<g id="node27" class="node">
<title>n26</title>
<ellipse fill="#2b8ea4" stroke="#007add" cx="688.34" cy="-378" rx="27" ry="18"/>
<text text-anchor="middle" x="688.34" y="-374.3" font-family="Times,serif" font-size="14.00" fill="white">n</text>
</g>
<!-- n25&#45;&gt;n26 -->
<g id="edge26" class="edge">
<title>n25&#45;&gt;n26</title>
<path fill="none" stroke="#b9ff00" d="M688.34,-431.7C688.34,-423.98 688.34,-414.71 688.34,-406.11"/>
<polygon fill="#b9ff00" stroke="#b9ff00" points="691.84,-406.1 688.34,-396.1 684.84,-406.1 691.84,-406.1"/>
</g>
<!-- n29 -->
<g id="node30" class="node">
<title>n29</title>
<ellipse fill="#2b8ea4" stroke="#007add" cx="931.34" cy="-378" rx="27" ry="18"/>
<text text-anchor="middle" x="931.34" y="-374.3" font-family="Times,serif" font-size="14.00" fill="white">1</text>
</g>
<!-- n28&#45;&gt;n29 -->
<g id="edge29" class="edge">
<title>n28&#45;&gt;n29</title>
<path fill="none" stroke="#b9ff00" d="M931.34,-431.7C931.34,-423.98 931.34,-414.71 931.34,-406.11"/>
<polygon fill="#b9ff00" stroke="#b9ff00" points="934.84,-406.1 931.34,-396.1 927.84,-406.1 934.84,-406.1"/>
</g>
<!-- n31 -->
<g id="node32" class="node">
<title>n31</title>
<ellipse fill="#2b8ea4" stroke="#007add" cx="1126.34" cy="-594" rx="106.68" ry="18"/>
<text text-anchor="middle" x="1126.34" y="-590.3" font-family="Times,serif" font-size="14.00" fill="white">INSTRUCCIONES IF</text>
</g>
<!-- n30&#45;&gt;n31 -->
<g id="edge31" class="edge">
<title>n30&#45;&gt;n31</title>
<path fill="none" stroke="#b9ff00" d="M1126.34,-647.7C1126.34,-639.98 1126.34,-630.71 1126.34,-622.11"/>
<polygon fill="#b9ff00" stroke="#b9ff00" points="1129.84,-622.1 1126.34,-612.1 1122.84,-622.1 1129.84,-622.1"/>
</g>
<!-- n44 -->
<g id="node45" class="node">
<title>n44</title>
<ellipse fill="#2b8ea4" stroke="#007add" cx="1373.34" cy="-594" rx="122.68" ry="18"/>
<text text-anchor="middle" x="1373.34" y="-590.3" font-family="Times,serif" font-size="14.00" fill="white">INSTRUCCIONES ELSE</text>
</g>
<!-- n30&#45;&gt;n44 -->
<g id="edge44" class="edge">
<title>n30&#45;&gt;n44</title>
<path fill="none" stroke="#b9ff00" d="M1150.93,-658.03C1187.61,-647.64 1257.9,-627.72 1309.68,-613.04"/>
<polygon fill="#b9ff00" stroke="#b9ff00" points="1310.78,-616.37 1319.44,-610.28 1308.87,-609.63 1310.78,-616.37"/>
</g>
<!-- n32 -->
<g id="node33" class="node">
<title>n32</title>
<ellipse fill="#2b8ea4" stroke="#007add" cx="1127.34" cy="-522" rx="44.39" ry="18"/>
<text text-anchor="middle" x="1127.34" y="-518.3" font-family="Times,serif" font-size="14.00" fill="white">BREAK</text>
</g>
<!-- n31&#45;&gt;n32 -->
<g id="edge32" class="edge">
<title>n31&#45;&gt;n32</title>
<path fill="none" stroke="#b9ff00" d="M1126.59,-575.7C1126.7,-567.98 1126.83,-558.71 1126.96,-550.11"/>
<polygon fill="#b9ff00" stroke="#b9ff00" points="1130.46,-550.15 1127.1,-540.1 1123.46,-550.05 1130.46,-550.15"/>
</g>
<!-- n33 -->
<g id="node34" class="node">
<title>n33</title>
<ellipse fill="#2b8ea4" stroke="#007add" cx="1130.34" cy="-450" rx="117.78" ry="18"/>
<text text-anchor="middle" x="1130.34" y="-446.3" font-family="Times,serif" font-size="14.00" fill="white">LLAMADA A FUNCION</text>
</g>
<!-- n32&#45;&gt;n33 -->
<g id="edge33" class="edge">
<title>n32&#45;&gt;n33</title>
<path fill="none" stroke="#b9ff00" d="M1128.08,-503.7C1128.42,-495.98 1128.81,-486.71 1129.18,-478.11"/>
<polygon fill="#b9ff00" stroke="#b9ff00" points="1132.68,-478.25 1129.61,-468.1 1125.69,-477.95 1132.68,-478.25"/>
</g>
<!-- n34 -->
<g id="node35" class="node">
<title>n34</title>
<ellipse fill="#2b8ea4" stroke="#007add" cx="1052.34" cy="-378" rx="61.99" ry="18"/>
<text text-anchor="middle" x="1052.34" y="-374.3" font-family="Times,serif" font-size="14.00" fill="white">ackermann</text>
</g>
<!-- n33&#45;&gt;n34 -->
<g id="edge34" class="edge">
<title>n33&#45;&gt;n34</title>
<path fill="none" stroke="#b9ff00" d="M1111.46,-432.05C1101.45,-423.07 1089,-411.9 1078.11,-402.12"/>
<polygon fill="#b9ff00" stroke="#b9ff00" points="1080.29,-399.38 1070.51,-395.31 1075.62,-404.59 1080.29,-399.38"/>
</g>
<!-- n35 -->
<g id="node36" class="node">
<title>n35</title>
<ellipse fill="#2b8ea4" stroke="#007add" cx="1210.34" cy="-378" rx="77.99" ry="18"/>
<text text-anchor="middle" x="1210.34" y="-374.3" font-family="Times,serif" font-size="14.00" fill="white">PARAMETROS</text>
</g>
<!-- n33&#45;&gt;n35 -->
<g id="edge35" class="edge">
<title>n33&#45;&gt;n35</title>
<path fill="none" stroke="#b9ff00" d="M1149.71,-432.05C1159.9,-423.13 1172.56,-412.06 1183.67,-402.34"/>
<polygon fill="#b9ff00" stroke="#b9ff00" points="1186.21,-404.77 1191.43,-395.55 1181.6,-399.5 1186.21,-404.77"/>
</g>
<!-- n36 -->
<g id="node37" class="node">
<title>n36</title>
<ellipse fill="#2b8ea4" stroke="#007add" cx="1035.34" cy="-306" rx="71.49" ry="18"/>
<text text-anchor="middle" x="1035.34" y="-302.3" font-family="Times,serif" font-size="14.00" fill="white">ARITMETICA</text>
</g>
<!-- n35&#45;&gt;n36 -->
<g id="edge36" class="edge">
<title>n35&#45;&gt;n36</title>
<path fill="none" stroke="#b9ff00" d="M1173.23,-362.15C1146.37,-351.41 1109.89,-336.82 1081.21,-325.35"/>
<polygon fill="#b9ff00" stroke="#b9ff00" points="1082.39,-322.05 1071.8,-321.58 1079.79,-328.55 1082.39,-322.05"/>
</g>
<!-- n42 -->
<g id="node43" class="node">
<title>n42</title>
<ellipse fill="#2b8ea4" stroke="#007add" cx="1219.34" cy="-306" rx="63.09" ry="18"/>
<text text-anchor="middle" x="1219.34" y="-302.3" font-family="Times,serif" font-size="14.00" fill="white">PRIMITIVO</text>
</g>
<!-- n35&#45;&gt;n42 -->
<g id="edge42" class="edge">
<title>n35&#45;&gt;n42</title>
<path fill="none" stroke="#b9ff00" d="M1212.57,-359.7C1213.56,-351.98 1214.75,-342.71 1215.86,-334.11"/>
<polygon fill="#b9ff00" stroke="#b9ff00" points="1219.34,-334.47 1217.14,-324.1 1212.4,-333.58 1219.34,-334.47"/>
</g>
<!-- n37 -->
<g id="node38" class="node">
<title>n37</title>
<ellipse fill="#2b8ea4" stroke="#007add" cx="873.34" cy="-234" rx="89.88" ry="18"/>
<text text-anchor="middle" x="873.34" y="-230.3" font-family="Times,serif" font-size="14.00" fill="white">IDENTIFICADOR</text>
</g>
<!-- n36&#45;&gt;n37 -->
<g id="edge37" class="edge">
<title>n36&#45;&gt;n37</title>
<path fill="none" stroke="#b9ff00" d="M1000.99,-290.15C977,-279.79 944.73,-265.85 918.64,-254.57"/>
<polygon fill="#b9ff00" stroke="#b9ff00" points="919.9,-251.31 909.33,-250.55 917.13,-257.73 919.9,-251.31"/>
</g>
<!-- n39 -->
<g id="node40" class="node">
<title>n39</title>
<ellipse fill="#2b8ea4" stroke="#007add" cx="1008.34" cy="-234" rx="27" ry="18"/>
<text text-anchor="middle" x="1008.34" y="-230.3" font-family="Times,serif" font-size="14.00" fill="white">&#45;</text>
</g>
<!-- n36&#45;&gt;n39 -->
<g id="edge39" class="edge">
<title>n36&#45;&gt;n39</title>
<path fill="none" stroke="#b9ff00" d="M1028.81,-288.05C1025.72,-280.06 1021.97,-270.33 1018.53,-261.4"/>
<polygon fill="#b9ff00" stroke="#b9ff00" points="1021.68,-259.86 1014.82,-251.79 1015.15,-262.38 1021.68,-259.86"/>
</g>
<!-- n40 -->
<g id="node41" class="node">
<title>n40</title>
<ellipse fill="#2b8ea4" stroke="#007add" cx="1116.34" cy="-234" rx="63.09" ry="18"/>
<text text-anchor="middle" x="1116.34" y="-230.3" font-family="Times,serif" font-size="14.00" fill="white">PRIMITIVO</text>
</g>
<!-- n36&#45;&gt;n40 -->
<g id="edge40" class="edge">
<title>n36&#45;&gt;n40</title>
<path fill="none" stroke="#b9ff00" d="M1054.54,-288.41C1065.11,-279.28 1078.38,-267.81 1089.91,-257.84"/>
<polygon fill="#b9ff00" stroke="#b9ff00" points="1092.29,-260.42 1097.56,-251.23 1087.71,-255.12 1092.29,-260.42"/>
</g>
<!-- n38 -->
<g id="node39" class="node">
<title>n38</title>
<ellipse fill="#2b8ea4" stroke="#007add" cx="873.34" cy="-162" rx="27" ry="18"/>
<text text-anchor="middle" x="873.34" y="-158.3" font-family="Times,serif" font-size="14.00" fill="white">m</text>
</g>
<!-- n37&#45;&gt;n38 -->
<g id="edge38" class="edge">
<title>n37&#45;&gt;n38</title>
<path fill="none" stroke="#b9ff00" d="M873.34,-215.7C873.34,-207.98 873.34,-198.71 873.34,-190.11"/>
<polygon fill="#b9ff00" stroke="#b9ff00" points="876.84,-190.1 873.34,-180.1 869.84,-190.1 876.84,-190.1"/>
</g>
<!-- n41 -->
<g id="node42" class="node">
<title>n41</title>
<ellipse fill="#2b8ea4" stroke="#007add" cx="1116.34" cy="-162" rx="27" ry="18"/>
<text text-anchor="middle" x="1116.34" y="-158.3" font-family="Times,serif" font-size="14.00" fill="white">1</text>
</g>
<!-- n40&#45;&gt;n41 -->
<g id="edge41" class="edge">
<title>n40&#45;&gt;n41</title>
<path fill="none" stroke="#b9ff00" d="M1116.34,-215.7C1116.34,-207.98 1116.34,-198.71 1116.34,-190.11"/>
<polygon fill="#b9ff00" stroke="#b9ff00" points="1119.84,-190.1 1116.34,-180.1 1112.84,-190.1 1119.84,-190.1"/>
</g>
<!-- n43 -->
<g id="node44" class="node">
<title>n43</title>
<ellipse fill="#2b8ea4" stroke="#007add" cx="1224.34" cy="-234" rx="27" ry="18"/>
<text text-anchor="middle" x="1224.34" y="-230.3" font-family="Times,serif" font-size="14.00" fill="white">1</text>
</g>
<!-- n42&#45;&gt;n43 -->
<g id="edge43" class="edge">
<title>n42&#45;&gt;n43</title>
<path fill="none" stroke="#b9ff00" d="M1220.58,-287.7C1221.13,-279.98 1221.79,-270.71 1222.41,-262.11"/>
<polygon fill="#b9ff00" stroke="#b9ff00" points="1225.9,-262.33 1223.12,-252.1 1218.92,-261.83 1225.9,-262.33"/>
</g>
<!-- n45 -->
<g id="node46" class="node">
<title>n45</title>
<ellipse fill="#2b8ea4" stroke="#007add" cx="1378.34" cy="-522" rx="44.39" ry="18"/>
<text text-anchor="middle" x="1378.34" y="-518.3" font-family="Times,serif" font-size="14.00" fill="white">BREAK</text>
</g>
<!-- n44&#45;&gt;n45 -->
<g id="edge45" class="edge">
<title>n44&#45;&gt;n45</title>
<path fill="none" stroke="#b9ff00" d="M1374.58,-575.7C1375.13,-567.98 1375.79,-558.71 1376.41,-550.11"/>
<polygon fill="#b9ff00" stroke="#b9ff00" points="1379.9,-550.33 1377.12,-540.1 1372.92,-549.83 1379.9,-550.33"/>
</g>
<!-- n46 -->
<g id="node47" class="node">
<title>n46</title>
<ellipse fill="#2b8ea4" stroke="#007add" cx="1383.34" cy="-450" rx="117.78" ry="18"/>
<text text-anchor="middle" x="1383.34" y="-446.3" font-family="Times,serif" font-size="14.00" fill="white">LLAMADA A FUNCION</text>
</g>
<!-- n45&#45;&gt;n46 -->
<g id="edge46" class="edge">
<title>n45&#45;&gt;n46</title>
<path fill="none" stroke="#b9ff00" d="M1379.58,-503.7C1380.13,-495.98 1380.79,-486.71 1381.41,-478.11"/>
<polygon fill="#b9ff00" stroke="#b9ff00" points="1384.9,-478.33 1382.12,-468.1 1377.92,-477.83 1384.9,-478.33"/>
</g>
<!-- n47 -->
<g id="node48" class="node">
<title>n47</title>
<ellipse fill="#2b8ea4" stroke="#007add" cx="1375.34" cy="-378" rx="61.99" ry="18"/>
<text text-anchor="middle" x="1375.34" y="-374.3" font-family="Times,serif" font-size="14.00" fill="white">ackermann</text>
</g>
<!-- n46&#45;&gt;n47 -->
<g id="edge47" class="edge">
<title>n46&#45;&gt;n47</title>
<path fill="none" stroke="#b9ff00" d="M1381.37,-431.7C1380.48,-423.98 1379.42,-414.71 1378.44,-406.11"/>
<polygon fill="#b9ff00" stroke="#b9ff00" points="1381.91,-405.64 1377.3,-396.1 1374.96,-406.44 1381.91,-405.64"/>
</g>
<!-- n48 -->
<g id="node49" class="node">
<title>n48</title>
<ellipse fill="#2b8ea4" stroke="#007add" cx="1533.34" cy="-378" rx="77.99" ry="18"/>
<text text-anchor="middle" x="1533.34" y="-374.3" font-family="Times,serif" font-size="14.00" fill="white">PARAMETROS</text>
</g>
<!-- n46&#45;&gt;n48 -->
<g id="edge48" class="edge">
<title>n46&#45;&gt;n48</title>
<path fill="none" stroke="#b9ff00" d="M1418.13,-432.76C1439.89,-422.61 1468.05,-409.47 1491.09,-398.72"/>
<polygon fill="#b9ff00" stroke="#b9ff00" points="1492.7,-401.83 1500.29,-394.43 1489.74,-395.48 1492.7,-401.83"/>
</g>
<!-- n49 -->
<g id="node50" class="node">
<title>n49</title>
<ellipse fill="#2b8ea4" stroke="#007add" cx="1528.34" cy="-306" rx="71.49" ry="18"/>
<text text-anchor="middle" x="1528.34" y="-302.3" font-family="Times,serif" font-size="14.00" fill="white">ARITMETICA</text>
</g>
<!-- n48&#45;&gt;n49 -->
<g id="edge49" class="edge">
<title>n48&#45;&gt;n49</title>
<path fill="none" stroke="#b9ff00" d="M1532.11,-359.7C1531.56,-351.98 1530.89,-342.71 1530.28,-334.11"/>
<polygon fill="#b9ff00" stroke="#b9ff00" points="1533.77,-333.83 1529.56,-324.1 1526.79,-334.33 1533.77,-333.83"/>
</g>
<!-- n55 -->
<g id="node56" class="node">
<title>n55</title>
<ellipse fill="#2b8ea4" stroke="#007add" cx="1757.34" cy="-306" rx="117.78" ry="18"/>
<text text-anchor="middle" x="1757.34" y="-302.3" font-family="Times,serif" font-size="14.00" fill="white">LLAMADA A FUNCION</text>
</g>
<!-- n48&#45;&gt;n55 -->
<g id="edge55" class="edge">
<title>n48&#45;&gt;n55</title>
<path fill="none" stroke="#b9ff00" d="M1577.6,-363.17C1612.13,-352.38 1660.41,-337.29 1698.24,-325.47"/>
<polygon fill="#b9ff00" stroke="#b9ff00" points="1699.62,-328.71 1708.12,-322.38 1697.53,-322.02 1699.62,-328.71"/>
</g>
<!-- n50 -->
<g id="node51" class="node">
<title>n50</title>
<ellipse fill="#2b8ea4" stroke="#007add" cx="1371.34" cy="-234" rx="89.88" ry="18"/>
<text text-anchor="middle" x="1371.34" y="-230.3" font-family="Times,serif" font-size="14.00" fill="white">IDENTIFICADOR</text>
</g>
<!-- n49&#45;&gt;n50 -->
<g id="edge50" class="edge">
<title>n49&#45;&gt;n50</title>
<path fill="none" stroke="#b9ff00" d="M1494.66,-289.98C1471.57,-279.69 1440.7,-265.93 1415.63,-254.74"/>
<polygon fill="#b9ff00" stroke="#b9ff00" points="1416.89,-251.47 1406.33,-250.6 1414.04,-257.87 1416.89,-251.47"/>
</g>
<!-- n52 -->
<g id="node53" class="node">
<title>n52</title>
<ellipse fill="#2b8ea4" stroke="#007add" cx="1506.34" cy="-234" rx="27" ry="18"/>
<text text-anchor="middle" x="1506.34" y="-230.3" font-family="Times,serif" font-size="14.00" fill="white">&#45;</text>
</g>
<!-- n49&#45;&gt;n52 -->
<g id="edge52" class="edge">
<title>n49&#45;&gt;n52</title>
<path fill="none" stroke="#b9ff00" d="M1522.9,-287.7C1520.45,-279.9 1517.5,-270.51 1514.78,-261.83"/>
<polygon fill="#b9ff00" stroke="#b9ff00" points="1518.06,-260.59 1511.72,-252.1 1511.38,-262.69 1518.06,-260.59"/>
</g>
<!-- n53 -->
<g id="node54" class="node">
<title>n53</title>
<ellipse fill="#2b8ea4" stroke="#007add" cx="1614.34" cy="-234" rx="63.09" ry="18"/>
<text text-anchor="middle" x="1614.34" y="-230.3" font-family="Times,serif" font-size="14.00" fill="white">PRIMITIVO</text>
</g>
<!-- n49&#45;&gt;n53 -->
<g id="edge53" class="edge">
<title>n49&#45;&gt;n53</title>
<path fill="none" stroke="#b9ff00" d="M1548.72,-288.41C1560.05,-279.19 1574.31,-267.59 1586.63,-257.55"/>
<polygon fill="#b9ff00" stroke="#b9ff00" points="1588.86,-260.26 1594.41,-251.23 1584.44,-254.83 1588.86,-260.26"/>
</g>
<!-- n51 -->
<g id="node52" class="node">
<title>n51</title>
<ellipse fill="#2b8ea4" stroke="#007add" cx="1371.34" cy="-162" rx="27" ry="18"/>
<text text-anchor="middle" x="1371.34" y="-158.3" font-family="Times,serif" font-size="14.00" fill="white">m</text>
</g>
<!-- n50&#45;&gt;n51 -->
<g id="edge51" class="edge">
<title>n50&#45;&gt;n51</title>
<path fill="none" stroke="#b9ff00" d="M1371.34,-215.7C1371.34,-207.98 1371.34,-198.71 1371.34,-190.11"/>
<polygon fill="#b9ff00" stroke="#b9ff00" points="1374.84,-190.1 1371.34,-180.1 1367.84,-190.1 1374.84,-190.1"/>
</g>
<!-- n54 -->
<g id="node55" class="node">
<title>n54</title>
<ellipse fill="#2b8ea4" stroke="#007add" cx="1614.34" cy="-162" rx="27" ry="18"/>
<text text-anchor="middle" x="1614.34" y="-158.3" font-family="Times,serif" font-size="14.00" fill="white">1</text>
</g>
<!-- n53&#45;&gt;n54 -->
<g id="edge54" class="edge">
<title>n53&#45;&gt;n54</title>
<path fill="none" stroke="#b9ff00" d="M1614.34,-215.7C1614.34,-207.98 1614.34,-198.71 1614.34,-190.11"/>
<polygon fill="#b9ff00" stroke="#b9ff00" points="1617.84,-190.1 1614.34,-180.1 1610.84,-190.1 1617.84,-190.1"/>
</g>
<!-- n56 -->
<g id="node57" class="node">
<title>n56</title>
<ellipse fill="#2b8ea4" stroke="#007add" cx="1757.34" cy="-234" rx="61.99" ry="18"/>
<text text-anchor="middle" x="1757.34" y="-230.3" font-family="Times,serif" font-size="14.00" fill="white">ackermann</text>
</g>
<!-- n55&#45;&gt;n56 -->
<g id="edge56" class="edge">
<title>n55&#45;&gt;n56</title>
<path fill="none" stroke="#b9ff00" d="M1757.34,-287.7C1757.34,-279.98 1757.34,-270.71 1757.34,-262.11"/>
<polygon fill="#b9ff00" stroke="#b9ff00" points="1760.84,-262.1 1757.34,-252.1 1753.84,-262.1 1760.84,-262.1"/>
</g>
<!-- n57 -->
<g id="node58" class="node">
<title>n57</title>
<ellipse fill="#2b8ea4" stroke="#007add" cx="1915.34" cy="-234" rx="77.99" ry="18"/>
<text text-anchor="middle" x="1915.34" y="-230.3" font-family="Times,serif" font-size="14.00" fill="white">PARAMETROS</text>
</g>
<!-- n55&#45;&gt;n57 -->
<g id="edge57" class="edge">
<title>n55&#45;&gt;n57</title>
<path fill="none" stroke="#b9ff00" d="M1793.99,-288.76C1817.17,-278.5 1847.25,-265.17 1871.67,-254.35"/>
<polygon fill="#b9ff00" stroke="#b9ff00" points="1873.33,-257.44 1881.06,-250.19 1870.5,-251.04 1873.33,-257.44"/>
</g>
<!-- n58 -->
<g id="node59" class="node">
<title>n58</title>
<ellipse fill="#2b8ea4" stroke="#007add" cx="1832.34" cy="-162" rx="89.88" ry="18"/>
<text text-anchor="middle" x="1832.34" y="-158.3" font-family="Times,serif" font-size="14.00" fill="white">IDENTIFICADOR</text>
</g>
<!-- n57&#45;&gt;n58 -->
<g id="edge58" class="edge">
<title>n57&#45;&gt;n58</title>
<path fill="none" stroke="#b9ff00" d="M1895.67,-216.41C1885,-207.41 1871.64,-196.14 1859.94,-186.27"/>
<polygon fill="#b9ff00" stroke="#b9ff00" points="1862.06,-183.48 1852.16,-179.71 1857.55,-188.84 1862.06,-183.48"/>
</g>
<!-- n60 -->
<g id="node61" class="node">
<title>n60</title>
<ellipse fill="#2b8ea4" stroke="#007add" cx="2056.34" cy="-162" rx="71.49" ry="18"/>
<text text-anchor="middle" x="2056.34" y="-158.3" font-family="Times,serif" font-size="14.00" fill="white">ARITMETICA</text>
</g>
<!-- n57&#45;&gt;n60 -->
<g id="edge60" class="edge">
<title>n57&#45;&gt;n60</title>
<path fill="none" stroke="#b9ff00" d="M1946.64,-217.46C1967.08,-207.31 1993.98,-193.96 2016.02,-183.02"/>
<polygon fill="#b9ff00" stroke="#b9ff00" points="2017.74,-186.07 2025.14,-178.49 2014.62,-179.8 2017.74,-186.07"/>
</g>
<!-- n59 -->
<g id="node60" class="node">
<title>n59</title>
<ellipse fill="#2b8ea4" stroke="#007add" cx="1809.34" cy="-90" rx="27" ry="18"/>
<text text-anchor="middle" x="1809.34" y="-86.3" font-family="Times,serif" font-size="14.00" fill="white">m</text>
</g>
<!-- n58&#45;&gt;n59 -->
<g id="edge59" class="edge">
<title>n58&#45;&gt;n59</title>
<path fill="none" stroke="#b9ff00" d="M1826.66,-143.7C1824.1,-135.9 1821.01,-126.51 1818.16,-117.83"/>
<polygon fill="#b9ff00" stroke="#b9ff00" points="1821.41,-116.51 1814.96,-108.1 1814.76,-118.7 1821.41,-116.51"/>
</g>
<!-- n61 -->
<g id="node62" class="node">
<title>n61</title>
<ellipse fill="#2b8ea4" stroke="#007add" cx="1944.34" cy="-90" rx="89.88" ry="18"/>
<text text-anchor="middle" x="1944.34" y="-86.3" font-family="Times,serif" font-size="14.00" fill="white">IDENTIFICADOR</text>
</g>
<!-- n60&#45;&gt;n61 -->
<g id="edge61" class="edge">
<title>n60&#45;&gt;n61</title>
<path fill="none" stroke="#b9ff00" d="M2030.93,-145.12C2015.68,-135.59 1996.07,-123.33 1979.37,-112.89"/>
<polygon fill="#b9ff00" stroke="#b9ff00" points="1980.77,-109.64 1970.43,-107.31 1977.06,-115.58 1980.77,-109.64"/>
</g>
<!-- n63 -->
<g id="node64" class="node">
<title>n63</title>
<ellipse fill="#2b8ea4" stroke="#007add" cx="2079.34" cy="-90" rx="27" ry="18"/>
<text text-anchor="middle" x="2079.34" y="-86.3" font-family="Times,serif" font-size="14.00" fill="white">&#45;</text>
</g>
<!-- n60&#45;&gt;n63 -->
<g id="edge63" class="edge">
<title>n60&#45;&gt;n63</title>
<path fill="none" stroke="#b9ff00" d="M2062.03,-143.7C2064.59,-135.9 2067.68,-126.51 2070.53,-117.83"/>
<polygon fill="#b9ff00" stroke="#b9ff00" points="2073.93,-118.7 2073.72,-108.1 2067.28,-116.51 2073.93,-118.7"/>
</g>
<!-- n64 -->
<g id="node65" class="node">
<title>n64</title>
<ellipse fill="#2b8ea4" stroke="#007add" cx="2187.34" cy="-90" rx="63.09" ry="18"/>
<text text-anchor="middle" x="2187.34" y="-86.3" font-family="Times,serif" font-size="14.00" fill="white">PRIMITIVO</text>
</g>
<!-- n60&#45;&gt;n64 -->
<g id="edge64" class="edge">
<title>n60&#45;&gt;n64</title>
<path fill="none" stroke="#b9ff00" d="M2085.42,-145.46C2104.37,-135.34 2129.3,-122.02 2149.75,-111.09"/>
<polygon fill="#b9ff00" stroke="#b9ff00" points="2151.63,-114.05 2158.8,-106.25 2148.33,-107.88 2151.63,-114.05"/>
</g>
<!-- n62 -->
<g id="node63" class="node">
<title>n62</title>
<ellipse fill="#2b8ea4" stroke="#007add" cx="1944.34" cy="-18" rx="27" ry="18"/>
<text text-anchor="middle" x="1944.34" y="-14.3" font-family="Times,serif" font-size="14.00" fill="white">n</text>
</g>
<!-- n61&#45;&gt;n62 -->
<g id="edge62" class="edge">
<title>n61&#45;&gt;n62</title>
<path fill="none" stroke="#b9ff00" d="M1944.34,-71.7C1944.34,-63.98 1944.34,-54.71 1944.34,-46.11"/>
<polygon fill="#b9ff00" stroke="#b9ff00" points="1947.84,-46.1 1944.34,-36.1 1940.84,-46.1 1947.84,-46.1"/>
</g>
<!-- n65 -->
<g id="node66" class="node">
<title>n65</title>
<ellipse fill="#2b8ea4" stroke="#007add" cx="2187.34" cy="-18" rx="27" ry="18"/>
<text text-anchor="middle" x="2187.34" y="-14.3" font-family="Times,serif" font-size="14.00" fill="white">1</text>
</g>
<!-- n64&#45;&gt;n65 -->
<g id="edge65" class="edge">
<title>n64&#45;&gt;n65</title>
<path fill="none" stroke="#b9ff00" d="M2187.34,-71.7C2187.34,-63.98 2187.34,-54.71 2187.34,-46.11"/>
<polygon fill="#b9ff00" stroke="#b9ff00" points="2190.84,-46.1 2187.34,-36.1 2183.84,-46.1 2190.84,-46.1"/>
</g>
<!-- n67 -->
<g id="node68" class="node">
<title>n67</title>
<ellipse fill="#2b8ea4" stroke="#007add" cx="860.34" cy="-810" rx="27" ry="18"/>
<text text-anchor="middle" x="860.34" y="-806.3" font-family="Times,serif" font-size="14.00" fill="white">var</text>
</g>
<!-- n66&#45;&gt;n67 -->
<g id="edge67" class="edge">
<title>n66&#45;&gt;n67</title>
<path fill="none" stroke="#b9ff00" d="M978.98,-865.6C955.63,-855.1 924.07,-840.83 896.34,-828 894.56,-827.17 892.72,-826.32 890.87,-825.46"/>
<polygon fill="#b9ff00" stroke="#b9ff00" points="892.18,-822.2 881.64,-821.12 889.2,-828.54 892.18,-822.2"/>
</g>
<!-- n68 -->
<g id="node69" class="node">
<title>n68</title>
<ellipse fill="#2b8ea4" stroke="#007add" cx="962.34" cy="-810" rx="57.39" ry="18"/>
<text text-anchor="middle" x="962.34" y="-806.3" font-family="Times,serif" font-size="14.00" fill="white">contadora</text>
</g>
<!-- n66&#45;&gt;n68 -->
<g id="edge68" class="edge">
<title>n66&#45;&gt;n68</title>
<path fill="none" stroke="#b9ff00" d="M1001,-864.05C994.86,-855.63 987.32,-845.28 980.53,-835.97"/>
<polygon fill="#b9ff00" stroke="#b9ff00" points="983.29,-833.81 974.58,-827.79 977.63,-837.93 983.29,-833.81"/>
</g>
<!-- n69 -->
<g id="node70" class="node">
<title>n69</title>
<ellipse fill="#2b8ea4" stroke="#007add" cx="1064.34" cy="-810" rx="27" ry="18"/>
<text text-anchor="middle" x="1064.34" y="-806.3" font-family="Times,serif" font-size="14.00" fill="white">=</text>
</g>
<!-- n66&#45;&gt;n69 -->
<g id="edge69" class="edge">
<title>n66&#45;&gt;n69</title>
<path fill="none" stroke="#b9ff00" d="M1025.69,-864.05C1032.01,-855.38 1039.81,-844.67 1046.75,-835.15"/>
<polygon fill="#b9ff00" stroke="#b9ff00" points="1049.75,-836.97 1052.81,-826.83 1044.09,-832.85 1049.75,-836.97"/>
</g>
<!-- n70 -->
<g id="node71" class="node">
<title>n70</title>
<ellipse fill="#2b8ea4" stroke="#007add" cx="1172.34" cy="-810" rx="63.09" ry="18"/>
<text text-anchor="middle" x="1172.34" y="-806.3" font-family="Times,serif" font-size="14.00" fill="white">PRIMITIVO</text>
</g>
<!-- n66&#45;&gt;n70 -->
<g id="edge70" class="edge">
<title>n66&#45;&gt;n70</title>
<path fill="none" stroke="#b9ff00" d="M1048.24,-865.64C1072.31,-855.04 1104.45,-840.89 1130,-829.64"/>
<polygon fill="#b9ff00" stroke="#b9ff00" points="1131.69,-832.72 1139.43,-825.49 1128.87,-826.32 1131.69,-832.72"/>
</g>
<!-- n71 -->
<g id="node72" class="node">
<title>n71</title>
<ellipse fill="#2b8ea4" stroke="#007add" cx="1172.34" cy="-738" rx="27" ry="18"/>
<text text-anchor="middle" x="1172.34" y="-734.3" font-family="Times,serif" font-size="14.00" fill="white">0</text>
</g>
<!-- n70&#45;&gt;n71 -->
<g id="edge71" class="edge">
<title>n70&#45;&gt;n71</title>
<path fill="none" stroke="#b9ff00" d="M1172.34,-791.7C1172.34,-783.98 1172.34,-774.71 1172.34,-766.11"/>
<polygon fill="#b9ff00" stroke="#b9ff00" points="1175.84,-766.1 1172.34,-756.1 1168.84,-766.1 1175.84,-766.1"/>
</g>
<!-- n73 -->
<g id="node74" class="node">
<title>n73</title>
<ellipse fill="#2b8ea4" stroke="#007add" cx="1383.34" cy="-810" rx="94.48" ry="18"/>
<text text-anchor="middle" x="1383.34" y="-806.3" font-family="Times,serif" font-size="14.00" fill="white">INSTRUCCIONES</text>
</g>
<!-- n72&#45;&gt;n73 -->
<g id="edge73" class="edge">
<title>n72&#45;&gt;n73</title>
<path fill="none" stroke="#b9ff00" d="M1311.64,-866.15C1323.83,-856.78 1339.81,-844.49 1353.6,-833.88"/>
<polygon fill="#b9ff00" stroke="#b9ff00" points="1356.05,-836.41 1361.84,-827.54 1351.78,-830.86 1356.05,-836.41"/>
</g>
<!-- n74 -->
<g id="node75" class="node">
<title>n74</title>
<ellipse fill="#2b8ea4" stroke="#007add" cx="1401.34" cy="-738" rx="117.78" ry="18"/>
<text text-anchor="middle" x="1401.34" y="-734.3" font-family="Times,serif" font-size="14.00" fill="white">LLAMADA A FUNCION</text>
</g>
<!-- n73&#45;&gt;n74 -->
<g id="edge74" class="edge">
<title>n73&#45;&gt;n74</title>
<path fill="none" stroke="#b9ff00" d="M1387.79,-791.7C1389.8,-783.9 1392.21,-774.51 1394.44,-765.83"/>
<polygon fill="#b9ff00" stroke="#b9ff00" points="1397.84,-766.66 1396.94,-756.1 1391.06,-764.92 1397.84,-766.66"/>
</g>
<!-- n75 -->
<g id="node76" class="node">
<title>n75</title>
<ellipse fill="#2b8ea4" stroke="#007add" cx="1401.34" cy="-666" rx="61.99" ry="18"/>
<text text-anchor="middle" x="1401.34" y="-662.3" font-family="Times,serif" font-size="14.00" fill="white">ackermann</text>
</g>
<!-- n74&#45;&gt;n75 -->
<g id="edge75" class="edge">
<title>n74&#45;&gt;n75</title>
<path fill="none" stroke="#b9ff00" d="M1401.34,-719.7C1401.34,-711.98 1401.34,-702.71 1401.34,-694.11"/>
<polygon fill="#b9ff00" stroke="#b9ff00" points="1404.84,-694.1 1401.34,-684.1 1397.84,-694.1 1404.84,-694.1"/>
</g>
<!-- n76 -->
<g id="node77" class="node">
<title>n76</title>
<ellipse fill="#2b8ea4" stroke="#007add" cx="1577.34" cy="-666" rx="77.99" ry="18"/>
<text text-anchor="middle" x="1577.34" y="-662.3" font-family="Times,serif" font-size="14.00" fill="white">PARAMETROS</text>
</g>
<!-- n74&#45;&gt;n76 -->
<g id="edge76" class="edge">
<title>n74&#45;&gt;n76</title>
<path fill="none" stroke="#b9ff00" d="M1441.72,-720.94C1468.14,-710.43 1502.75,-696.67 1530.4,-685.67"/>
<polygon fill="#b9ff00" stroke="#b9ff00" points="1531.86,-688.86 1539.86,-681.91 1529.27,-682.35 1531.86,-688.86"/>
</g>
<!-- n77 -->
<g id="node78" class="node">
<title>n77</title>
<ellipse fill="#2b8ea4" stroke="#007add" cx="1577.34" cy="-594" rx="63.09" ry="18"/>
<text text-anchor="middle" x="1577.34" y="-590.3" font-family="Times,serif" font-size="14.00" fill="white">PRIMITIVO</text>
</g>
<!-- n76&#45;&gt;n77 -->
<g id="edge77" class="edge">
<title>n76&#45;&gt;n77</title>
<path fill="none" stroke="#b9ff00" d="M1577.34,-647.7C1577.34,-639.98 1577.34,-630.71 1577.34,-622.11"/>
<polygon fill="#b9ff00" stroke="#b9ff00" points="1580.84,-622.1 1577.34,-612.1 1573.84,-622.1 1580.84,-622.1"/>
</g>
<!-- n79 -->
<g id="node80" class="node">
<title>n79</title>
<ellipse fill="#2b8ea4" stroke="#007add" cx="1721.34" cy="-594" rx="63.09" ry="18"/>
<text text-anchor="middle" x="1721.34" y="-590.3" font-family="Times,serif" font-size="14.00" fill="white">PRIMITIVO</text>
</g>
<!-- n76&#45;&gt;n79 -->
<g id="edge79" class="edge">
<title>n76&#45;&gt;n79</title>
<path fill="none" stroke="#b9ff00" d="M1609.3,-649.46C1630.71,-639.06 1659.05,-625.28 1681.87,-614.19"/>
<polygon fill="#b9ff00" stroke="#b9ff00" points="1683.49,-617.29 1690.95,-609.77 1680.43,-611 1683.49,-617.29"/>
</g>
<!-- n78 -->
<g id="node79" class="node">
<title>n78</title>
<ellipse fill="#2b8ea4" stroke="#007add" cx="1577.34" cy="-522" rx="27" ry="18"/>
<text text-anchor="middle" x="1577.34" y="-518.3" font-family="Times,serif" font-size="14.00" fill="white">3</text>
</g>
<!-- n77&#45;&gt;n78 -->
<g id="edge78" class="edge">
<title>n77&#45;&gt;n78</title>
<path fill="none" stroke="#b9ff00" d="M1577.34,-575.7C1577.34,-567.98 1577.34,-558.71 1577.34,-550.11"/>
<polygon fill="#b9ff00" stroke="#b9ff00" points="1580.84,-550.1 1577.34,-540.1 1573.84,-550.1 1580.84,-550.1"/>
</g>
<!-- n80 -->
<g id="node81" class="node">
<title>n80</title>
<ellipse fill="#2b8ea4" stroke="#007add" cx="1721.34" cy="-522" rx="27" ry="18"/>
<text text-anchor="middle" x="1721.34" y="-518.3" font-family="Times,serif" font-size="14.00" fill="white">3</text>
</g>
<!-- n79&#45;&gt;n80 -->
<g id="edge80" class="edge">
<title>n79&#45;&gt;n80</title>
<path fill="none" stroke="#b9ff00" d="M1721.34,-575.7C1721.34,-567.98 1721.34,-558.71 1721.34,-550.11"/>
<polygon fill="#b9ff00" stroke="#b9ff00" points="1724.84,-550.1 1721.34,-540.1 1717.84,-550.1 1724.84,-550.1"/>
</g>
</g>
</svg>
