<?xml version="1.0" encoding="UTF-8" standalone="no"?>
<!DOCTYPE svg PUBLIC "-//W3C//DTD SVG 1.1//EN"
 "http://www.w3.org/Graphics/SVG/1.1/DTD/svg11.dtd">
<!-- Generated by graphviz version 2.43.0 (0)
 -->
<!-- Title: %3 Pages: 1 -->
<svg width="2952pt" height="476pt"
 viewBox="0.00 0.00 2952.04 476.00" xmlns="http://www.w3.org/2000/svg" xmlns:xlink="http://www.w3.org/1999/xlink">
<g id="graph0" class="graph" transform="scale(1 1) rotate(0) translate(4 472)">
<title>%3</title>
<polygon fill="#21495c" stroke="transparent" points="-4,4 -4,-472 2948.04,-472 2948.04,4 -4,4"/>
<!-- n0 -->
<g id="node1" class="node">
<title>n0</title>
<ellipse fill="#2b8ea4" stroke="#007add" cx="1534" cy="-450" rx="33.6" ry="18"/>
<text text-anchor="middle" x="1534" y="-446.3" font-family="Times,serif" font-size="14.00" fill="white">RAIZ</text>
</g>
<!-- n1 -->
<g id="node2" class="node">
<title>n1</title>
<ellipse fill="#2b8ea4" stroke="#007add" cx="1534" cy="-378" rx="94.48" ry="18"/>
<text text-anchor="middle" x="1534" y="-374.3" font-family="Times,serif" font-size="14.00" fill="white">INSTRUCCIONES</text>
</g>
<!-- n0&#45;&gt;n1 -->
<g id="edge1" class="edge">
<title>n0&#45;&gt;n1</title>
<path fill="none" stroke="#b9ff00" d="M1534,-431.7C1534,-423.98 1534,-414.71 1534,-406.11"/>
<polygon fill="#b9ff00" stroke="#b9ff00" points="1537.5,-406.1 1534,-396.1 1530.5,-406.1 1537.5,-406.1"/>
</g>
<!-- n2 -->
<g id="node3" class="node">
<title>n2</title>
<ellipse fill="#2b8ea4" stroke="#007add" cx="541" cy="-306" rx="37.89" ry="18"/>
<text text-anchor="middle" x="541" y="-302.3" font-family="Times,serif" font-size="14.00" fill="white">MAIN</text>
</g>
<!-- n1&#45;&gt;n2 -->
<g id="edge2" class="edge">
<title>n1&#45;&gt;n2</title>
<path fill="none" stroke="#b9ff00" d="M1442.15,-373.93C1282.55,-368.05 943.82,-353.09 659,-324 634.83,-321.53 608.01,-317.75 586.05,-314.38"/>
<polygon fill="#b9ff00" stroke="#b9ff00" points="586.44,-310.9 576.02,-312.82 585.36,-317.82 586.44,-310.9"/>
</g>
<!-- n16 -->
<g id="node17" class="node">
<title>n16</title>
<ellipse fill="#2b8ea4" stroke="#007add" cx="751" cy="-306" rx="82.59" ry="18"/>
<text text-anchor="middle" x="751" y="-302.3" font-family="Times,serif" font-size="14.00" fill="white">DECLARACION</text>
</g>
<!-- n1&#45;&gt;n16 -->
<g id="edge16" class="edge">
<title>n1&#45;&gt;n16</title>
<path fill="none" stroke="#b9ff00" d="M1450.58,-369.54C1300.64,-356.14 987.18,-328.11 836.06,-314.6"/>
<polygon fill="#b9ff00" stroke="#b9ff00" points="836.17,-311.1 825.9,-313.7 835.55,-318.07 836.17,-311.1"/>
</g>
<!-- n22 -->
<g id="node23" class="node">
<title>n22</title>
<ellipse fill="#2b8ea4" stroke="#007add" cx="1267" cy="-306" rx="57.69" ry="18"/>
<text text-anchor="middle" x="1267" y="-302.3" font-family="Times,serif" font-size="14.00" fill="white">FUNCION</text>
</g>
<!-- n1&#45;&gt;n22 -->
<g id="edge22" class="edge">
<title>n1&#45;&gt;n22</title>
<path fill="none" stroke="#b9ff00" d="M1480.93,-363.09C1434.17,-350.83 1366.43,-333.07 1319.77,-320.83"/>
<polygon fill="#b9ff00" stroke="#b9ff00" points="1320.41,-317.39 1309.85,-318.23 1318.64,-324.16 1320.41,-317.39"/>
</g>
<!-- n35 -->
<g id="node36" class="node">
<title>n35</title>
<ellipse fill="#2b8ea4" stroke="#007add" cx="1624" cy="-306" rx="57.69" ry="18"/>
<text text-anchor="middle" x="1624" y="-302.3" font-family="Times,serif" font-size="14.00" fill="white">FUNCION</text>
</g>
<!-- n1&#45;&gt;n35 -->
<g id="edge35" class="edge">
<title>n1&#45;&gt;n35</title>
<path fill="none" stroke="#b9ff00" d="M1555.33,-360.41C1567.27,-351.12 1582.32,-339.42 1595.28,-329.34"/>
<polygon fill="#b9ff00" stroke="#b9ff00" points="1597.7,-331.89 1603.44,-322.99 1593.4,-326.36 1597.7,-331.89"/>
</g>
<!-- n48 -->
<g id="node49" class="node">
<title>n48</title>
<ellipse fill="#2b8ea4" stroke="#007add" cx="2158" cy="-306" rx="57.69" ry="18"/>
<text text-anchor="middle" x="2158" y="-302.3" font-family="Times,serif" font-size="14.00" fill="white">FUNCION</text>
</g>
<!-- n1&#45;&gt;n48 -->
<g id="edge48" class="edge">
<title>n1&#45;&gt;n48</title>
<path fill="none" stroke="#b9ff00" d="M1613.03,-368.13C1738.3,-354.08 1979.97,-326.97 2094.64,-314.11"/>
<polygon fill="#b9ff00" stroke="#b9ff00" points="2095.13,-317.58 2104.67,-312.98 2094.35,-310.62 2095.13,-317.58"/>
</g>
<!-- n64 -->
<g id="node65" class="node">
<title>n64</title>
<ellipse fill="#2b8ea4" stroke="#007add" cx="2671" cy="-306" rx="82.59" ry="18"/>
<text text-anchor="middle" x="2671" y="-302.3" font-family="Times,serif" font-size="14.00" fill="white">DECLARACION</text>
</g>
<!-- n1&#45;&gt;n64 -->
<g id="edge64" class="edge">
<title>n1&#45;&gt;n64</title>
<path fill="none" stroke="#b9ff00" d="M1622.27,-371.57C1834.29,-358.51 2370.34,-325.51 2582.54,-312.45"/>
<polygon fill="#b9ff00" stroke="#b9ff00" points="2582.94,-315.93 2592.7,-311.82 2582.51,-308.94 2582.94,-315.93"/>
</g>
<!-- n3 -->
<g id="node4" class="node">
<title>n3</title>
<ellipse fill="#2b8ea4" stroke="#007add" cx="466" cy="-234" rx="94.48" ry="18"/>
<text text-anchor="middle" x="466" y="-230.3" font-family="Times,serif" font-size="14.00" fill="white">INSTRUCCIONES</text>
</g>
<!-- n2&#45;&gt;n3 -->
<g id="edge3" class="edge">
<title>n2&#45;&gt;n3</title>
<path fill="none" stroke="#b9ff00" d="M524.36,-289.46C514.7,-280.45 502.34,-268.92 491.49,-258.79"/>
<polygon fill="#b9ff00" stroke="#b9ff00" points="493.61,-255.98 483.91,-251.71 488.83,-261.1 493.61,-255.98"/>
</g>
<!-- n4 -->
<g id="node5" class="node">
<title>n4</title>
<ellipse fill="#2b8ea4" stroke="#007add" cx="171" cy="-162" rx="82.59" ry="18"/>
<text text-anchor="middle" x="171" y="-158.3" font-family="Times,serif" font-size="14.00" fill="white">DECLARACION</text>
</g>
<!-- n3&#45;&gt;n4 -->
<g id="edge4" class="edge">
<title>n3&#45;&gt;n4</title>
<path fill="none" stroke="#b9ff00" d="M409.47,-219.59C359.49,-207.73 286.65,-190.44 234.64,-178.1"/>
<polygon fill="#b9ff00" stroke="#b9ff00" points="235.39,-174.68 224.85,-175.78 233.77,-181.49 235.39,-174.68"/>
</g>
<!-- n10 -->
<g id="node11" class="node">
<title>n10</title>
<ellipse fill="#2b8ea4" stroke="#007add" cx="462" cy="-162" rx="59.59" ry="18"/>
<text text-anchor="middle" x="462" y="-158.3" font-family="Times,serif" font-size="14.00" fill="white">IMPRIMIR</text>
</g>
<!-- n3&#45;&gt;n10 -->
<g id="edge10" class="edge">
<title>n3&#45;&gt;n10</title>
<path fill="none" stroke="#b9ff00" d="M465.01,-215.7C464.57,-207.98 464.04,-198.71 463.55,-190.11"/>
<polygon fill="#b9ff00" stroke="#b9ff00" points="467.04,-189.89 462.98,-180.1 460.05,-190.29 467.04,-189.89"/>
</g>
<!-- n13 -->
<g id="node14" class="node">
<title>n13</title>
<ellipse fill="#2b8ea4" stroke="#007add" cx="657" cy="-162" rx="117.78" ry="18"/>
<text text-anchor="middle" x="657" y="-158.3" font-family="Times,serif" font-size="14.00" fill="white">LLAMADA A FUNCION</text>
</g>
<!-- n3&#45;&gt;n13 -->
<g id="edge13" class="edge">
<title>n3&#45;&gt;n13</title>
<path fill="none" stroke="#b9ff00" d="M507.44,-217.81C535.86,-207.4 573.79,-193.5 604.34,-182.3"/>
<polygon fill="#b9ff00" stroke="#b9ff00" points="605.8,-185.49 613.98,-178.77 603.39,-178.92 605.8,-185.49"/>
</g>
<!-- n5 -->
<g id="node6" class="node">
<title>n5</title>
<ellipse fill="#2b8ea4" stroke="#007add" cx="27" cy="-90" rx="27" ry="18"/>
<text text-anchor="middle" x="27" y="-86.3" font-family="Times,serif" font-size="14.00" fill="white">var</text>
</g>
<!-- n4&#45;&gt;n5 -->
<g id="edge5" class="edge">
<title>n4&#45;&gt;n5</title>
<path fill="none" stroke="#b9ff00" d="M138.68,-145.29C114.49,-133.53 81.6,-117.54 57.78,-105.96"/>
<polygon fill="#b9ff00" stroke="#b9ff00" points="59.02,-102.67 48.5,-101.45 55.96,-108.97 59.02,-102.67"/>
</g>
<!-- n6 -->
<g id="node7" class="node">
<title>n6</title>
<ellipse fill="#2b8ea4" stroke="#007add" cx="99" cy="-90" rx="27" ry="18"/>
<text text-anchor="middle" x="99" y="-86.3" font-family="Times,serif" font-size="14.00" fill="white">a</text>
</g>
<!-- n4&#45;&gt;n6 -->
<g id="edge6" class="edge">
<title>n4&#45;&gt;n6</title>
<path fill="none" stroke="#b9ff00" d="M153.57,-144.05C143.79,-134.55 131.5,-122.59 121.05,-112.44"/>
<polygon fill="#b9ff00" stroke="#b9ff00" points="123.45,-109.89 113.84,-105.42 118.57,-114.9 123.45,-109.89"/>
</g>
<!-- n7 -->
<g id="node8" class="node">
<title>n7</title>
<ellipse fill="#2b8ea4" stroke="#007add" cx="171" cy="-90" rx="27" ry="18"/>
<text text-anchor="middle" x="171" y="-86.3" font-family="Times,serif" font-size="14.00" fill="white">=</text>
</g>
<!-- n4&#45;&gt;n7 -->
<g id="edge7" class="edge">
<title>n4&#45;&gt;n7</title>
<path fill="none" stroke="#b9ff00" d="M171,-143.7C171,-135.98 171,-126.71 171,-118.11"/>
<polygon fill="#b9ff00" stroke="#b9ff00" points="174.5,-118.1 171,-108.1 167.5,-118.1 174.5,-118.1"/>
</g>
<!-- n8 -->
<g id="node9" class="node">
<title>n8</title>
<ellipse fill="#2b8ea4" stroke="#007add" cx="279" cy="-90" rx="63.09" ry="18"/>
<text text-anchor="middle" x="279" y="-86.3" font-family="Times,serif" font-size="14.00" fill="white">PRIMITIVO</text>
</g>
<!-- n4&#45;&gt;n8 -->
<g id="edge8" class="edge">
<title>n4&#45;&gt;n8</title>
<path fill="none" stroke="#b9ff00" d="M196.05,-144.76C210.98,-135.09 230.11,-122.69 246.23,-112.24"/>
<polygon fill="#b9ff00" stroke="#b9ff00" points="248.34,-115.04 254.83,-106.67 244.53,-109.17 248.34,-115.04"/>
</g>
<!-- n9 -->
<g id="node10" class="node">
<title>n9</title>
<ellipse fill="#2b8ea4" stroke="#007add" cx="255" cy="-18" rx="140.28" ry="18"/>
<text text-anchor="middle" x="255" y="-14.3" font-family="Times,serif" font-size="14.00" fill="white">declaracion dentro del main</text>
</g>
<!-- n8&#45;&gt;n9 -->
<g id="edge9" class="edge">
<title>n8&#45;&gt;n9</title>
<path fill="none" stroke="#b9ff00" d="M273.19,-72.05C270.49,-64.18 267.21,-54.62 264.19,-45.79"/>
<polygon fill="#b9ff00" stroke="#b9ff00" points="267.48,-44.6 260.92,-36.28 260.86,-46.87 267.48,-44.6"/>
</g>
<!-- n11 -->
<g id="node12" class="node">
<title>n11</title>
<ellipse fill="#2b8ea4" stroke="#007add" cx="471" cy="-90" rx="63.09" ry="18"/>
<text text-anchor="middle" x="471" y="-86.3" font-family="Times,serif" font-size="14.00" fill="white">PRIMITIVO</text>
</g>
<!-- n10&#45;&gt;n11 -->
<g id="edge11" class="edge">
<title>n10&#45;&gt;n11</title>
<path fill="none" stroke="#b9ff00" d="M464.22,-143.7C465.22,-135.98 466.41,-126.71 467.51,-118.11"/>
<polygon fill="#b9ff00" stroke="#b9ff00" points="471,-118.47 468.8,-108.1 464.05,-117.58 471,-118.47"/>
</g>
<!-- n12 -->
<g id="node13" class="node">
<title>n12</title>
<ellipse fill="#2b8ea4" stroke="#007add" cx="495" cy="-18" rx="81.49" ry="18"/>
<text text-anchor="middle" x="495" y="-14.3" font-family="Times,serif" font-size="14.00" fill="white">dentro de main</text>
</g>
<!-- n11&#45;&gt;n12 -->
<g id="edge12" class="edge">
<title>n11&#45;&gt;n12</title>
<path fill="none" stroke="#b9ff00" d="M476.81,-72.05C479.51,-64.18 482.79,-54.62 485.81,-45.79"/>
<polygon fill="#b9ff00" stroke="#b9ff00" points="489.14,-46.87 489.08,-36.28 482.52,-44.6 489.14,-46.87"/>
</g>
<!-- n14 -->
<g id="node15" class="node">
<title>n14</title>
<ellipse fill="#2b8ea4" stroke="#007add" cx="636" cy="-90" rx="67.69" ry="18"/>
<text text-anchor="middle" x="636" y="-86.3" font-family="Times,serif" font-size="14.00" fill="white">holamundo3</text>
</g>
<!-- n13&#45;&gt;n14 -->
<g id="edge14" class="edge">
<title>n13&#45;&gt;n14</title>
<path fill="none" stroke="#b9ff00" d="M651.81,-143.7C649.47,-135.9 646.65,-126.51 644.05,-117.83"/>
<polygon fill="#b9ff00" stroke="#b9ff00" points="647.36,-116.68 641.13,-108.1 640.65,-118.69 647.36,-116.68"/>
</g>
<!-- n15 -->
<g id="node16" class="node">
<title>n15</title>
<ellipse fill="#2b8ea4" stroke="#007add" cx="800" cy="-90" rx="77.99" ry="18"/>
<text text-anchor="middle" x="800" y="-86.3" font-family="Times,serif" font-size="14.00" fill="white">PARAMETROS</text>
</g>
<!-- n13&#45;&gt;n15 -->
<g id="edge15" class="edge">
<title>n13&#45;&gt;n15</title>
<path fill="none" stroke="#b9ff00" d="M690.53,-144.59C711.04,-134.55 737.43,-121.63 759.16,-110.99"/>
<polygon fill="#b9ff00" stroke="#b9ff00" points="760.71,-114.13 768.16,-106.59 757.63,-107.84 760.71,-114.13"/>
</g>
<!-- n17 -->
<g id="node18" class="node">
<title>n17</title>
<ellipse fill="#2b8ea4" stroke="#007add" cx="607" cy="-234" rx="27" ry="18"/>
<text text-anchor="middle" x="607" y="-230.3" font-family="Times,serif" font-size="14.00" fill="white">var</text>
</g>
<!-- n16&#45;&gt;n17 -->
<g id="edge17" class="edge">
<title>n16&#45;&gt;n17</title>
<path fill="none" stroke="#b9ff00" d="M718.68,-289.29C694.49,-277.53 661.6,-261.54 637.78,-249.96"/>
<polygon fill="#b9ff00" stroke="#b9ff00" points="639.02,-246.67 628.5,-245.45 635.96,-252.97 639.02,-246.67"/>
</g>
<!-- n18 -->
<g id="node19" class="node">
<title>n18</title>
<ellipse fill="#2b8ea4" stroke="#007add" cx="679" cy="-234" rx="27" ry="18"/>
<text text-anchor="middle" x="679" y="-230.3" font-family="Times,serif" font-size="14.00" fill="white">a</text>
</g>
<!-- n16&#45;&gt;n18 -->
<g id="edge18" class="edge">
<title>n16&#45;&gt;n18</title>
<path fill="none" stroke="#b9ff00" d="M733.57,-288.05C723.79,-278.55 711.5,-266.59 701.05,-256.44"/>
<polygon fill="#b9ff00" stroke="#b9ff00" points="703.45,-253.89 693.84,-249.42 698.57,-258.9 703.45,-253.89"/>
</g>
<!-- n19 -->
<g id="node20" class="node">
<title>n19</title>
<ellipse fill="#2b8ea4" stroke="#007add" cx="751" cy="-234" rx="27" ry="18"/>
<text text-anchor="middle" x="751" y="-230.3" font-family="Times,serif" font-size="14.00" fill="white">=</text>
</g>
<!-- n16&#45;&gt;n19 -->
<g id="edge19" class="edge">
<title>n16&#45;&gt;n19</title>
<path fill="none" stroke="#b9ff00" d="M751,-287.7C751,-279.98 751,-270.71 751,-262.11"/>
<polygon fill="#b9ff00" stroke="#b9ff00" points="754.5,-262.1 751,-252.1 747.5,-262.1 754.5,-262.1"/>
</g>
<!-- n20 -->
<g id="node21" class="node">
<title>n20</title>
<ellipse fill="#2b8ea4" stroke="#007add" cx="859" cy="-234" rx="63.09" ry="18"/>
<text text-anchor="middle" x="859" y="-230.3" font-family="Times,serif" font-size="14.00" fill="white">PRIMITIVO</text>
</g>
<!-- n16&#45;&gt;n20 -->
<g id="edge20" class="edge">
<title>n16&#45;&gt;n20</title>
<path fill="none" stroke="#b9ff00" d="M776.05,-288.76C790.98,-279.09 810.11,-266.69 826.23,-256.24"/>
<polygon fill="#b9ff00" stroke="#b9ff00" points="828.34,-259.04 834.83,-250.67 824.53,-253.17 828.34,-259.04"/>
</g>
<!-- n21 -->
<g id="node22" class="node">
<title>n21</title>
<ellipse fill="#2b8ea4" stroke="#007add" cx="862" cy="-162" rx="69.59" ry="18"/>
<text text-anchor="middle" x="862" y="-158.3" font-family="Times,serif" font-size="14.00" fill="white">declaracion1</text>
</g>
<!-- n20&#45;&gt;n21 -->
<g id="edge21" class="edge">
<title>n20&#45;&gt;n21</title>
<path fill="none" stroke="#b9ff00" d="M859.74,-215.7C860.07,-207.98 860.47,-198.71 860.84,-190.11"/>
<polygon fill="#b9ff00" stroke="#b9ff00" points="864.34,-190.25 861.27,-180.1 857.34,-189.95 864.34,-190.25"/>
</g>
<!-- n23 -->
<g id="node24" class="node">
<title>n23</title>
<ellipse fill="#2b8ea4" stroke="#007add" cx="1008" cy="-234" rx="67.69" ry="18"/>
<text text-anchor="middle" x="1008" y="-230.3" font-family="Times,serif" font-size="14.00" fill="white">holamundo1</text>
</g>
<!-- n22&#45;&gt;n23 -->
<g id="edge23" class="edge">
<title>n22&#45;&gt;n23</title>
<path fill="none" stroke="#b9ff00" d="M1224.81,-293.6C1180.83,-281.71 1111.68,-263.02 1063.34,-249.96"/>
<polygon fill="#b9ff00" stroke="#b9ff00" points="1064.23,-246.57 1053.66,-247.34 1062.4,-253.33 1064.23,-246.57"/>
</g>
<!-- n24 -->
<g id="node25" class="node">
<title>n24</title>
<ellipse fill="#2b8ea4" stroke="#007add" cx="1172" cy="-234" rx="77.99" ry="18"/>
<text text-anchor="middle" x="1172" y="-230.3" font-family="Times,serif" font-size="14.00" fill="white">PARAMETROS</text>
</g>
<!-- n22&#45;&gt;n24 -->
<g id="edge24" class="edge">
<title>n22&#45;&gt;n24</title>
<path fill="none" stroke="#b9ff00" d="M1245.44,-289.12C1232.75,-279.76 1216.49,-267.78 1202.5,-257.47"/>
<polygon fill="#b9ff00" stroke="#b9ff00" points="1204.26,-254.42 1194.13,-251.31 1200.11,-260.06 1204.26,-254.42"/>
</g>
<!-- n25 -->
<g id="node26" class="node">
<title>n25</title>
<ellipse fill="#2b8ea4" stroke="#007add" cx="1362" cy="-234" rx="94.48" ry="18"/>
<text text-anchor="middle" x="1362" y="-230.3" font-family="Times,serif" font-size="14.00" fill="white">INSTRUCCIONES</text>
</g>
<!-- n22&#45;&gt;n25 -->
<g id="edge25" class="edge">
<title>n22&#45;&gt;n25</title>
<path fill="none" stroke="#b9ff00" d="M1288.56,-289.12C1301.16,-279.83 1317.28,-267.95 1331.2,-257.69"/>
<polygon fill="#b9ff00" stroke="#b9ff00" points="1333.56,-260.3 1339.54,-251.55 1329.41,-254.67 1333.56,-260.3"/>
</g>
<!-- n26 -->
<g id="node27" class="node">
<title>n26</title>
<ellipse fill="#2b8ea4" stroke="#007add" cx="1083" cy="-162" rx="82.59" ry="18"/>
<text text-anchor="middle" x="1083" y="-158.3" font-family="Times,serif" font-size="14.00" fill="white">DECLARACION</text>
</g>
<!-- n25&#45;&gt;n26 -->
<g id="edge26" class="edge">
<title>n25&#45;&gt;n26</title>
<path fill="none" stroke="#b9ff00" d="M1307.21,-219.25C1260.59,-207.56 1193.66,-190.76 1145.07,-178.57"/>
<polygon fill="#b9ff00" stroke="#b9ff00" points="1145.85,-175.16 1135.3,-176.12 1144.15,-181.95 1145.85,-175.16"/>
</g>
<!-- n32 -->
<g id="node33" class="node">
<title>n32</title>
<ellipse fill="#2b8ea4" stroke="#007add" cx="1362" cy="-162" rx="59.59" ry="18"/>
<text text-anchor="middle" x="1362" y="-158.3" font-family="Times,serif" font-size="14.00" fill="white">IMPRIMIR</text>
</g>
<!-- n25&#45;&gt;n32 -->
<g id="edge32" class="edge">
<title>n25&#45;&gt;n32</title>
<path fill="none" stroke="#b9ff00" d="M1362,-215.7C1362,-207.98 1362,-198.71 1362,-190.11"/>
<polygon fill="#b9ff00" stroke="#b9ff00" points="1365.5,-190.1 1362,-180.1 1358.5,-190.1 1365.5,-190.1"/>
</g>
<!-- n27 -->
<g id="node28" class="node">
<title>n27</title>
<ellipse fill="#2b8ea4" stroke="#007add" cx="931" cy="-90" rx="27" ry="18"/>
<text text-anchor="middle" x="931" y="-86.3" font-family="Times,serif" font-size="14.00" fill="white">var</text>
</g>
<!-- n26&#45;&gt;n27 -->
<g id="edge27" class="edge">
<title>n26&#45;&gt;n27</title>
<path fill="none" stroke="#b9ff00" d="M1048.94,-145.57C1025.8,-135.06 994.51,-120.78 967,-108 965.21,-107.17 963.38,-106.31 961.53,-105.45"/>
<polygon fill="#b9ff00" stroke="#b9ff00" points="962.84,-102.2 952.3,-101.11 959.86,-108.53 962.84,-102.2"/>
</g>
<!-- n28 -->
<g id="node29" class="node">
<title>n28</title>
<ellipse fill="#2b8ea4" stroke="#007add" cx="1007" cy="-90" rx="30.59" ry="18"/>
<text text-anchor="middle" x="1007" y="-86.3" font-family="Times,serif" font-size="14.00" fill="white">hola</text>
</g>
<!-- n26&#45;&gt;n28 -->
<g id="edge28" class="edge">
<title>n26&#45;&gt;n28</title>
<path fill="none" stroke="#b9ff00" d="M1064.99,-144.41C1054.57,-134.82 1041.36,-122.65 1030.18,-112.35"/>
<polygon fill="#b9ff00" stroke="#b9ff00" points="1032.55,-109.77 1022.82,-105.57 1027.8,-114.92 1032.55,-109.77"/>
</g>
<!-- n29 -->
<g id="node30" class="node">
<title>n29</title>
<ellipse fill="#2b8ea4" stroke="#007add" cx="1083" cy="-90" rx="27" ry="18"/>
<text text-anchor="middle" x="1083" y="-86.3" font-family="Times,serif" font-size="14.00" fill="white">=</text>
</g>
<!-- n26&#45;&gt;n29 -->
<g id="edge29" class="edge">
<title>n26&#45;&gt;n29</title>
<path fill="none" stroke="#b9ff00" d="M1083,-143.7C1083,-135.98 1083,-126.71 1083,-118.11"/>
<polygon fill="#b9ff00" stroke="#b9ff00" points="1086.5,-118.1 1083,-108.1 1079.5,-118.1 1086.5,-118.1"/>
</g>
<!-- n30 -->
<g id="node31" class="node">
<title>n30</title>
<ellipse fill="#2b8ea4" stroke="#007add" cx="1191" cy="-90" rx="63.09" ry="18"/>
<text text-anchor="middle" x="1191" y="-86.3" font-family="Times,serif" font-size="14.00" fill="white">PRIMITIVO</text>
</g>
<!-- n26&#45;&gt;n30 -->
<g id="edge30" class="edge">
<title>n26&#45;&gt;n30</title>
<path fill="none" stroke="#b9ff00" d="M1108.05,-144.76C1122.98,-135.09 1142.11,-122.69 1158.23,-112.24"/>
<polygon fill="#b9ff00" stroke="#b9ff00" points="1160.34,-115.04 1166.83,-106.67 1156.53,-109.17 1160.34,-115.04"/>
</g>
<!-- n31 -->
<g id="node32" class="node">
<title>n31</title>
<ellipse fill="#2b8ea4" stroke="#007add" cx="1191" cy="-18" rx="28.7" ry="18"/>
<text text-anchor="middle" x="1191" y="-14.3" font-family="Times,serif" font-size="14.00" fill="white">100</text>
</g>
<!-- n30&#45;&gt;n31 -->
<g id="edge31" class="edge">
<title>n30&#45;&gt;n31</title>
<path fill="none" stroke="#b9ff00" d="M1191,-71.7C1191,-63.98 1191,-54.71 1191,-46.11"/>
<polygon fill="#b9ff00" stroke="#b9ff00" points="1194.5,-46.1 1191,-36.1 1187.5,-46.1 1194.5,-46.1"/>
</g>
<!-- n33 -->
<g id="node34" class="node">
<title>n33</title>
<ellipse fill="#2b8ea4" stroke="#007add" cx="1362" cy="-90" rx="89.88" ry="18"/>
<text text-anchor="middle" x="1362" y="-86.3" font-family="Times,serif" font-size="14.00" fill="white">IDENTIFICADOR</text>
</g>
<!-- n32&#45;&gt;n33 -->
<g id="edge33" class="edge">
<title>n32&#45;&gt;n33</title>
<path fill="none" stroke="#b9ff00" d="M1362,-143.7C1362,-135.98 1362,-126.71 1362,-118.11"/>
<polygon fill="#b9ff00" stroke="#b9ff00" points="1365.5,-118.1 1362,-108.1 1358.5,-118.1 1365.5,-118.1"/>
</g>
<!-- n34 -->
<g id="node35" class="node">
<title>n34</title>
<ellipse fill="#2b8ea4" stroke="#007add" cx="1362" cy="-18" rx="30.59" ry="18"/>
<text text-anchor="middle" x="1362" y="-14.3" font-family="Times,serif" font-size="14.00" fill="white">hola</text>
</g>
<!-- n33&#45;&gt;n34 -->
<g id="edge34" class="edge">
<title>n33&#45;&gt;n34</title>
<path fill="none" stroke="#b9ff00" d="M1362,-71.7C1362,-63.98 1362,-54.71 1362,-46.11"/>
<polygon fill="#b9ff00" stroke="#b9ff00" points="1365.5,-46.1 1362,-36.1 1358.5,-46.1 1365.5,-46.1"/>
</g>
<!-- n36 -->
<g id="node37" class="node">
<title>n36</title>
<ellipse fill="#2b8ea4" stroke="#007add" cx="1542" cy="-234" rx="67.69" ry="18"/>
<text text-anchor="middle" x="1542" y="-230.3" font-family="Times,serif" font-size="14.00" fill="white">holamundo2</text>
</g>
<!-- n35&#45;&gt;n36 -->
<g id="edge36" class="edge">
<title>n35&#45;&gt;n36</title>
<path fill="none" stroke="#b9ff00" d="M1604.98,-288.76C1594.29,-279.64 1580.78,-268.1 1569.01,-258.06"/>
<polygon fill="#b9ff00" stroke="#b9ff00" points="1571.08,-255.22 1561.2,-251.39 1566.53,-260.54 1571.08,-255.22"/>
</g>
<!-- n37 -->
<g id="node38" class="node">
<title>n37</title>
<ellipse fill="#2b8ea4" stroke="#007add" cx="1706" cy="-234" rx="77.99" ry="18"/>
<text text-anchor="middle" x="1706" y="-230.3" font-family="Times,serif" font-size="14.00" fill="white">PARAMETROS</text>
</g>
<!-- n35&#45;&gt;n37 -->
<g id="edge37" class="edge">
<title>n35&#45;&gt;n37</title>
<path fill="none" stroke="#b9ff00" d="M1643.02,-288.76C1653.63,-279.71 1667.03,-268.27 1678.73,-258.28"/>
<polygon fill="#b9ff00" stroke="#b9ff00" points="1681.18,-260.79 1686.52,-251.63 1676.64,-255.46 1681.18,-260.79"/>
</g>
<!-- n38 -->
<g id="node39" class="node">
<title>n38</title>
<ellipse fill="#2b8ea4" stroke="#007add" cx="1896" cy="-234" rx="94.48" ry="18"/>
<text text-anchor="middle" x="1896" y="-230.3" font-family="Times,serif" font-size="14.00" fill="white">INSTRUCCIONES</text>
</g>
<!-- n35&#45;&gt;n38 -->
<g id="edge38" class="edge">
<title>n35&#45;&gt;n38</title>
<path fill="none" stroke="#b9ff00" d="M1667.1,-293.91C1711.62,-282.45 1781.58,-264.45 1832.44,-251.36"/>
<polygon fill="#b9ff00" stroke="#b9ff00" points="1833.53,-254.69 1842.35,-248.81 1831.79,-247.91 1833.53,-254.69"/>
</g>
<!-- n39 -->
<g id="node40" class="node">
<title>n39</title>
<ellipse fill="#2b8ea4" stroke="#007add" cx="1649" cy="-162" rx="82.59" ry="18"/>
<text text-anchor="middle" x="1649" y="-158.3" font-family="Times,serif" font-size="14.00" fill="white">DECLARACION</text>
</g>
<!-- n38&#45;&gt;n39 -->
<g id="edge39" class="edge">
<title>n38&#45;&gt;n39</title>
<path fill="none" stroke="#b9ff00" d="M1845.72,-218.75C1805.5,-207.35 1749.06,-191.36 1706.95,-179.42"/>
<polygon fill="#b9ff00" stroke="#b9ff00" points="1707.69,-175.99 1697.11,-176.63 1705.78,-182.73 1707.69,-175.99"/>
</g>
<!-- n45 -->
<g id="node46" class="node">
<title>n45</title>
<ellipse fill="#2b8ea4" stroke="#007add" cx="1912" cy="-162" rx="59.59" ry="18"/>
<text text-anchor="middle" x="1912" y="-158.3" font-family="Times,serif" font-size="14.00" fill="white">IMPRIMIR</text>
</g>
<!-- n38&#45;&gt;n45 -->
<g id="edge45" class="edge">
<title>n38&#45;&gt;n45</title>
<path fill="none" stroke="#b9ff00" d="M1899.96,-215.7C1901.72,-207.98 1903.84,-198.71 1905.8,-190.11"/>
<polygon fill="#b9ff00" stroke="#b9ff00" points="1909.27,-190.63 1908.09,-180.1 1902.45,-189.07 1909.27,-190.63"/>
</g>
<!-- n40 -->
<g id="node41" class="node">
<title>n40</title>
<ellipse fill="#2b8ea4" stroke="#007add" cx="1497" cy="-90" rx="27" ry="18"/>
<text text-anchor="middle" x="1497" y="-86.3" font-family="Times,serif" font-size="14.00" fill="white">var</text>
</g>
<!-- n39&#45;&gt;n40 -->
<g id="edge40" class="edge">
<title>n39&#45;&gt;n40</title>
<path fill="none" stroke="#b9ff00" d="M1614.94,-145.57C1591.8,-135.06 1560.51,-120.78 1533,-108 1531.21,-107.17 1529.38,-106.31 1527.53,-105.45"/>
<polygon fill="#b9ff00" stroke="#b9ff00" points="1528.84,-102.2 1518.3,-101.11 1525.86,-108.53 1528.84,-102.2"/>
</g>
<!-- n41 -->
<g id="node42" class="node">
<title>n41</title>
<ellipse fill="#2b8ea4" stroke="#007add" cx="1573" cy="-90" rx="30.59" ry="18"/>
<text text-anchor="middle" x="1573" y="-86.3" font-family="Times,serif" font-size="14.00" fill="white">hola</text>
</g>
<!-- n39&#45;&gt;n41 -->
<g id="edge41" class="edge">
<title>n39&#45;&gt;n41</title>
<path fill="none" stroke="#b9ff00" d="M1630.99,-144.41C1620.57,-134.82 1607.36,-122.65 1596.18,-112.35"/>
<polygon fill="#b9ff00" stroke="#b9ff00" points="1598.55,-109.77 1588.82,-105.57 1593.8,-114.92 1598.55,-109.77"/>
</g>
<!-- n42 -->
<g id="node43" class="node">
<title>n42</title>
<ellipse fill="#2b8ea4" stroke="#007add" cx="1649" cy="-90" rx="27" ry="18"/>
<text text-anchor="middle" x="1649" y="-86.3" font-family="Times,serif" font-size="14.00" fill="white">=</text>
</g>
<!-- n39&#45;&gt;n42 -->
<g id="edge42" class="edge">
<title>n39&#45;&gt;n42</title>
<path fill="none" stroke="#b9ff00" d="M1649,-143.7C1649,-135.98 1649,-126.71 1649,-118.11"/>
<polygon fill="#b9ff00" stroke="#b9ff00" points="1652.5,-118.1 1649,-108.1 1645.5,-118.1 1652.5,-118.1"/>
</g>
<!-- n43 -->
<g id="node44" class="node">
<title>n43</title>
<ellipse fill="#2b8ea4" stroke="#007add" cx="1757" cy="-90" rx="63.09" ry="18"/>
<text text-anchor="middle" x="1757" y="-86.3" font-family="Times,serif" font-size="14.00" fill="white">PRIMITIVO</text>
</g>
<!-- n39&#45;&gt;n43 -->
<g id="edge43" class="edge">
<title>n39&#45;&gt;n43</title>
<path fill="none" stroke="#b9ff00" d="M1674.05,-144.76C1688.98,-135.09 1708.11,-122.69 1724.23,-112.24"/>
<polygon fill="#b9ff00" stroke="#b9ff00" points="1726.34,-115.04 1732.83,-106.67 1722.53,-109.17 1726.34,-115.04"/>
</g>
<!-- n44 -->
<g id="node45" class="node">
<title>n44</title>
<ellipse fill="#2b8ea4" stroke="#007add" cx="1757" cy="-18" rx="28.7" ry="18"/>
<text text-anchor="middle" x="1757" y="-14.3" font-family="Times,serif" font-size="14.00" fill="white">100</text>
</g>
<!-- n43&#45;&gt;n44 -->
<g id="edge44" class="edge">
<title>n43&#45;&gt;n44</title>
<path fill="none" stroke="#b9ff00" d="M1757,-71.7C1757,-63.98 1757,-54.71 1757,-46.11"/>
<polygon fill="#b9ff00" stroke="#b9ff00" points="1760.5,-46.1 1757,-36.1 1753.5,-46.1 1760.5,-46.1"/>
</g>
<!-- n46 -->
<g id="node47" class="node">
<title>n46</title>
<ellipse fill="#2b8ea4" stroke="#007add" cx="1928" cy="-90" rx="89.88" ry="18"/>
<text text-anchor="middle" x="1928" y="-86.3" font-family="Times,serif" font-size="14.00" fill="white">IDENTIFICADOR</text>
</g>
<!-- n45&#45;&gt;n46 -->
<g id="edge46" class="edge">
<title>n45&#45;&gt;n46</title>
<path fill="none" stroke="#b9ff00" d="M1915.96,-143.7C1917.72,-135.98 1919.84,-126.71 1921.8,-118.11"/>
<polygon fill="#b9ff00" stroke="#b9ff00" points="1925.27,-118.63 1924.09,-108.1 1918.45,-117.07 1925.27,-118.63"/>
</g>
<!-- n47 -->
<g id="node48" class="node">
<title>n47</title>
<ellipse fill="#2b8ea4" stroke="#007add" cx="1928" cy="-18" rx="30.59" ry="18"/>
<text text-anchor="middle" x="1928" y="-14.3" font-family="Times,serif" font-size="14.00" fill="white">hola</text>
</g>
<!-- n46&#45;&gt;n47 -->
<g id="edge47" class="edge">
<title>n46&#45;&gt;n47</title>
<path fill="none" stroke="#b9ff00" d="M1928,-71.7C1928,-63.98 1928,-54.71 1928,-46.11"/>
<polygon fill="#b9ff00" stroke="#b9ff00" points="1931.5,-46.1 1928,-36.1 1924.5,-46.1 1931.5,-46.1"/>
</g>
<!-- n49 -->
<g id="node50" class="node">
<title>n49</title>
<ellipse fill="#2b8ea4" stroke="#007add" cx="2076" cy="-234" rx="67.69" ry="18"/>
<text text-anchor="middle" x="2076" y="-230.3" font-family="Times,serif" font-size="14.00" fill="white">holamundo3</text>
</g>
<!-- n48&#45;&gt;n49 -->
<g id="edge49" class="edge">
<title>n48&#45;&gt;n49</title>
<path fill="none" stroke="#b9ff00" d="M2138.98,-288.76C2128.29,-279.64 2114.78,-268.1 2103.01,-258.06"/>
<polygon fill="#b9ff00" stroke="#b9ff00" points="2105.08,-255.22 2095.2,-251.39 2100.53,-260.54 2105.08,-255.22"/>
</g>
<!-- n50 -->
<g id="node51" class="node">
<title>n50</title>
<ellipse fill="#2b8ea4" stroke="#007add" cx="2240" cy="-234" rx="77.99" ry="18"/>
<text text-anchor="middle" x="2240" y="-230.3" font-family="Times,serif" font-size="14.00" fill="white">PARAMETROS</text>
</g>
<!-- n48&#45;&gt;n50 -->
<g id="edge50" class="edge">
<title>n48&#45;&gt;n50</title>
<path fill="none" stroke="#b9ff00" d="M2177.02,-288.76C2187.63,-279.71 2201.03,-268.27 2212.73,-258.28"/>
<polygon fill="#b9ff00" stroke="#b9ff00" points="2215.18,-260.79 2220.52,-251.63 2210.64,-255.46 2215.18,-260.79"/>
</g>
<!-- n51 -->
<g id="node52" class="node">
<title>n51</title>
<ellipse fill="#2b8ea4" stroke="#007add" cx="2430" cy="-234" rx="94.48" ry="18"/>
<text text-anchor="middle" x="2430" y="-230.3" font-family="Times,serif" font-size="14.00" fill="white">INSTRUCCIONES</text>
</g>
<!-- n48&#45;&gt;n51 -->
<g id="edge51" class="edge">
<title>n48&#45;&gt;n51</title>
<path fill="none" stroke="#b9ff00" d="M2201.1,-293.91C2245.62,-282.45 2315.58,-264.45 2366.44,-251.36"/>
<polygon fill="#b9ff00" stroke="#b9ff00" points="2367.53,-254.69 2376.35,-248.81 2365.79,-247.91 2367.53,-254.69"/>
</g>
<!-- n52 -->
<g id="node53" class="node">
<title>n52</title>
<ellipse fill="#2b8ea4" stroke="#007add" cx="2215" cy="-162" rx="82.59" ry="18"/>
<text text-anchor="middle" x="2215" y="-158.3" font-family="Times,serif" font-size="14.00" fill="white">DECLARACION</text>
</g>
<!-- n51&#45;&gt;n52 -->
<g id="edge52" class="edge">
<title>n51&#45;&gt;n52</title>
<path fill="none" stroke="#b9ff00" d="M2384.4,-218.15C2350.6,-207.15 2304.41,-192.11 2268.8,-180.52"/>
<polygon fill="#b9ff00" stroke="#b9ff00" points="2269.65,-177.11 2259.06,-177.35 2267.48,-183.77 2269.65,-177.11"/>
</g>
<!-- n58 -->
<g id="node59" class="node">
<title>n58</title>
<ellipse fill="#2b8ea4" stroke="#007add" cx="2458" cy="-162" rx="59.59" ry="18"/>
<text text-anchor="middle" x="2458" y="-158.3" font-family="Times,serif" font-size="14.00" fill="white">IMPRIMIR</text>
</g>
<!-- n51&#45;&gt;n58 -->
<g id="edge58" class="edge">
<title>n51&#45;&gt;n58</title>
<path fill="none" stroke="#b9ff00" d="M2436.92,-215.7C2440.07,-207.81 2443.88,-198.3 2447.38,-189.55"/>
<polygon fill="#b9ff00" stroke="#b9ff00" points="2450.69,-190.69 2451.16,-180.1 2444.19,-188.09 2450.69,-190.69"/>
</g>
<!-- n61 -->
<g id="node62" class="node">
<title>n61</title>
<ellipse fill="#2b8ea4" stroke="#007add" cx="2609" cy="-162" rx="44.39" ry="18"/>
<text text-anchor="middle" x="2609" y="-158.3" font-family="Times,serif" font-size="14.00" fill="white">BREAK</text>
</g>
<!-- n51&#45;&gt;n61 -->
<g id="edge61" class="edge">
<title>n51&#45;&gt;n61</title>
<path fill="none" stroke="#b9ff00" d="M2469.28,-217.64C2498.68,-206.14 2538.78,-190.46 2568.48,-178.85"/>
<polygon fill="#b9ff00" stroke="#b9ff00" points="2570.08,-181.98 2578.12,-175.08 2567.53,-175.46 2570.08,-181.98"/>
</g>
<!-- n53 -->
<g id="node54" class="node">
<title>n53</title>
<ellipse fill="#2b8ea4" stroke="#007add" cx="2063" cy="-90" rx="27" ry="18"/>
<text text-anchor="middle" x="2063" y="-86.3" font-family="Times,serif" font-size="14.00" fill="white">var</text>
</g>
<!-- n52&#45;&gt;n53 -->
<g id="edge53" class="edge">
<title>n52&#45;&gt;n53</title>
<path fill="none" stroke="#b9ff00" d="M2180.94,-145.57C2157.8,-135.06 2126.51,-120.78 2099,-108 2097.21,-107.17 2095.38,-106.31 2093.53,-105.45"/>
<polygon fill="#b9ff00" stroke="#b9ff00" points="2094.84,-102.2 2084.3,-101.11 2091.86,-108.53 2094.84,-102.2"/>
</g>
<!-- n54 -->
<g id="node55" class="node">
<title>n54</title>
<ellipse fill="#2b8ea4" stroke="#007add" cx="2139" cy="-90" rx="30.59" ry="18"/>
<text text-anchor="middle" x="2139" y="-86.3" font-family="Times,serif" font-size="14.00" fill="white">hola</text>
</g>
<!-- n52&#45;&gt;n54 -->
<g id="edge54" class="edge">
<title>n52&#45;&gt;n54</title>
<path fill="none" stroke="#b9ff00" d="M2196.99,-144.41C2186.57,-134.82 2173.36,-122.65 2162.18,-112.35"/>
<polygon fill="#b9ff00" stroke="#b9ff00" points="2164.55,-109.77 2154.82,-105.57 2159.8,-114.92 2164.55,-109.77"/>
</g>
<!-- n55 -->
<g id="node56" class="node">
<title>n55</title>
<ellipse fill="#2b8ea4" stroke="#007add" cx="2215" cy="-90" rx="27" ry="18"/>
<text text-anchor="middle" x="2215" y="-86.3" font-family="Times,serif" font-size="14.00" fill="white">=</text>
</g>
<!-- n52&#45;&gt;n55 -->
<g id="edge55" class="edge">
<title>n52&#45;&gt;n55</title>
<path fill="none" stroke="#b9ff00" d="M2215,-143.7C2215,-135.98 2215,-126.71 2215,-118.11"/>
<polygon fill="#b9ff00" stroke="#b9ff00" points="2218.5,-118.1 2215,-108.1 2211.5,-118.1 2218.5,-118.1"/>
</g>
<!-- n56 -->
<g id="node57" class="node">
<title>n56</title>
<ellipse fill="#2b8ea4" stroke="#007add" cx="2323" cy="-90" rx="63.09" ry="18"/>
<text text-anchor="middle" x="2323" y="-86.3" font-family="Times,serif" font-size="14.00" fill="white">PRIMITIVO</text>
</g>
<!-- n52&#45;&gt;n56 -->
<g id="edge56" class="edge">
<title>n52&#45;&gt;n56</title>
<path fill="none" stroke="#b9ff00" d="M2240.05,-144.76C2254.98,-135.09 2274.11,-122.69 2290.23,-112.24"/>
<polygon fill="#b9ff00" stroke="#b9ff00" points="2292.34,-115.04 2298.83,-106.67 2288.53,-109.17 2292.34,-115.04"/>
</g>
<!-- n57 -->
<g id="node58" class="node">
<title>n57</title>
<ellipse fill="#2b8ea4" stroke="#007add" cx="2323" cy="-18" rx="28.7" ry="18"/>
<text text-anchor="middle" x="2323" y="-14.3" font-family="Times,serif" font-size="14.00" fill="white">100</text>
</g>
<!-- n56&#45;&gt;n57 -->
<g id="edge57" class="edge">
<title>n56&#45;&gt;n57</title>
<path fill="none" stroke="#b9ff00" d="M2323,-71.7C2323,-63.98 2323,-54.71 2323,-46.11"/>
<polygon fill="#b9ff00" stroke="#b9ff00" points="2326.5,-46.1 2323,-36.1 2319.5,-46.1 2326.5,-46.1"/>
</g>
<!-- n59 -->
<g id="node60" class="node">
<title>n59</title>
<ellipse fill="#2b8ea4" stroke="#007add" cx="2494" cy="-90" rx="89.88" ry="18"/>
<text text-anchor="middle" x="2494" y="-86.3" font-family="Times,serif" font-size="14.00" fill="white">IDENTIFICADOR</text>
</g>
<!-- n58&#45;&gt;n59 -->
<g id="edge59" class="edge">
<title>n58&#45;&gt;n59</title>
<path fill="none" stroke="#b9ff00" d="M2466.71,-144.05C2470.85,-136.01 2475.89,-126.2 2480.51,-117.23"/>
<polygon fill="#b9ff00" stroke="#b9ff00" points="2483.65,-118.77 2485.12,-108.28 2477.43,-115.57 2483.65,-118.77"/>
</g>
<!-- n60 -->
<g id="node61" class="node">
<title>n60</title>
<ellipse fill="#2b8ea4" stroke="#007add" cx="2494" cy="-18" rx="30.59" ry="18"/>
<text text-anchor="middle" x="2494" y="-14.3" font-family="Times,serif" font-size="14.00" fill="white">hola</text>
</g>
<!-- n59&#45;&gt;n60 -->
<g id="edge60" class="edge">
<title>n59&#45;&gt;n60</title>
<path fill="none" stroke="#b9ff00" d="M2494,-71.7C2494,-63.98 2494,-54.71 2494,-46.11"/>
<polygon fill="#b9ff00" stroke="#b9ff00" points="2497.5,-46.1 2494,-36.1 2490.5,-46.1 2497.5,-46.1"/>
</g>
<!-- n62 -->
<g id="node63" class="node">
<title>n62</title>
<ellipse fill="#2b8ea4" stroke="#007add" cx="2665" cy="-90" rx="63.09" ry="18"/>
<text text-anchor="middle" x="2665" y="-86.3" font-family="Times,serif" font-size="14.00" fill="white">PRIMITIVO</text>
</g>
<!-- n61&#45;&gt;n62 -->
<g id="edge62" class="edge">
<title>n61&#45;&gt;n62</title>
<path fill="none" stroke="#b9ff00" d="M2621.99,-144.76C2628.89,-136.14 2637.51,-125.36 2645.22,-115.73"/>
<polygon fill="#b9ff00" stroke="#b9ff00" points="2648.18,-117.63 2651.69,-107.63 2642.71,-113.26 2648.18,-117.63"/>
</g>
<!-- n63 -->
<g id="node64" class="node">
<title>n63</title>
<ellipse fill="#2b8ea4" stroke="#007add" cx="2665" cy="-18" rx="30.59" ry="18"/>
<text text-anchor="middle" x="2665" y="-14.3" font-family="Times,serif" font-size="14.00" fill="white">hola</text>
</g>
<!-- n62&#45;&gt;n63 -->
<g id="edge63" class="edge">
<title>n62&#45;&gt;n63</title>
<path fill="none" stroke="#b9ff00" d="M2665,-71.7C2665,-63.98 2665,-54.71 2665,-46.11"/>
<polygon fill="#b9ff00" stroke="#b9ff00" points="2668.5,-46.1 2665,-36.1 2661.5,-46.1 2668.5,-46.1"/>
</g>
<!-- n65 -->
<g id="node66" class="node">
<title>n65</title>
<ellipse fill="#2b8ea4" stroke="#007add" cx="2569" cy="-234" rx="27" ry="18"/>
<text text-anchor="middle" x="2569" y="-230.3" font-family="Times,serif" font-size="14.00" fill="white">var</text>
</g>
<!-- n64&#45;&gt;n65 -->
<g id="edge65" class="edge">
<title>n64&#45;&gt;n65</title>
<path fill="none" stroke="#b9ff00" d="M2647.09,-288.59C2631.68,-278.02 2611.64,-264.26 2595.72,-253.33"/>
<polygon fill="#b9ff00" stroke="#b9ff00" points="2597.57,-250.36 2587.35,-247.59 2593.61,-256.14 2597.57,-250.36"/>
</g>
<!-- n66 -->
<g id="node67" class="node">
<title>n66</title>
<ellipse fill="#2b8ea4" stroke="#007add" cx="2671" cy="-234" rx="57.39" ry="18"/>
<text text-anchor="middle" x="2671" y="-230.3" font-family="Times,serif" font-size="14.00" fill="white">contadora</text>
</g>
<!-- n64&#45;&gt;n66 -->
<g id="edge66" class="edge">
<title>n64&#45;&gt;n66</title>
<path fill="none" stroke="#b9ff00" d="M2671,-287.7C2671,-279.98 2671,-270.71 2671,-262.11"/>
<polygon fill="#b9ff00" stroke="#b9ff00" points="2674.5,-262.1 2671,-252.1 2667.5,-262.1 2674.5,-262.1"/>
</g>
<!-- n67 -->
<g id="node68" class="node">
<title>n67</title>
<ellipse fill="#2b8ea4" stroke="#007add" cx="2773" cy="-234" rx="27" ry="18"/>
<text text-anchor="middle" x="2773" y="-230.3" font-family="Times,serif" font-size="14.00" fill="white">=</text>
</g>
<!-- n64&#45;&gt;n67 -->
<g id="edge67" class="edge">
<title>n64&#45;&gt;n67</title>
<path fill="none" stroke="#b9ff00" d="M2694.91,-288.59C2710.32,-278.02 2730.36,-264.26 2746.28,-253.33"/>
<polygon fill="#b9ff00" stroke="#b9ff00" points="2748.39,-256.14 2754.65,-247.59 2744.43,-250.36 2748.39,-256.14"/>
</g>
<!-- n68 -->
<g id="node69" class="node">
<title>n68</title>
<ellipse fill="#2b8ea4" stroke="#007add" cx="2881" cy="-234" rx="63.09" ry="18"/>
<text text-anchor="middle" x="2881" y="-230.3" font-family="Times,serif" font-size="14.00" fill="white">PRIMITIVO</text>
</g>
<!-- n64&#45;&gt;n68 -->
<g id="edge68" class="edge">
<title>n64&#45;&gt;n68</title>
<path fill="none" stroke="#b9ff00" d="M2714.26,-290.58C2748.5,-279.17 2796.33,-263.22 2831.98,-251.34"/>
<polygon fill="#b9ff00" stroke="#b9ff00" points="2833.32,-254.58 2841.7,-248.1 2831.1,-247.94 2833.32,-254.58"/>
</g>
<!-- n69 -->
<g id="node70" class="node">
<title>n69</title>
<ellipse fill="#2b8ea4" stroke="#007add" cx="2881" cy="-162" rx="27" ry="18"/>
<text text-anchor="middle" x="2881" y="-158.3" font-family="Times,serif" font-size="14.00" fill="white">0</text>
</g>
<!-- n68&#45;&gt;n69 -->
<g id="edge69" class="edge">
<title>n68&#45;&gt;n69</title>
<path fill="none" stroke="#b9ff00" d="M2881,-215.7C2881,-207.98 2881,-198.71 2881,-190.11"/>
<polygon fill="#b9ff00" stroke="#b9ff00" points="2884.5,-190.1 2881,-180.1 2877.5,-190.1 2884.5,-190.1"/>
</g>
</g>
</svg>
