<?xml version="1.0" encoding="UTF-8" standalone="no"?>
<!DOCTYPE svg PUBLIC "-//W3C//DTD SVG 1.1//EN"
 "http://www.w3.org/Graphics/SVG/1.1/DTD/svg11.dtd">
<!-- Generated by graphviz version 2.43.0 (0)
 -->
<!-- Title: %3 Pages: 1 -->
<svg width="836pt" height="476pt"
 viewBox="0.00 0.00 835.69 476.00" xmlns="http://www.w3.org/2000/svg" xmlns:xlink="http://www.w3.org/1999/xlink">
<g id="graph0" class="graph" transform="scale(1 1) rotate(0) translate(4 472)">
<title>%3</title>
<polygon fill="#21495c" stroke="transparent" points="-4,4 -4,-472 831.69,-472 831.69,4 -4,4"/>
<!-- n0 -->
<g id="node1" class="node">
<title>n0</title>
<ellipse fill="#2b8ea4" stroke="#007add" cx="459" cy="-450" rx="33.6" ry="18"/>
<text text-anchor="middle" x="459" y="-446.3" font-family="Times,serif" font-size="14.00" fill="white">RAIZ</text>
</g>
<!-- n1 -->
<g id="node2" class="node">
<title>n1</title>
<ellipse fill="#2b8ea4" stroke="#007add" cx="459" cy="-378" rx="94.48" ry="18"/>
<text text-anchor="middle" x="459" y="-374.3" font-family="Times,serif" font-size="14.00" fill="white">INSTRUCCIONES</text>
</g>
<!-- n0&#45;&gt;n1 -->
<g id="edge1" class="edge">
<title>n0&#45;&gt;n1</title>
<path fill="none" stroke="#b9ff00" d="M459,-431.7C459,-423.98 459,-414.71 459,-406.11"/>
<polygon fill="#b9ff00" stroke="#b9ff00" points="462.5,-406.1 459,-396.1 455.5,-406.1 462.5,-406.1"/>
</g>
<!-- n2 -->
<g id="node3" class="node">
<title>n2</title>
<ellipse fill="#2b8ea4" stroke="#007add" cx="459" cy="-306" rx="37.89" ry="18"/>
<text text-anchor="middle" x="459" y="-302.3" font-family="Times,serif" font-size="14.00" fill="white">MAIN</text>
</g>
<!-- n1&#45;&gt;n2 -->
<g id="edge2" class="edge">
<title>n1&#45;&gt;n2</title>
<path fill="none" stroke="#b9ff00" d="M459,-359.7C459,-351.98 459,-342.71 459,-334.11"/>
<polygon fill="#b9ff00" stroke="#b9ff00" points="462.5,-334.1 459,-324.1 455.5,-334.1 462.5,-334.1"/>
</g>
<!-- n3 -->
<g id="node4" class="node">
<title>n3</title>
<ellipse fill="#2b8ea4" stroke="#007add" cx="459" cy="-234" rx="94.48" ry="18"/>
<text text-anchor="middle" x="459" y="-230.3" font-family="Times,serif" font-size="14.00" fill="white">INSTRUCCIONES</text>
</g>
<!-- n2&#45;&gt;n3 -->
<g id="edge3" class="edge">
<title>n2&#45;&gt;n3</title>
<path fill="none" stroke="#b9ff00" d="M459,-287.7C459,-279.98 459,-270.71 459,-262.11"/>
<polygon fill="#b9ff00" stroke="#b9ff00" points="462.5,-262.1 459,-252.1 455.5,-262.1 462.5,-262.1"/>
</g>
<!-- n4 -->
<g id="node5" class="node">
<title>n4</title>
<ellipse fill="#2b8ea4" stroke="#007add" cx="171" cy="-162" rx="82.59" ry="18"/>
<text text-anchor="middle" x="171" y="-158.3" font-family="Times,serif" font-size="14.00" fill="white">DECLARACION</text>
</g>
<!-- n3&#45;&gt;n4 -->
<g id="edge4" class="edge">
<title>n3&#45;&gt;n4</title>
<path fill="none" stroke="#b9ff00" d="M403.13,-219.42C354.67,-207.64 284.57,-190.6 234.1,-178.34"/>
<polygon fill="#b9ff00" stroke="#b9ff00" points="234.83,-174.91 224.28,-175.95 233.17,-181.71 234.83,-174.91"/>
</g>
<!-- n10 -->
<g id="node11" class="node">
<title>n10</title>
<ellipse fill="#2b8ea4" stroke="#007add" cx="459" cy="-162" rx="73.39" ry="18"/>
<text text-anchor="middle" x="459" y="-158.3" font-family="Times,serif" font-size="14.00" fill="white">ASIGNACION</text>
</g>
<!-- n3&#45;&gt;n10 -->
<g id="edge10" class="edge">
<title>n3&#45;&gt;n10</title>
<path fill="none" stroke="#b9ff00" d="M459,-215.7C459,-207.98 459,-198.71 459,-190.11"/>
<polygon fill="#b9ff00" stroke="#b9ff00" points="462.5,-190.1 459,-180.1 455.5,-190.1 462.5,-190.1"/>
</g>
<!-- n15 -->
<g id="node16" class="node">
<title>n15</title>
<ellipse fill="#2b8ea4" stroke="#007add" cx="674" cy="-162" rx="59.59" ry="18"/>
<text text-anchor="middle" x="674" y="-158.3" font-family="Times,serif" font-size="14.00" fill="white">IMPRIMIR</text>
</g>
<!-- n3&#45;&gt;n15 -->
<g id="edge15" class="edge">
<title>n3&#45;&gt;n15</title>
<path fill="none" stroke="#b9ff00" d="M504.6,-218.15C539.97,-206.64 588.92,-190.7 625.11,-178.92"/>
<polygon fill="#b9ff00" stroke="#b9ff00" points="626.53,-182.14 634.96,-175.71 624.36,-175.48 626.53,-182.14"/>
</g>
<!-- n5 -->
<g id="node6" class="node">
<title>n5</title>
<ellipse fill="#2b8ea4" stroke="#007add" cx="27" cy="-90" rx="27" ry="18"/>
<text text-anchor="middle" x="27" y="-86.3" font-family="Times,serif" font-size="14.00" fill="white">var</text>
</g>
<!-- n4&#45;&gt;n5 -->
<g id="edge5" class="edge">
<title>n4&#45;&gt;n5</title>
<path fill="none" stroke="#b9ff00" d="M138.68,-145.29C114.49,-133.53 81.6,-117.54 57.78,-105.96"/>
<polygon fill="#b9ff00" stroke="#b9ff00" points="59.02,-102.67 48.5,-101.45 55.96,-108.97 59.02,-102.67"/>
</g>
<!-- n6 -->
<g id="node7" class="node">
<title>n6</title>
<ellipse fill="#2b8ea4" stroke="#007add" cx="99" cy="-90" rx="27" ry="18"/>
<text text-anchor="middle" x="99" y="-86.3" font-family="Times,serif" font-size="14.00" fill="white">a</text>
</g>
<!-- n4&#45;&gt;n6 -->
<g id="edge6" class="edge">
<title>n4&#45;&gt;n6</title>
<path fill="none" stroke="#b9ff00" d="M153.57,-144.05C143.79,-134.55 131.5,-122.59 121.05,-112.44"/>
<polygon fill="#b9ff00" stroke="#b9ff00" points="123.45,-109.89 113.84,-105.42 118.57,-114.9 123.45,-109.89"/>
</g>
<!-- n7 -->
<g id="node8" class="node">
<title>n7</title>
<ellipse fill="#2b8ea4" stroke="#007add" cx="171" cy="-90" rx="27" ry="18"/>
<text text-anchor="middle" x="171" y="-86.3" font-family="Times,serif" font-size="14.00" fill="white">=</text>
</g>
<!-- n4&#45;&gt;n7 -->
<g id="edge7" class="edge">
<title>n4&#45;&gt;n7</title>
<path fill="none" stroke="#b9ff00" d="M171,-143.7C171,-135.98 171,-126.71 171,-118.11"/>
<polygon fill="#b9ff00" stroke="#b9ff00" points="174.5,-118.1 171,-108.1 167.5,-118.1 174.5,-118.1"/>
</g>
<!-- n8 -->
<g id="node9" class="node">
<title>n8</title>
<ellipse fill="#2b8ea4" stroke="#007add" cx="279" cy="-90" rx="63.09" ry="18"/>
<text text-anchor="middle" x="279" y="-86.3" font-family="Times,serif" font-size="14.00" fill="white">PRIMITIVO</text>
</g>
<!-- n4&#45;&gt;n8 -->
<g id="edge8" class="edge">
<title>n4&#45;&gt;n8</title>
<path fill="none" stroke="#b9ff00" d="M196.05,-144.76C210.98,-135.09 230.11,-122.69 246.23,-112.24"/>
<polygon fill="#b9ff00" stroke="#b9ff00" points="248.34,-115.04 254.83,-106.67 244.53,-109.17 248.34,-115.04"/>
</g>
<!-- n9 -->
<g id="node10" class="node">
<title>n9</title>
<ellipse fill="#2b8ea4" stroke="#007add" cx="279" cy="-18" rx="27" ry="18"/>
<text text-anchor="middle" x="279" y="-14.3" font-family="Times,serif" font-size="14.00" fill="white">3</text>
</g>
<!-- n8&#45;&gt;n9 -->
<g id="edge9" class="edge">
<title>n8&#45;&gt;n9</title>
<path fill="none" stroke="#b9ff00" d="M279,-71.7C279,-63.98 279,-54.71 279,-46.11"/>
<polygon fill="#b9ff00" stroke="#b9ff00" points="282.5,-46.1 279,-36.1 275.5,-46.1 282.5,-46.1"/>
</g>
<!-- n11 -->
<g id="node12" class="node">
<title>n11</title>
<ellipse fill="#2b8ea4" stroke="#007add" cx="387" cy="-90" rx="27" ry="18"/>
<text text-anchor="middle" x="387" y="-86.3" font-family="Times,serif" font-size="14.00" fill="white">a</text>
</g>
<!-- n10&#45;&gt;n11 -->
<g id="edge11" class="edge">
<title>n10&#45;&gt;n11</title>
<path fill="none" stroke="#b9ff00" d="M441.94,-144.41C432.17,-134.91 419.79,-122.88 409.26,-112.65"/>
<polygon fill="#b9ff00" stroke="#b9ff00" points="411.6,-110.03 401.99,-105.57 406.72,-115.05 411.6,-110.03"/>
</g>
<!-- n12 -->
<g id="node13" class="node">
<title>n12</title>
<ellipse fill="#2b8ea4" stroke="#007add" cx="459" cy="-90" rx="27" ry="18"/>
<text text-anchor="middle" x="459" y="-86.3" font-family="Times,serif" font-size="14.00" fill="white">=</text>
</g>
<!-- n10&#45;&gt;n12 -->
<g id="edge12" class="edge">
<title>n10&#45;&gt;n12</title>
<path fill="none" stroke="#b9ff00" d="M459,-143.7C459,-135.98 459,-126.71 459,-118.11"/>
<polygon fill="#b9ff00" stroke="#b9ff00" points="462.5,-118.1 459,-108.1 455.5,-118.1 462.5,-118.1"/>
</g>
<!-- n13 -->
<g id="node14" class="node">
<title>n13</title>
<ellipse fill="#2b8ea4" stroke="#007add" cx="567" cy="-90" rx="63.09" ry="18"/>
<text text-anchor="middle" x="567" y="-86.3" font-family="Times,serif" font-size="14.00" fill="white">PRIMITIVO</text>
</g>
<!-- n10&#45;&gt;n13 -->
<g id="edge13" class="edge">
<title>n10&#45;&gt;n13</title>
<path fill="none" stroke="#b9ff00" d="M483.78,-144.94C498.7,-135.27 517.88,-122.83 534.07,-112.34"/>
<polygon fill="#b9ff00" stroke="#b9ff00" points="536.22,-115.12 542.71,-106.74 532.41,-109.25 536.22,-115.12"/>
</g>
<!-- n14 -->
<g id="node15" class="node">
<title>n14</title>
<ellipse fill="#2b8ea4" stroke="#007add" cx="567" cy="-18" rx="27" ry="18"/>
<text text-anchor="middle" x="567" y="-14.3" font-family="Times,serif" font-size="14.00" fill="white">43</text>
</g>
<!-- n13&#45;&gt;n14 -->
<g id="edge14" class="edge">
<title>n13&#45;&gt;n14</title>
<path fill="none" stroke="#b9ff00" d="M567,-71.7C567,-63.98 567,-54.71 567,-46.11"/>
<polygon fill="#b9ff00" stroke="#b9ff00" points="570.5,-46.1 567,-36.1 563.5,-46.1 570.5,-46.1"/>
</g>
<!-- n16 -->
<g id="node17" class="node">
<title>n16</title>
<ellipse fill="#2b8ea4" stroke="#007add" cx="738" cy="-90" rx="89.88" ry="18"/>
<text text-anchor="middle" x="738" y="-86.3" font-family="Times,serif" font-size="14.00" fill="white">IDENTIFICADOR</text>
</g>
<!-- n15&#45;&gt;n16 -->
<g id="edge16" class="edge">
<title>n15&#45;&gt;n16</title>
<path fill="none" stroke="#b9ff00" d="M689.17,-144.41C697.1,-135.73 706.96,-124.95 715.74,-115.34"/>
<polygon fill="#b9ff00" stroke="#b9ff00" points="718.33,-117.7 722.5,-107.96 713.17,-112.97 718.33,-117.7"/>
</g>
<!-- n17 -->
<g id="node18" class="node">
<title>n17</title>
<ellipse fill="#2b8ea4" stroke="#007add" cx="738" cy="-18" rx="27" ry="18"/>
<text text-anchor="middle" x="738" y="-14.3" font-family="Times,serif" font-size="14.00" fill="white">a</text>
</g>
<!-- n16&#45;&gt;n17 -->
<g id="edge17" class="edge">
<title>n16&#45;&gt;n17</title>
<path fill="none" stroke="#b9ff00" d="M738,-71.7C738,-63.98 738,-54.71 738,-46.11"/>
<polygon fill="#b9ff00" stroke="#b9ff00" points="741.5,-46.1 738,-36.1 734.5,-46.1 741.5,-46.1"/>
</g>
</g>
</svg>
