<?xml version="1.0" encoding="UTF-8" standalone="no"?>
<!DOCTYPE svg PUBLIC "-//W3C//DTD SVG 1.1//EN"
 "http://www.w3.org/Graphics/SVG/1.1/DTD/svg11.dtd">
<!-- Generated by graphviz version 2.43.0 (0)
 -->
<!-- Title: %3 Pages: 1 -->
<svg width="1498pt" height="476pt"
 viewBox="0.00 0.00 1498.04 476.00" xmlns="http://www.w3.org/2000/svg" xmlns:xlink="http://www.w3.org/1999/xlink">
<g id="graph0" class="graph" transform="scale(1 1) rotate(0) translate(4 472)">
<title>%3</title>
<polygon fill="#21495c" stroke="transparent" points="-4,4 -4,-472 1494.04,-472 1494.04,4 -4,4"/>
<!-- n0 -->
<g id="node1" class="node">
<title>n0</title>
<ellipse fill="#2b8ea4" stroke="#007add" cx="755" cy="-450" rx="33.6" ry="18"/>
<text text-anchor="middle" x="755" y="-446.3" font-family="Times,serif" font-size="14.00" fill="white">RAIZ</text>
</g>
<!-- n1 -->
<g id="node2" class="node">
<title>n1</title>
<ellipse fill="#2b8ea4" stroke="#007add" cx="755" cy="-378" rx="94.48" ry="18"/>
<text text-anchor="middle" x="755" y="-374.3" font-family="Times,serif" font-size="14.00" fill="white">INSTRUCCIONES</text>
</g>
<!-- n0&#45;&gt;n1 -->
<g id="edge1" class="edge">
<title>n0&#45;&gt;n1</title>
<path fill="none" stroke="#b9ff00" d="M755,-431.7C755,-423.98 755,-414.71 755,-406.11"/>
<polygon fill="#b9ff00" stroke="#b9ff00" points="758.5,-406.1 755,-396.1 751.5,-406.1 758.5,-406.1"/>
</g>
<!-- n2 -->
<g id="node3" class="node">
<title>n2</title>
<ellipse fill="#2b8ea4" stroke="#007add" cx="698" cy="-306" rx="37.89" ry="18"/>
<text text-anchor="middle" x="698" y="-302.3" font-family="Times,serif" font-size="14.00" fill="white">MAIN</text>
</g>
<!-- n1&#45;&gt;n2 -->
<g id="edge2" class="edge">
<title>n1&#45;&gt;n2</title>
<path fill="none" stroke="#b9ff00" d="M741.2,-360.05C734.17,-351.42 725.49,-340.76 717.76,-331.27"/>
<polygon fill="#b9ff00" stroke="#b9ff00" points="720.31,-328.85 711.28,-323.31 714.88,-333.27 720.31,-328.85"/>
</g>
<!-- n17 -->
<g id="node18" class="node">
<title>n17</title>
<ellipse fill="#2b8ea4" stroke="#007add" cx="845" cy="-306" rx="57.69" ry="18"/>
<text text-anchor="middle" x="845" y="-302.3" font-family="Times,serif" font-size="14.00" fill="white">FUNCION</text>
</g>
<!-- n1&#45;&gt;n17 -->
<g id="edge17" class="edge">
<title>n1&#45;&gt;n17</title>
<path fill="none" stroke="#b9ff00" d="M776.33,-360.41C788.27,-351.12 803.32,-339.42 816.28,-329.34"/>
<polygon fill="#b9ff00" stroke="#b9ff00" points="818.7,-331.89 824.44,-322.99 814.4,-326.36 818.7,-331.89"/>
</g>
<!-- n3 -->
<g id="node4" class="node">
<title>n3</title>
<ellipse fill="#2b8ea4" stroke="#007add" cx="548" cy="-234" rx="94.48" ry="18"/>
<text text-anchor="middle" x="548" y="-230.3" font-family="Times,serif" font-size="14.00" fill="white">INSTRUCCIONES</text>
</g>
<!-- n2&#45;&gt;n3 -->
<g id="edge3" class="edge">
<title>n2&#45;&gt;n3</title>
<path fill="none" stroke="#b9ff00" d="M671.87,-292.81C649.67,-282.45 617.35,-267.36 591.28,-255.2"/>
<polygon fill="#b9ff00" stroke="#b9ff00" points="592.54,-251.92 582,-250.86 589.58,-258.27 592.54,-251.92"/>
</g>
<!-- n4 -->
<g id="node5" class="node">
<title>n4</title>
<ellipse fill="#2b8ea4" stroke="#007add" cx="171" cy="-162" rx="82.59" ry="18"/>
<text text-anchor="middle" x="171" y="-158.3" font-family="Times,serif" font-size="14.00" fill="white">DECLARACION</text>
</g>
<!-- n3&#45;&gt;n4 -->
<g id="edge4" class="edge">
<title>n3&#45;&gt;n4</title>
<path fill="none" stroke="#b9ff00" d="M482.76,-220.89C415.47,-208.39 310.86,-188.97 241.65,-176.12"/>
<polygon fill="#b9ff00" stroke="#b9ff00" points="242.17,-172.66 231.7,-174.27 240.9,-179.54 242.17,-172.66"/>
</g>
<!-- n10 -->
<g id="node11" class="node">
<title>n10</title>
<ellipse fill="#2b8ea4" stroke="#007add" cx="478" cy="-162" rx="59.59" ry="18"/>
<text text-anchor="middle" x="478" y="-158.3" font-family="Times,serif" font-size="14.00" fill="white">IMPRIMIR</text>
</g>
<!-- n3&#45;&gt;n10 -->
<g id="edge10" class="edge">
<title>n3&#45;&gt;n10</title>
<path fill="none" stroke="#b9ff00" d="M531.05,-216.05C522.37,-207.37 511.64,-196.64 502.11,-187.11"/>
<polygon fill="#b9ff00" stroke="#b9ff00" points="504.33,-184.39 494.79,-179.79 499.39,-189.33 504.33,-184.39"/>
</g>
<!-- n13 -->
<g id="node14" class="node">
<title>n13</title>
<ellipse fill="#2b8ea4" stroke="#007add" cx="632" cy="-162" rx="59.59" ry="18"/>
<text text-anchor="middle" x="632" y="-158.3" font-family="Times,serif" font-size="14.00" fill="white">IMPRIMIR</text>
</g>
<!-- n3&#45;&gt;n13 -->
<g id="edge13" class="edge">
<title>n3&#45;&gt;n13</title>
<path fill="none" stroke="#b9ff00" d="M568.33,-216.05C579.3,-206.92 592.98,-195.51 604.85,-185.63"/>
<polygon fill="#b9ff00" stroke="#b9ff00" points="607.28,-188.16 612.72,-179.07 602.8,-182.78 607.28,-188.16"/>
</g>
<!-- n5 -->
<g id="node6" class="node">
<title>n5</title>
<ellipse fill="#2b8ea4" stroke="#007add" cx="27" cy="-90" rx="27" ry="18"/>
<text text-anchor="middle" x="27" y="-86.3" font-family="Times,serif" font-size="14.00" fill="white">var</text>
</g>
<!-- n4&#45;&gt;n5 -->
<g id="edge5" class="edge">
<title>n4&#45;&gt;n5</title>
<path fill="none" stroke="#b9ff00" d="M138.68,-145.29C114.49,-133.53 81.6,-117.54 57.78,-105.96"/>
<polygon fill="#b9ff00" stroke="#b9ff00" points="59.02,-102.67 48.5,-101.45 55.96,-108.97 59.02,-102.67"/>
</g>
<!-- n6 -->
<g id="node7" class="node">
<title>n6</title>
<ellipse fill="#2b8ea4" stroke="#007add" cx="99" cy="-90" rx="27" ry="18"/>
<text text-anchor="middle" x="99" y="-86.3" font-family="Times,serif" font-size="14.00" fill="white">a</text>
</g>
<!-- n4&#45;&gt;n6 -->
<g id="edge6" class="edge">
<title>n4&#45;&gt;n6</title>
<path fill="none" stroke="#b9ff00" d="M153.57,-144.05C143.79,-134.55 131.5,-122.59 121.05,-112.44"/>
<polygon fill="#b9ff00" stroke="#b9ff00" points="123.45,-109.89 113.84,-105.42 118.57,-114.9 123.45,-109.89"/>
</g>
<!-- n7 -->
<g id="node8" class="node">
<title>n7</title>
<ellipse fill="#2b8ea4" stroke="#007add" cx="171" cy="-90" rx="27" ry="18"/>
<text text-anchor="middle" x="171" y="-86.3" font-family="Times,serif" font-size="14.00" fill="white">=</text>
</g>
<!-- n4&#45;&gt;n7 -->
<g id="edge7" class="edge">
<title>n4&#45;&gt;n7</title>
<path fill="none" stroke="#b9ff00" d="M171,-143.7C171,-135.98 171,-126.71 171,-118.11"/>
<polygon fill="#b9ff00" stroke="#b9ff00" points="174.5,-118.1 171,-108.1 167.5,-118.1 174.5,-118.1"/>
</g>
<!-- n8 -->
<g id="node9" class="node">
<title>n8</title>
<ellipse fill="#2b8ea4" stroke="#007add" cx="279" cy="-90" rx="63.09" ry="18"/>
<text text-anchor="middle" x="279" y="-86.3" font-family="Times,serif" font-size="14.00" fill="white">PRIMITIVO</text>
</g>
<!-- n4&#45;&gt;n8 -->
<g id="edge8" class="edge">
<title>n4&#45;&gt;n8</title>
<path fill="none" stroke="#b9ff00" d="M196.05,-144.76C210.98,-135.09 230.11,-122.69 246.23,-112.24"/>
<polygon fill="#b9ff00" stroke="#b9ff00" points="248.34,-115.04 254.83,-106.67 244.53,-109.17 248.34,-115.04"/>
</g>
<!-- n9 -->
<g id="node10" class="node">
<title>n9</title>
<ellipse fill="#2b8ea4" stroke="#007add" cx="231" cy="-18" rx="140.28" ry="18"/>
<text text-anchor="middle" x="231" y="-14.3" font-family="Times,serif" font-size="14.00" fill="white">declaracion dentro del main</text>
</g>
<!-- n8&#45;&gt;n9 -->
<g id="edge9" class="edge">
<title>n8&#45;&gt;n9</title>
<path fill="none" stroke="#b9ff00" d="M267.38,-72.05C261.75,-63.84 254.86,-53.79 248.6,-44.66"/>
<polygon fill="#b9ff00" stroke="#b9ff00" points="251.39,-42.54 242.85,-36.28 245.61,-46.5 251.39,-42.54"/>
</g>
<!-- n11 -->
<g id="node12" class="node">
<title>n11</title>
<ellipse fill="#2b8ea4" stroke="#007add" cx="463" cy="-90" rx="63.09" ry="18"/>
<text text-anchor="middle" x="463" y="-86.3" font-family="Times,serif" font-size="14.00" fill="white">PRIMITIVO</text>
</g>
<!-- n10&#45;&gt;n11 -->
<g id="edge11" class="edge">
<title>n10&#45;&gt;n11</title>
<path fill="none" stroke="#b9ff00" d="M474.29,-143.7C472.64,-135.98 470.65,-126.71 468.81,-118.11"/>
<polygon fill="#b9ff00" stroke="#b9ff00" points="472.18,-117.15 466.67,-108.1 465.34,-118.62 472.18,-117.15"/>
</g>
<!-- n12 -->
<g id="node13" class="node">
<title>n12</title>
<ellipse fill="#2b8ea4" stroke="#007add" cx="471" cy="-18" rx="81.49" ry="18"/>
<text text-anchor="middle" x="471" y="-14.3" font-family="Times,serif" font-size="14.00" fill="white">dentro de main</text>
</g>
<!-- n11&#45;&gt;n12 -->
<g id="edge12" class="edge">
<title>n11&#45;&gt;n12</title>
<path fill="none" stroke="#b9ff00" d="M464.98,-71.7C465.86,-63.98 466.92,-54.71 467.9,-46.11"/>
<polygon fill="#b9ff00" stroke="#b9ff00" points="471.39,-46.44 469.05,-36.1 464.43,-45.64 471.39,-46.44"/>
</g>
<!-- n14 -->
<g id="node15" class="node">
<title>n14</title>
<ellipse fill="#2b8ea4" stroke="#007add" cx="662" cy="-90" rx="117.78" ry="18"/>
<text text-anchor="middle" x="662" y="-86.3" font-family="Times,serif" font-size="14.00" fill="white">LLAMADA A FUNCION</text>
</g>
<!-- n13&#45;&gt;n14 -->
<g id="edge14" class="edge">
<title>n13&#45;&gt;n14</title>
<path fill="none" stroke="#b9ff00" d="M639.26,-144.05C642.68,-136.09 646.82,-126.41 650.64,-117.51"/>
<polygon fill="#b9ff00" stroke="#b9ff00" points="653.87,-118.85 654.6,-108.28 647.44,-116.09 653.87,-118.85"/>
</g>
<!-- n15 -->
<g id="node16" class="node">
<title>n15</title>
<ellipse fill="#2b8ea4" stroke="#007add" cx="654" cy="-18" rx="67.69" ry="18"/>
<text text-anchor="middle" x="654" y="-14.3" font-family="Times,serif" font-size="14.00" fill="white">holamundo3</text>
</g>
<!-- n14&#45;&gt;n15 -->
<g id="edge15" class="edge">
<title>n14&#45;&gt;n15</title>
<path fill="none" stroke="#b9ff00" d="M660.02,-71.7C659.14,-63.98 658.08,-54.71 657.1,-46.11"/>
<polygon fill="#b9ff00" stroke="#b9ff00" points="660.57,-45.64 655.95,-36.1 653.61,-46.44 660.57,-45.64"/>
</g>
<!-- n16 -->
<g id="node17" class="node">
<title>n16</title>
<ellipse fill="#2b8ea4" stroke="#007add" cx="818" cy="-18" rx="77.99" ry="18"/>
<text text-anchor="middle" x="818" y="-14.3" font-family="Times,serif" font-size="14.00" fill="white">PARAMETROS</text>
</g>
<!-- n14&#45;&gt;n16 -->
<g id="edge16" class="edge">
<title>n14&#45;&gt;n16</title>
<path fill="none" stroke="#b9ff00" d="M698.18,-72.76C720.99,-62.53 750.56,-49.26 774.62,-38.46"/>
<polygon fill="#b9ff00" stroke="#b9ff00" points="776.19,-41.59 783.89,-34.31 773.33,-35.21 776.19,-41.59"/>
</g>
<!-- n18 -->
<g id="node19" class="node">
<title>n18</title>
<ellipse fill="#2b8ea4" stroke="#007add" cx="763" cy="-234" rx="67.69" ry="18"/>
<text text-anchor="middle" x="763" y="-230.3" font-family="Times,serif" font-size="14.00" fill="white">holamundo3</text>
</g>
<!-- n17&#45;&gt;n18 -->
<g id="edge18" class="edge">
<title>n17&#45;&gt;n18</title>
<path fill="none" stroke="#b9ff00" d="M825.98,-288.76C815.29,-279.64 801.78,-268.1 790.01,-258.06"/>
<polygon fill="#b9ff00" stroke="#b9ff00" points="792.08,-255.22 782.2,-251.39 787.53,-260.54 792.08,-255.22"/>
</g>
<!-- n19 -->
<g id="node20" class="node">
<title>n19</title>
<ellipse fill="#2b8ea4" stroke="#007add" cx="927" cy="-234" rx="77.99" ry="18"/>
<text text-anchor="middle" x="927" y="-230.3" font-family="Times,serif" font-size="14.00" fill="white">PARAMETROS</text>
</g>
<!-- n17&#45;&gt;n19 -->
<g id="edge19" class="edge">
<title>n17&#45;&gt;n19</title>
<path fill="none" stroke="#b9ff00" d="M864.02,-288.76C874.63,-279.71 888.03,-268.27 899.73,-258.28"/>
<polygon fill="#b9ff00" stroke="#b9ff00" points="902.18,-260.79 907.52,-251.63 897.64,-255.46 902.18,-260.79"/>
</g>
<!-- n20 -->
<g id="node21" class="node">
<title>n20</title>
<ellipse fill="#2b8ea4" stroke="#007add" cx="1134" cy="-234" rx="94.48" ry="18"/>
<text text-anchor="middle" x="1134" y="-230.3" font-family="Times,serif" font-size="14.00" fill="white">INSTRUCCIONES</text>
</g>
<!-- n17&#45;&gt;n20 -->
<g id="edge20" class="edge">
<title>n17&#45;&gt;n20</title>
<path fill="none" stroke="#b9ff00" d="M889.21,-294.29C936.92,-282.74 1013.4,-264.21 1068.19,-250.94"/>
<polygon fill="#b9ff00" stroke="#b9ff00" points="1069.26,-254.28 1078.15,-248.53 1067.61,-247.48 1069.26,-254.28"/>
</g>
<!-- n21 -->
<g id="node22" class="node">
<title>n21</title>
<ellipse fill="#2b8ea4" stroke="#007add" cx="977" cy="-162" rx="82.59" ry="18"/>
<text text-anchor="middle" x="977" y="-158.3" font-family="Times,serif" font-size="14.00" fill="white">DECLARACION</text>
</g>
<!-- n20&#45;&gt;n21 -->
<g id="edge21" class="edge">
<title>n20&#45;&gt;n21</title>
<path fill="none" stroke="#b9ff00" d="M1098.77,-217.29C1075.78,-207.04 1045.6,-193.58 1021.03,-182.63"/>
<polygon fill="#b9ff00" stroke="#b9ff00" points="1022.13,-179.29 1011.58,-178.42 1019.28,-185.68 1022.13,-179.29"/>
</g>
<!-- n27 -->
<g id="node28" class="node">
<title>n27</title>
<ellipse fill="#2b8ea4" stroke="#007add" cx="1196" cy="-162" rx="59.59" ry="18"/>
<text text-anchor="middle" x="1196" y="-158.3" font-family="Times,serif" font-size="14.00" fill="white">IMPRIMIR</text>
</g>
<!-- n20&#45;&gt;n27 -->
<g id="edge27" class="edge">
<title>n20&#45;&gt;n27</title>
<path fill="none" stroke="#b9ff00" d="M1149.01,-216.05C1156.62,-207.46 1166.01,-196.86 1174.39,-187.4"/>
<polygon fill="#b9ff00" stroke="#b9ff00" points="1177.12,-189.6 1181.13,-179.79 1171.88,-184.95 1177.12,-189.6"/>
</g>
<!-- n30 -->
<g id="node31" class="node">
<title>n30</title>
<ellipse fill="#2b8ea4" stroke="#007add" cx="1372" cy="-162" rx="44.39" ry="18"/>
<text text-anchor="middle" x="1372" y="-158.3" font-family="Times,serif" font-size="14.00" fill="white">BREAK</text>
</g>
<!-- n20&#45;&gt;n30 -->
<g id="edge30" class="edge">
<title>n20&#45;&gt;n30</title>
<path fill="none" stroke="#b9ff00" d="M1183.03,-218.58C1225.52,-206.08 1286.47,-188.16 1327.56,-176.07"/>
<polygon fill="#b9ff00" stroke="#b9ff00" points="1328.69,-179.39 1337.29,-173.21 1326.71,-172.67 1328.69,-179.39"/>
</g>
<!-- n22 -->
<g id="node23" class="node">
<title>n22</title>
<ellipse fill="#2b8ea4" stroke="#007add" cx="825" cy="-90" rx="27" ry="18"/>
<text text-anchor="middle" x="825" y="-86.3" font-family="Times,serif" font-size="14.00" fill="white">var</text>
</g>
<!-- n21&#45;&gt;n22 -->
<g id="edge22" class="edge">
<title>n21&#45;&gt;n22</title>
<path fill="none" stroke="#b9ff00" d="M942.94,-145.57C919.8,-135.06 888.51,-120.78 861,-108 859.21,-107.17 857.38,-106.31 855.53,-105.45"/>
<polygon fill="#b9ff00" stroke="#b9ff00" points="856.84,-102.2 846.3,-101.11 853.86,-108.53 856.84,-102.2"/>
</g>
<!-- n23 -->
<g id="node24" class="node">
<title>n23</title>
<ellipse fill="#2b8ea4" stroke="#007add" cx="901" cy="-90" rx="30.59" ry="18"/>
<text text-anchor="middle" x="901" y="-86.3" font-family="Times,serif" font-size="14.00" fill="white">hola</text>
</g>
<!-- n21&#45;&gt;n23 -->
<g id="edge23" class="edge">
<title>n21&#45;&gt;n23</title>
<path fill="none" stroke="#b9ff00" d="M958.99,-144.41C948.57,-134.82 935.36,-122.65 924.18,-112.35"/>
<polygon fill="#b9ff00" stroke="#b9ff00" points="926.55,-109.77 916.82,-105.57 921.8,-114.92 926.55,-109.77"/>
</g>
<!-- n24 -->
<g id="node25" class="node">
<title>n24</title>
<ellipse fill="#2b8ea4" stroke="#007add" cx="977" cy="-90" rx="27" ry="18"/>
<text text-anchor="middle" x="977" y="-86.3" font-family="Times,serif" font-size="14.00" fill="white">=</text>
</g>
<!-- n21&#45;&gt;n24 -->
<g id="edge24" class="edge">
<title>n21&#45;&gt;n24</title>
<path fill="none" stroke="#b9ff00" d="M977,-143.7C977,-135.98 977,-126.71 977,-118.11"/>
<polygon fill="#b9ff00" stroke="#b9ff00" points="980.5,-118.1 977,-108.1 973.5,-118.1 980.5,-118.1"/>
</g>
<!-- n25 -->
<g id="node26" class="node">
<title>n25</title>
<ellipse fill="#2b8ea4" stroke="#007add" cx="1085" cy="-90" rx="63.09" ry="18"/>
<text text-anchor="middle" x="1085" y="-86.3" font-family="Times,serif" font-size="14.00" fill="white">PRIMITIVO</text>
</g>
<!-- n21&#45;&gt;n25 -->
<g id="edge25" class="edge">
<title>n21&#45;&gt;n25</title>
<path fill="none" stroke="#b9ff00" d="M1002.05,-144.76C1016.98,-135.09 1036.11,-122.69 1052.23,-112.24"/>
<polygon fill="#b9ff00" stroke="#b9ff00" points="1054.34,-115.04 1060.83,-106.67 1050.53,-109.17 1054.34,-115.04"/>
</g>
<!-- n26 -->
<g id="node27" class="node">
<title>n26</title>
<ellipse fill="#2b8ea4" stroke="#007add" cx="1085" cy="-18" rx="28.7" ry="18"/>
<text text-anchor="middle" x="1085" y="-14.3" font-family="Times,serif" font-size="14.00" fill="white">100</text>
</g>
<!-- n25&#45;&gt;n26 -->
<g id="edge26" class="edge">
<title>n25&#45;&gt;n26</title>
<path fill="none" stroke="#b9ff00" d="M1085,-71.7C1085,-63.98 1085,-54.71 1085,-46.11"/>
<polygon fill="#b9ff00" stroke="#b9ff00" points="1088.5,-46.1 1085,-36.1 1081.5,-46.1 1088.5,-46.1"/>
</g>
<!-- n28 -->
<g id="node29" class="node">
<title>n28</title>
<ellipse fill="#2b8ea4" stroke="#007add" cx="1256" cy="-90" rx="89.88" ry="18"/>
<text text-anchor="middle" x="1256" y="-86.3" font-family="Times,serif" font-size="14.00" fill="white">IDENTIFICADOR</text>
</g>
<!-- n27&#45;&gt;n28 -->
<g id="edge28" class="edge">
<title>n27&#45;&gt;n28</title>
<path fill="none" stroke="#b9ff00" d="M1210.22,-144.41C1217.58,-135.82 1226.72,-125.16 1234.89,-115.63"/>
<polygon fill="#b9ff00" stroke="#b9ff00" points="1237.62,-117.83 1241.47,-107.96 1232.3,-113.27 1237.62,-117.83"/>
</g>
<!-- n29 -->
<g id="node30" class="node">
<title>n29</title>
<ellipse fill="#2b8ea4" stroke="#007add" cx="1256" cy="-18" rx="30.59" ry="18"/>
<text text-anchor="middle" x="1256" y="-14.3" font-family="Times,serif" font-size="14.00" fill="white">hola</text>
</g>
<!-- n28&#45;&gt;n29 -->
<g id="edge29" class="edge">
<title>n28&#45;&gt;n29</title>
<path fill="none" stroke="#b9ff00" d="M1256,-71.7C1256,-63.98 1256,-54.71 1256,-46.11"/>
<polygon fill="#b9ff00" stroke="#b9ff00" points="1259.5,-46.1 1256,-36.1 1252.5,-46.1 1259.5,-46.1"/>
</g>
<!-- n31 -->
<g id="node32" class="node">
<title>n31</title>
<ellipse fill="#2b8ea4" stroke="#007add" cx="1427" cy="-90" rx="63.09" ry="18"/>
<text text-anchor="middle" x="1427" y="-86.3" font-family="Times,serif" font-size="14.00" fill="white">PRIMITIVO</text>
</g>
<!-- n30&#45;&gt;n31 -->
<g id="edge31" class="edge">
<title>n30&#45;&gt;n31</title>
<path fill="none" stroke="#b9ff00" d="M1384.76,-144.76C1391.53,-136.14 1400,-125.36 1407.57,-115.73"/>
<polygon fill="#b9ff00" stroke="#b9ff00" points="1410.5,-117.66 1413.93,-107.63 1405,-113.33 1410.5,-117.66"/>
</g>
<!-- n32 -->
<g id="node33" class="node">
<title>n32</title>
<ellipse fill="#2b8ea4" stroke="#007add" cx="1427" cy="-18" rx="30.59" ry="18"/>
<text text-anchor="middle" x="1427" y="-14.3" font-family="Times,serif" font-size="14.00" fill="white">hola</text>
</g>
<!-- n31&#45;&gt;n32 -->
<g id="edge32" class="edge">
<title>n31&#45;&gt;n32</title>
<path fill="none" stroke="#b9ff00" d="M1427,-71.7C1427,-63.98 1427,-54.71 1427,-46.11"/>
<polygon fill="#b9ff00" stroke="#b9ff00" points="1430.5,-46.1 1427,-36.1 1423.5,-46.1 1430.5,-46.1"/>
</g>
</g>
</svg>
