<?xml version="1.0" encoding="UTF-8" standalone="no"?>
<!DOCTYPE svg PUBLIC "-//W3C//DTD SVG 1.1//EN"
 "http://www.w3.org/Graphics/SVG/1.1/DTD/svg11.dtd">
<!-- Generated by graphviz version 2.43.0 (0)
 -->
<!-- Title: %3 Pages: 1 -->
<svg width="3877pt" height="620pt"
 viewBox="0.00 0.00 3877.39 620.00" xmlns="http://www.w3.org/2000/svg" xmlns:xlink="http://www.w3.org/1999/xlink">
<g id="graph0" class="graph" transform="scale(1 1) rotate(0) translate(4 616)">
<title>%3</title>
<polygon fill="#21495c" stroke="transparent" points="-4,4 -4,-616 3873.39,-616 3873.39,4 -4,4"/>
<!-- n0 -->
<g id="node1" class="node">
<title>n0</title>
<ellipse fill="#2b8ea4" stroke="#007add" cx="1764.34" cy="-594" rx="33.6" ry="18"/>
<text text-anchor="middle" x="1764.34" y="-590.3" font-family="Times,serif" font-size="14.00" fill="white">RAIZ</text>
</g>
<!-- n1 -->
<g id="node2" class="node">
<title>n1</title>
<ellipse fill="#2b8ea4" stroke="#007add" cx="1764.34" cy="-522" rx="94.48" ry="18"/>
<text text-anchor="middle" x="1764.34" y="-518.3" font-family="Times,serif" font-size="14.00" fill="white">INSTRUCCIONES</text>
</g>
<!-- n0&#45;&gt;n1 -->
<g id="edge1" class="edge">
<title>n0&#45;&gt;n1</title>
<path fill="none" stroke="#b9ff00" d="M1764.34,-575.7C1764.34,-567.98 1764.34,-558.71 1764.34,-550.11"/>
<polygon fill="#b9ff00" stroke="#b9ff00" points="1767.84,-550.1 1764.34,-540.1 1760.84,-550.1 1767.84,-550.1"/>
</g>
<!-- n2 -->
<g id="node3" class="node">
<title>n2</title>
<ellipse fill="#2b8ea4" stroke="#007add" cx="1764.34" cy="-450" rx="37.89" ry="18"/>
<text text-anchor="middle" x="1764.34" y="-446.3" font-family="Times,serif" font-size="14.00" fill="white">MAIN</text>
</g>
<!-- n1&#45;&gt;n2 -->
<g id="edge2" class="edge">
<title>n1&#45;&gt;n2</title>
<path fill="none" stroke="#b9ff00" d="M1764.34,-503.7C1764.34,-495.98 1764.34,-486.71 1764.34,-478.11"/>
<polygon fill="#b9ff00" stroke="#b9ff00" points="1767.84,-478.1 1764.34,-468.1 1760.84,-478.1 1767.84,-478.1"/>
</g>
<!-- n3 -->
<g id="node4" class="node">
<title>n3</title>
<ellipse fill="#2b8ea4" stroke="#007add" cx="1764.34" cy="-378" rx="94.48" ry="18"/>
<text text-anchor="middle" x="1764.34" y="-374.3" font-family="Times,serif" font-size="14.00" fill="white">INSTRUCCIONES</text>
</g>
<!-- n2&#45;&gt;n3 -->
<g id="edge3" class="edge">
<title>n2&#45;&gt;n3</title>
<path fill="none" stroke="#b9ff00" d="M1764.34,-431.7C1764.34,-423.98 1764.34,-414.71 1764.34,-406.11"/>
<polygon fill="#b9ff00" stroke="#b9ff00" points="1767.84,-406.1 1764.34,-396.1 1760.84,-406.1 1767.84,-406.1"/>
</g>
<!-- n4 -->
<g id="node5" class="node">
<title>n4</title>
<ellipse fill="#2b8ea4" stroke="#007add" cx="338.34" cy="-306" rx="132.68" ry="18"/>
<text text-anchor="middle" x="338.34" y="-302.3" font-family="Times,serif" font-size="14.00" fill="white">DECLARACION ARREGLO</text>
</g>
<!-- n3&#45;&gt;n4 -->
<g id="edge4" class="edge">
<title>n3&#45;&gt;n4</title>
<path fill="none" stroke="#b9ff00" d="M1674.33,-372.58C1430.74,-360.62 757.71,-327.59 470.74,-313.5"/>
<polygon fill="#b9ff00" stroke="#b9ff00" points="470.86,-310 460.7,-313.01 470.52,-316.99 470.86,-310"/>
</g>
<!-- n16 -->
<g id="node17" class="node">
<title>n16</title>
<ellipse fill="#2b8ea4" stroke="#007add" cx="1197.34" cy="-306" rx="136.48" ry="18"/>
<text text-anchor="middle" x="1197.34" y="-302.3" font-family="Times,serif" font-size="14.00" fill="white">MODIFICACION ARREGLO</text>
</g>
<!-- n3&#45;&gt;n16 -->
<g id="edge16" class="edge">
<title>n3&#45;&gt;n16</title>
<path fill="none" stroke="#b9ff00" d="M1687.58,-367.52C1588.32,-355.27 1414.96,-333.87 1303.23,-320.07"/>
<polygon fill="#b9ff00" stroke="#b9ff00" points="1303.64,-316.6 1293.29,-318.84 1302.78,-323.54 1303.64,-316.6"/>
</g>
<!-- n27 -->
<g id="node28" class="node">
<title>n27</title>
<ellipse fill="#2b8ea4" stroke="#007add" cx="1588.34" cy="-306" rx="59.59" ry="18"/>
<text text-anchor="middle" x="1588.34" y="-302.3" font-family="Times,serif" font-size="14.00" fill="white">IMPRIMIR</text>
</g>
<!-- n3&#45;&gt;n27 -->
<g id="edge27" class="edge">
<title>n3&#45;&gt;n27</title>
<path fill="none" stroke="#b9ff00" d="M1725.28,-361.46C1697.71,-350.5 1660.75,-335.8 1632.17,-324.43"/>
<polygon fill="#b9ff00" stroke="#b9ff00" points="1633.42,-321.16 1622.83,-320.72 1630.83,-327.66 1633.42,-321.16"/>
</g>
<!-- n37 -->
<g id="node38" class="node">
<title>n37</title>
<ellipse fill="#2b8ea4" stroke="#007add" cx="1764.34" cy="-306" rx="59.59" ry="18"/>
<text text-anchor="middle" x="1764.34" y="-302.3" font-family="Times,serif" font-size="14.00" fill="white">IMPRIMIR</text>
</g>
<!-- n3&#45;&gt;n37 -->
<g id="edge37" class="edge">
<title>n3&#45;&gt;n37</title>
<path fill="none" stroke="#b9ff00" d="M1764.34,-359.7C1764.34,-351.98 1764.34,-342.71 1764.34,-334.11"/>
<polygon fill="#b9ff00" stroke="#b9ff00" points="1767.84,-334.1 1764.34,-324.1 1760.84,-334.1 1767.84,-334.1"/>
</g>
<!-- n40 -->
<g id="node41" class="node">
<title>n40</title>
<ellipse fill="#2b8ea4" stroke="#007add" cx="2082.34" cy="-306" rx="132.68" ry="18"/>
<text text-anchor="middle" x="2082.34" y="-302.3" font-family="Times,serif" font-size="14.00" fill="white">DECLARACION ARREGLO</text>
</g>
<!-- n3&#45;&gt;n40 -->
<g id="edge40" class="edge">
<title>n3&#45;&gt;n40</title>
<path fill="none" stroke="#b9ff00" d="M1823.78,-363.92C1875.34,-352.57 1950.26,-336.08 2006.19,-323.76"/>
<polygon fill="#b9ff00" stroke="#b9ff00" points="2007.04,-327.16 2016.05,-321.59 2005.54,-320.32 2007.04,-327.16"/>
</g>
<!-- n50 -->
<g id="node51" class="node">
<title>n50</title>
<ellipse fill="#2b8ea4" stroke="#007add" cx="2774.34" cy="-306" rx="136.48" ry="18"/>
<text text-anchor="middle" x="2774.34" y="-302.3" font-family="Times,serif" font-size="14.00" fill="white">MODIFICACION ARREGLO</text>
</g>
<!-- n3&#45;&gt;n50 -->
<g id="edge50" class="edge">
<title>n3&#45;&gt;n50</title>
<path fill="none" stroke="#b9ff00" d="M1851.33,-370.97C2029.76,-358.61 2437.88,-330.32 2646.48,-315.86"/>
<polygon fill="#b9ff00" stroke="#b9ff00" points="2646.83,-319.35 2656.56,-315.16 2646.34,-312.36 2646.83,-319.35"/>
</g>
<!-- n61 -->
<g id="node62" class="node">
<title>n61</title>
<ellipse fill="#2b8ea4" stroke="#007add" cx="3406.34" cy="-306" rx="136.48" ry="18"/>
<text text-anchor="middle" x="3406.34" y="-302.3" font-family="Times,serif" font-size="14.00" fill="white">MODIFICACION ARREGLO</text>
</g>
<!-- n3&#45;&gt;n61 -->
<g id="edge61" class="edge">
<title>n3&#45;&gt;n61</title>
<path fill="none" stroke="#b9ff00" d="M1855.26,-373.12C2128.18,-361.49 2941.61,-326.81 3268.29,-312.89"/>
<polygon fill="#b9ff00" stroke="#b9ff00" points="3268.92,-316.36 3278.76,-312.44 3268.62,-309.37 3268.92,-316.36"/>
</g>
<!-- n5 -->
<g id="node6" class="node">
<title>n5</title>
<ellipse fill="#2b8ea4" stroke="#007add" cx="77.34" cy="-234" rx="77.19" ry="18"/>
<text text-anchor="middle" x="77.34" y="-230.3" font-family="Times,serif" font-size="14.00" fill="white">TIPO.ENTERO</text>
</g>
<!-- n4&#45;&gt;n5 -->
<g id="edge5" class="edge">
<title>n4&#45;&gt;n5</title>
<path fill="none" stroke="#b9ff00" d="M281.39,-289.72C238.39,-278.19 179.57,-262.42 136.13,-250.77"/>
<polygon fill="#b9ff00" stroke="#b9ff00" points="136.84,-247.33 126.28,-248.12 135.03,-254.1 136.84,-247.33"/>
</g>
<!-- n6 -->
<g id="node7" class="node">
<title>n6</title>
<ellipse fill="#2b8ea4" stroke="#007add" cx="199.34" cy="-234" rx="27" ry="18"/>
<text text-anchor="middle" x="199.34" y="-230.3" font-family="Times,serif" font-size="14.00" fill="white">3</text>
</g>
<!-- n4&#45;&gt;n6 -->
<g id="edge6" class="edge">
<title>n4&#45;&gt;n6</title>
<path fill="none" stroke="#b9ff00" d="M305.4,-288.41C282.36,-276.81 251.83,-261.43 229.44,-250.16"/>
<polygon fill="#b9ff00" stroke="#b9ff00" points="230.89,-246.97 220.39,-245.6 227.75,-253.22 230.89,-246.97"/>
</g>
<!-- n7 -->
<g id="node8" class="node">
<title>n7</title>
<ellipse fill="#2b8ea4" stroke="#007add" cx="275.34" cy="-234" rx="30.59" ry="18"/>
<text text-anchor="middle" x="275.34" y="-230.3" font-family="Times,serif" font-size="14.00" fill="white">arr1</text>
</g>
<!-- n4&#45;&gt;n7 -->
<g id="edge7" class="edge">
<title>n4&#45;&gt;n7</title>
<path fill="none" stroke="#b9ff00" d="M323.09,-288.05C314.93,-278.99 304.77,-267.69 295.92,-257.86"/>
<polygon fill="#b9ff00" stroke="#b9ff00" points="298.46,-255.45 289.16,-250.36 293.25,-260.13 298.46,-255.45"/>
</g>
<!-- n8 -->
<g id="node9" class="node">
<title>n8</title>
<ellipse fill="#2b8ea4" stroke="#007add" cx="401.34" cy="-234" rx="77.19" ry="18"/>
<text text-anchor="middle" x="401.34" y="-230.3" font-family="Times,serif" font-size="14.00" fill="white">TIPO.ENTERO</text>
</g>
<!-- n4&#45;&gt;n8 -->
<g id="edge8" class="edge">
<title>n4&#45;&gt;n8</title>
<path fill="none" stroke="#b9ff00" d="M353.59,-288.05C361.33,-279.46 370.87,-268.86 379.39,-259.4"/>
<polygon fill="#b9ff00" stroke="#b9ff00" points="382.14,-261.56 386.23,-251.79 376.94,-256.88 382.14,-261.56"/>
</g>
<!-- n9 -->
<g id="node10" class="node">
<title>n9</title>
<ellipse fill="#2b8ea4" stroke="#007add" cx="630.34" cy="-234" rx="133.78" ry="18"/>
<text text-anchor="middle" x="630.34" y="-230.3" font-family="Times,serif" font-size="14.00" fill="white">DIMENSIONES ARREGLO</text>
</g>
<!-- n4&#45;&gt;n9 -->
<g id="edge9" class="edge">
<title>n4&#45;&gt;n9</title>
<path fill="none" stroke="#b9ff00" d="M400.63,-290.07C446.77,-279.01 509.78,-263.9 558.13,-252.31"/>
<polygon fill="#b9ff00" stroke="#b9ff00" points="559,-255.7 567.9,-249.97 557.36,-248.9 559,-255.7"/>
</g>
<!-- n10 -->
<g id="node11" class="node">
<title>n10</title>
<ellipse fill="#2b8ea4" stroke="#007add" cx="484.34" cy="-162" rx="63.09" ry="18"/>
<text text-anchor="middle" x="484.34" y="-158.3" font-family="Times,serif" font-size="14.00" fill="white">PRIMITIVO</text>
</g>
<!-- n9&#45;&gt;n10 -->
<g id="edge10" class="edge">
<title>n9&#45;&gt;n10</title>
<path fill="none" stroke="#b9ff00" d="M596.11,-216.59C574.73,-206.33 547.08,-193.08 524.64,-182.32"/>
<polygon fill="#b9ff00" stroke="#b9ff00" points="525.9,-179.05 515.37,-177.88 522.88,-185.36 525.9,-179.05"/>
</g>
<!-- n12 -->
<g id="node13" class="node">
<title>n12</title>
<ellipse fill="#2b8ea4" stroke="#007add" cx="628.34" cy="-162" rx="63.09" ry="18"/>
<text text-anchor="middle" x="628.34" y="-158.3" font-family="Times,serif" font-size="14.00" fill="white">PRIMITIVO</text>
</g>
<!-- n9&#45;&gt;n12 -->
<g id="edge12" class="edge">
<title>n9&#45;&gt;n12</title>
<path fill="none" stroke="#b9ff00" d="M629.85,-215.7C629.63,-207.98 629.36,-198.71 629.12,-190.11"/>
<polygon fill="#b9ff00" stroke="#b9ff00" points="632.62,-190 628.83,-180.1 625.62,-190.2 632.62,-190"/>
</g>
<!-- n14 -->
<g id="node15" class="node">
<title>n14</title>
<ellipse fill="#2b8ea4" stroke="#007add" cx="772.34" cy="-162" rx="63.09" ry="18"/>
<text text-anchor="middle" x="772.34" y="-158.3" font-family="Times,serif" font-size="14.00" fill="white">PRIMITIVO</text>
</g>
<!-- n9&#45;&gt;n14 -->
<g id="edge14" class="edge">
<title>n9&#45;&gt;n14</title>
<path fill="none" stroke="#b9ff00" d="M664,-216.41C684.57,-206.27 711,-193.24 732.6,-182.59"/>
<polygon fill="#b9ff00" stroke="#b9ff00" points="734.42,-185.6 741.84,-178.04 731.32,-179.32 734.42,-185.6"/>
</g>
<!-- n11 -->
<g id="node12" class="node">
<title>n11</title>
<ellipse fill="#2b8ea4" stroke="#007add" cx="484.34" cy="-90" rx="27" ry="18"/>
<text text-anchor="middle" x="484.34" y="-86.3" font-family="Times,serif" font-size="14.00" fill="white">4</text>
</g>
<!-- n10&#45;&gt;n11 -->
<g id="edge11" class="edge">
<title>n10&#45;&gt;n11</title>
<path fill="none" stroke="#b9ff00" d="M484.34,-143.7C484.34,-135.98 484.34,-126.71 484.34,-118.11"/>
<polygon fill="#b9ff00" stroke="#b9ff00" points="487.84,-118.1 484.34,-108.1 480.84,-118.1 487.84,-118.1"/>
</g>
<!-- n13 -->
<g id="node14" class="node">
<title>n13</title>
<ellipse fill="#2b8ea4" stroke="#007add" cx="628.34" cy="-90" rx="27" ry="18"/>
<text text-anchor="middle" x="628.34" y="-86.3" font-family="Times,serif" font-size="14.00" fill="white">2</text>
</g>
<!-- n12&#45;&gt;n13 -->
<g id="edge13" class="edge">
<title>n12&#45;&gt;n13</title>
<path fill="none" stroke="#b9ff00" d="M628.34,-143.7C628.34,-135.98 628.34,-126.71 628.34,-118.11"/>
<polygon fill="#b9ff00" stroke="#b9ff00" points="631.84,-118.1 628.34,-108.1 624.84,-118.1 631.84,-118.1"/>
</g>
<!-- n15 -->
<g id="node16" class="node">
<title>n15</title>
<ellipse fill="#2b8ea4" stroke="#007add" cx="772.34" cy="-90" rx="27" ry="18"/>
<text text-anchor="middle" x="772.34" y="-86.3" font-family="Times,serif" font-size="14.00" fill="white">6</text>
</g>
<!-- n14&#45;&gt;n15 -->
<g id="edge15" class="edge">
<title>n14&#45;&gt;n15</title>
<path fill="none" stroke="#b9ff00" d="M772.34,-143.7C772.34,-135.98 772.34,-126.71 772.34,-118.11"/>
<polygon fill="#b9ff00" stroke="#b9ff00" points="775.84,-118.1 772.34,-108.1 768.84,-118.1 775.84,-118.1"/>
</g>
<!-- n17 -->
<g id="node18" class="node">
<title>n17</title>
<ellipse fill="#2b8ea4" stroke="#007add" cx="814.34" cy="-234" rx="30.59" ry="18"/>
<text text-anchor="middle" x="814.34" y="-230.3" font-family="Times,serif" font-size="14.00" fill="white">arr1</text>
</g>
<!-- n16&#45;&gt;n17 -->
<g id="edge17" class="edge">
<title>n16&#45;&gt;n17</title>
<path fill="none" stroke="#b9ff00" d="M1088.11,-295.13C1019.97,-287.26 930.98,-273.84 854.34,-252 852.02,-251.34 849.65,-250.57 847.28,-249.74"/>
<polygon fill="#b9ff00" stroke="#b9ff00" points="848.27,-246.38 837.68,-246.06 845.76,-252.91 848.27,-246.38"/>
</g>
<!-- n18 -->
<g id="node19" class="node">
<title>n18</title>
<ellipse fill="#2b8ea4" stroke="#007add" cx="1059.34" cy="-234" rx="196.07" ry="18"/>
<text text-anchor="middle" x="1059.34" y="-230.3" font-family="Times,serif" font-size="14.00" fill="white">EXPRESIONES DE LAS DIMENSIONES</text>
</g>
<!-- n16&#45;&gt;n18 -->
<g id="edge18" class="edge">
<title>n16&#45;&gt;n18</title>
<path fill="none" stroke="#b9ff00" d="M1164.64,-288.41C1145.84,-278.87 1122.01,-266.79 1101.78,-256.53"/>
<polygon fill="#b9ff00" stroke="#b9ff00" points="1103.27,-253.36 1092.77,-251.96 1100.11,-259.6 1103.27,-253.36"/>
</g>
<!-- n25 -->
<g id="node26" class="node">
<title>n25</title>
<ellipse fill="#2b8ea4" stroke="#007add" cx="1336.34" cy="-234" rx="63.09" ry="18"/>
<text text-anchor="middle" x="1336.34" y="-230.3" font-family="Times,serif" font-size="14.00" fill="white">PRIMITIVO</text>
</g>
<!-- n16&#45;&gt;n25 -->
<g id="edge25" class="edge">
<title>n16&#45;&gt;n25</title>
<path fill="none" stroke="#b9ff00" d="M1230.28,-288.41C1250.42,-278.27 1276.29,-265.24 1297.44,-254.59"/>
<polygon fill="#b9ff00" stroke="#b9ff00" points="1299.12,-257.66 1306.48,-250.04 1295.98,-251.41 1299.12,-257.66"/>
</g>
<!-- n19 -->
<g id="node20" class="node">
<title>n19</title>
<ellipse fill="#2b8ea4" stroke="#007add" cx="916.34" cy="-162" rx="63.09" ry="18"/>
<text text-anchor="middle" x="916.34" y="-158.3" font-family="Times,serif" font-size="14.00" fill="white">PRIMITIVO</text>
</g>
<!-- n18&#45;&gt;n19 -->
<g id="edge19" class="edge">
<title>n18&#45;&gt;n19</title>
<path fill="none" stroke="#b9ff00" d="M1025.09,-216.23C1004.36,-206.09 977.84,-193.1 956.17,-182.5"/>
<polygon fill="#b9ff00" stroke="#b9ff00" points="957.43,-179.22 946.91,-177.96 954.35,-185.5 957.43,-179.22"/>
</g>
<!-- n21 -->
<g id="node22" class="node">
<title>n21</title>
<ellipse fill="#2b8ea4" stroke="#007add" cx="1060.34" cy="-162" rx="63.09" ry="18"/>
<text text-anchor="middle" x="1060.34" y="-158.3" font-family="Times,serif" font-size="14.00" fill="white">PRIMITIVO</text>
</g>
<!-- n18&#45;&gt;n21 -->
<g id="edge21" class="edge">
<title>n18&#45;&gt;n21</title>
<path fill="none" stroke="#b9ff00" d="M1059.59,-215.7C1059.7,-207.98 1059.83,-198.71 1059.96,-190.11"/>
<polygon fill="#b9ff00" stroke="#b9ff00" points="1063.46,-190.15 1060.1,-180.1 1056.46,-190.05 1063.46,-190.15"/>
</g>
<!-- n23 -->
<g id="node24" class="node">
<title>n23</title>
<ellipse fill="#2b8ea4" stroke="#007add" cx="1204.34" cy="-162" rx="63.09" ry="18"/>
<text text-anchor="middle" x="1204.34" y="-158.3" font-family="Times,serif" font-size="14.00" fill="white">PRIMITIVO</text>
</g>
<!-- n18&#45;&gt;n23 -->
<g id="edge23" class="edge">
<title>n18&#45;&gt;n23</title>
<path fill="none" stroke="#b9ff00" d="M1094.07,-216.23C1115.19,-206.04 1142.23,-192.99 1164.25,-182.36"/>
<polygon fill="#b9ff00" stroke="#b9ff00" points="1165.86,-185.46 1173.35,-177.96 1162.82,-179.16 1165.86,-185.46"/>
</g>
<!-- n20 -->
<g id="node21" class="node">
<title>n20</title>
<ellipse fill="#2b8ea4" stroke="#007add" cx="916.34" cy="-90" rx="27" ry="18"/>
<text text-anchor="middle" x="916.34" y="-86.3" font-family="Times,serif" font-size="14.00" fill="white">1</text>
</g>
<!-- n19&#45;&gt;n20 -->
<g id="edge20" class="edge">
<title>n19&#45;&gt;n20</title>
<path fill="none" stroke="#b9ff00" d="M916.34,-143.7C916.34,-135.98 916.34,-126.71 916.34,-118.11"/>
<polygon fill="#b9ff00" stroke="#b9ff00" points="919.84,-118.1 916.34,-108.1 912.84,-118.1 919.84,-118.1"/>
</g>
<!-- n22 -->
<g id="node23" class="node">
<title>n22</title>
<ellipse fill="#2b8ea4" stroke="#007add" cx="1060.34" cy="-90" rx="27" ry="18"/>
<text text-anchor="middle" x="1060.34" y="-86.3" font-family="Times,serif" font-size="14.00" fill="white">1</text>
</g>
<!-- n21&#45;&gt;n22 -->
<g id="edge22" class="edge">
<title>n21&#45;&gt;n22</title>
<path fill="none" stroke="#b9ff00" d="M1060.34,-143.7C1060.34,-135.98 1060.34,-126.71 1060.34,-118.11"/>
<polygon fill="#b9ff00" stroke="#b9ff00" points="1063.84,-118.1 1060.34,-108.1 1056.84,-118.1 1063.84,-118.1"/>
</g>
<!-- n24 -->
<g id="node25" class="node">
<title>n24</title>
<ellipse fill="#2b8ea4" stroke="#007add" cx="1204.34" cy="-90" rx="27" ry="18"/>
<text text-anchor="middle" x="1204.34" y="-86.3" font-family="Times,serif" font-size="14.00" fill="white">1</text>
</g>
<!-- n23&#45;&gt;n24 -->
<g id="edge24" class="edge">
<title>n23&#45;&gt;n24</title>
<path fill="none" stroke="#b9ff00" d="M1204.34,-143.7C1204.34,-135.98 1204.34,-126.71 1204.34,-118.11"/>
<polygon fill="#b9ff00" stroke="#b9ff00" points="1207.84,-118.1 1204.34,-108.1 1200.84,-118.1 1207.84,-118.1"/>
</g>
<!-- n26 -->
<g id="node27" class="node">
<title>n26</title>
<ellipse fill="#2b8ea4" stroke="#007add" cx="1324.34" cy="-162" rx="27" ry="18"/>
<text text-anchor="middle" x="1324.34" y="-158.3" font-family="Times,serif" font-size="14.00" fill="white">78</text>
</g>
<!-- n25&#45;&gt;n26 -->
<g id="edge26" class="edge">
<title>n25&#45;&gt;n26</title>
<path fill="none" stroke="#b9ff00" d="M1333.38,-215.7C1332.05,-207.98 1330.47,-198.71 1328.99,-190.11"/>
<polygon fill="#b9ff00" stroke="#b9ff00" points="1332.41,-189.37 1327.28,-180.1 1325.52,-190.55 1332.41,-189.37"/>
</g>
<!-- n28 -->
<g id="node29" class="node">
<title>n28</title>
<ellipse fill="#2b8ea4" stroke="#007add" cx="1550.34" cy="-234" rx="132.68" ry="18"/>
<text text-anchor="middle" x="1550.34" y="-230.3" font-family="Times,serif" font-size="14.00" fill="white">DECLARACION ARREGLO</text>
</g>
<!-- n27&#45;&gt;n28 -->
<g id="edge28" class="edge">
<title>n27&#45;&gt;n28</title>
<path fill="none" stroke="#b9ff00" d="M1579.14,-288.05C1574.78,-280.01 1569.45,-270.2 1564.58,-261.23"/>
<polygon fill="#b9ff00" stroke="#b9ff00" points="1567.57,-259.39 1559.72,-252.28 1561.42,-262.73 1567.57,-259.39"/>
</g>
<!-- n29 -->
<g id="node30" class="node">
<title>n29</title>
<ellipse fill="#2b8ea4" stroke="#007add" cx="1400.34" cy="-162" rx="30.59" ry="18"/>
<text text-anchor="middle" x="1400.34" y="-158.3" font-family="Times,serif" font-size="14.00" fill="white">arr1</text>
</g>
<!-- n28&#45;&gt;n29 -->
<g id="edge29" class="edge">
<title>n28&#45;&gt;n29</title>
<path fill="none" stroke="#b9ff00" d="M1515.17,-216.59C1490.25,-204.96 1457.07,-189.47 1432.78,-178.14"/>
<polygon fill="#b9ff00" stroke="#b9ff00" points="1434.16,-174.92 1423.62,-173.86 1431.2,-181.26 1434.16,-174.92"/>
</g>
<!-- n30 -->
<g id="node31" class="node">
<title>n30</title>
<ellipse fill="#2b8ea4" stroke="#007add" cx="1582.34" cy="-162" rx="133.78" ry="18"/>
<text text-anchor="middle" x="1582.34" y="-158.3" font-family="Times,serif" font-size="14.00" fill="white">DIMENSIONES ARREGLO</text>
</g>
<!-- n28&#45;&gt;n30 -->
<g id="edge30" class="edge">
<title>n28&#45;&gt;n30</title>
<path fill="none" stroke="#b9ff00" d="M1558.25,-215.7C1561.9,-207.73 1566.3,-198.1 1570.34,-189.26"/>
<polygon fill="#b9ff00" stroke="#b9ff00" points="1573.55,-190.65 1574.52,-180.1 1567.18,-187.74 1573.55,-190.65"/>
</g>
<!-- n31 -->
<g id="node32" class="node">
<title>n31</title>
<ellipse fill="#2b8ea4" stroke="#007add" cx="1438.34" cy="-90" rx="63.09" ry="18"/>
<text text-anchor="middle" x="1438.34" y="-86.3" font-family="Times,serif" font-size="14.00" fill="white">PRIMITIVO</text>
</g>
<!-- n30&#45;&gt;n31 -->
<g id="edge31" class="edge">
<title>n30&#45;&gt;n31</title>
<path fill="none" stroke="#b9ff00" d="M1548.22,-144.41C1527.11,-134.15 1499.94,-120.94 1477.9,-110.23"/>
<polygon fill="#b9ff00" stroke="#b9ff00" points="1479.32,-107.03 1468.8,-105.8 1476.26,-113.32 1479.32,-107.03"/>
</g>
<!-- n33 -->
<g id="node34" class="node">
<title>n33</title>
<ellipse fill="#2b8ea4" stroke="#007add" cx="1582.34" cy="-90" rx="63.09" ry="18"/>
<text text-anchor="middle" x="1582.34" y="-86.3" font-family="Times,serif" font-size="14.00" fill="white">PRIMITIVO</text>
</g>
<!-- n30&#45;&gt;n33 -->
<g id="edge33" class="edge">
<title>n30&#45;&gt;n33</title>
<path fill="none" stroke="#b9ff00" d="M1582.34,-143.7C1582.34,-135.98 1582.34,-126.71 1582.34,-118.11"/>
<polygon fill="#b9ff00" stroke="#b9ff00" points="1585.84,-118.1 1582.34,-108.1 1578.84,-118.1 1585.84,-118.1"/>
</g>
<!-- n35 -->
<g id="node36" class="node">
<title>n35</title>
<ellipse fill="#2b8ea4" stroke="#007add" cx="1726.34" cy="-90" rx="63.09" ry="18"/>
<text text-anchor="middle" x="1726.34" y="-86.3" font-family="Times,serif" font-size="14.00" fill="white">PRIMITIVO</text>
</g>
<!-- n30&#45;&gt;n35 -->
<g id="edge35" class="edge">
<title>n30&#45;&gt;n35</title>
<path fill="none" stroke="#b9ff00" d="M1616.47,-144.41C1637.57,-134.15 1664.75,-120.94 1686.79,-110.23"/>
<polygon fill="#b9ff00" stroke="#b9ff00" points="1688.43,-113.32 1695.89,-105.8 1685.37,-107.03 1688.43,-113.32"/>
</g>
<!-- n32 -->
<g id="node33" class="node">
<title>n32</title>
<ellipse fill="#2b8ea4" stroke="#007add" cx="1438.34" cy="-18" rx="27" ry="18"/>
<text text-anchor="middle" x="1438.34" y="-14.3" font-family="Times,serif" font-size="14.00" fill="white">1</text>
</g>
<!-- n31&#45;&gt;n32 -->
<g id="edge32" class="edge">
<title>n31&#45;&gt;n32</title>
<path fill="none" stroke="#b9ff00" d="M1438.34,-71.7C1438.34,-63.98 1438.34,-54.71 1438.34,-46.11"/>
<polygon fill="#b9ff00" stroke="#b9ff00" points="1441.84,-46.1 1438.34,-36.1 1434.84,-46.1 1441.84,-46.1"/>
</g>
<!-- n34 -->
<g id="node35" class="node">
<title>n34</title>
<ellipse fill="#2b8ea4" stroke="#007add" cx="1582.34" cy="-18" rx="27" ry="18"/>
<text text-anchor="middle" x="1582.34" y="-14.3" font-family="Times,serif" font-size="14.00" fill="white">1</text>
</g>
<!-- n33&#45;&gt;n34 -->
<g id="edge34" class="edge">
<title>n33&#45;&gt;n34</title>
<path fill="none" stroke="#b9ff00" d="M1582.34,-71.7C1582.34,-63.98 1582.34,-54.71 1582.34,-46.11"/>
<polygon fill="#b9ff00" stroke="#b9ff00" points="1585.84,-46.1 1582.34,-36.1 1578.84,-46.1 1585.84,-46.1"/>
</g>
<!-- n36 -->
<g id="node37" class="node">
<title>n36</title>
<ellipse fill="#2b8ea4" stroke="#007add" cx="1726.34" cy="-18" rx="27" ry="18"/>
<text text-anchor="middle" x="1726.34" y="-14.3" font-family="Times,serif" font-size="14.00" fill="white">1</text>
</g>
<!-- n35&#45;&gt;n36 -->
<g id="edge36" class="edge">
<title>n35&#45;&gt;n36</title>
<path fill="none" stroke="#b9ff00" d="M1726.34,-71.7C1726.34,-63.98 1726.34,-54.71 1726.34,-46.11"/>
<polygon fill="#b9ff00" stroke="#b9ff00" points="1729.84,-46.1 1726.34,-36.1 1722.84,-46.1 1729.84,-46.1"/>
</g>
<!-- n38 -->
<g id="node39" class="node">
<title>n38</title>
<ellipse fill="#2b8ea4" stroke="#007add" cx="1764.34" cy="-234" rx="63.09" ry="18"/>
<text text-anchor="middle" x="1764.34" y="-230.3" font-family="Times,serif" font-size="14.00" fill="white">PRIMITIVO</text>
</g>
<!-- n37&#45;&gt;n38 -->
<g id="edge38" class="edge">
<title>n37&#45;&gt;n38</title>
<path fill="none" stroke="#b9ff00" d="M1764.34,-287.7C1764.34,-279.98 1764.34,-270.71 1764.34,-262.11"/>
<polygon fill="#b9ff00" stroke="#b9ff00" points="1767.84,-262.1 1764.34,-252.1 1760.84,-262.1 1767.84,-262.1"/>
</g>
<!-- n39 -->
<g id="node40" class="node">
<title>n39</title>
<ellipse fill="#2b8ea4" stroke="#007add" cx="1839.34" cy="-162" rx="105.08" ry="18"/>
<text text-anchor="middle" x="1839.34" y="-158.3" font-family="Times,serif" font-size="14.00" fill="white">Prueba de Mynor xd</text>
</g>
<!-- n38&#45;&gt;n39 -->
<g id="edge39" class="edge">
<title>n38&#45;&gt;n39</title>
<path fill="none" stroke="#b9ff00" d="M1782.12,-216.41C1791.51,-207.65 1803.2,-196.73 1813.57,-187.06"/>
<polygon fill="#b9ff00" stroke="#b9ff00" points="1816.25,-189.34 1821.18,-179.96 1811.48,-184.22 1816.25,-189.34"/>
</g>
<!-- n41 -->
<g id="node42" class="node">
<title>n41</title>
<ellipse fill="#2b8ea4" stroke="#007add" cx="1922.34" cy="-234" rx="77.19" ry="18"/>
<text text-anchor="middle" x="1922.34" y="-230.3" font-family="Times,serif" font-size="14.00" fill="white">TIPO.ENTERO</text>
</g>
<!-- n40&#45;&gt;n41 -->
<g id="edge41" class="edge">
<title>n40&#45;&gt;n41</title>
<path fill="none" stroke="#b9ff00" d="M2044.83,-288.59C2021.35,-278.31 1990.98,-265.03 1966.36,-254.26"/>
<polygon fill="#b9ff00" stroke="#b9ff00" points="1967.45,-250.92 1956.89,-250.11 1964.65,-257.33 1967.45,-250.92"/>
</g>
<!-- n42 -->
<g id="node43" class="node">
<title>n42</title>
<ellipse fill="#2b8ea4" stroke="#007add" cx="2044.34" cy="-234" rx="27" ry="18"/>
<text text-anchor="middle" x="2044.34" y="-230.3" font-family="Times,serif" font-size="14.00" fill="white">2</text>
</g>
<!-- n40&#45;&gt;n42 -->
<g id="edge42" class="edge">
<title>n40&#45;&gt;n42</title>
<path fill="none" stroke="#b9ff00" d="M2072.95,-287.7C2068.45,-279.4 2062.97,-269.31 2058.02,-260.19"/>
<polygon fill="#b9ff00" stroke="#b9ff00" points="2060.95,-258.26 2053.11,-251.14 2054.8,-261.6 2060.95,-258.26"/>
</g>
<!-- n43 -->
<g id="node44" class="node">
<title>n43</title>
<ellipse fill="#2b8ea4" stroke="#007add" cx="2120.34" cy="-234" rx="30.59" ry="18"/>
<text text-anchor="middle" x="2120.34" y="-230.3" font-family="Times,serif" font-size="14.00" fill="white">arr1</text>
</g>
<!-- n40&#45;&gt;n43 -->
<g id="edge43" class="edge">
<title>n40&#45;&gt;n43</title>
<path fill="none" stroke="#b9ff00" d="M2091.74,-287.7C2096.17,-279.52 2101.56,-269.6 2106.45,-260.58"/>
<polygon fill="#b9ff00" stroke="#b9ff00" points="2109.62,-262.08 2111.32,-251.62 2103.47,-258.74 2109.62,-262.08"/>
</g>
<!-- n44 -->
<g id="node45" class="node">
<title>n44</title>
<ellipse fill="#2b8ea4" stroke="#007add" cx="2246.34" cy="-234" rx="77.19" ry="18"/>
<text text-anchor="middle" x="2246.34" y="-230.3" font-family="Times,serif" font-size="14.00" fill="white">TIPO.ENTERO</text>
</g>
<!-- n40&#45;&gt;n44 -->
<g id="edge44" class="edge">
<title>n40&#45;&gt;n44</title>
<path fill="none" stroke="#b9ff00" d="M2120.79,-288.59C2144.97,-278.27 2176.26,-264.91 2201.56,-254.11"/>
<polygon fill="#b9ff00" stroke="#b9ff00" points="2203.11,-257.26 2210.93,-250.11 2200.36,-250.82 2203.11,-257.26"/>
</g>
<!-- n45 -->
<g id="node46" class="node">
<title>n45</title>
<ellipse fill="#2b8ea4" stroke="#007add" cx="2475.34" cy="-234" rx="133.78" ry="18"/>
<text text-anchor="middle" x="2475.34" y="-230.3" font-family="Times,serif" font-size="14.00" fill="white">DIMENSIONES ARREGLO</text>
</g>
<!-- n40&#45;&gt;n45 -->
<g id="edge45" class="edge">
<title>n40&#45;&gt;n45</title>
<path fill="none" stroke="#b9ff00" d="M2159.52,-291.25C2225.25,-279.55 2319.64,-262.73 2388.1,-250.54"/>
<polygon fill="#b9ff00" stroke="#b9ff00" points="2388.78,-253.97 2398.01,-248.77 2387.55,-247.08 2388.78,-253.97"/>
</g>
<!-- n46 -->
<g id="node47" class="node">
<title>n46</title>
<ellipse fill="#2b8ea4" stroke="#007add" cx="2397.34" cy="-162" rx="63.09" ry="18"/>
<text text-anchor="middle" x="2397.34" y="-158.3" font-family="Times,serif" font-size="14.00" fill="white">PRIMITIVO</text>
</g>
<!-- n45&#45;&gt;n46 -->
<g id="edge46" class="edge">
<title>n45&#45;&gt;n46</title>
<path fill="none" stroke="#b9ff00" d="M2456.46,-216.05C2446.45,-207.07 2434,-195.9 2423.11,-186.12"/>
<polygon fill="#b9ff00" stroke="#b9ff00" points="2425.29,-183.38 2415.51,-179.31 2420.62,-188.59 2425.29,-183.38"/>
</g>
<!-- n48 -->
<g id="node49" class="node">
<title>n48</title>
<ellipse fill="#2b8ea4" stroke="#007add" cx="2541.34" cy="-162" rx="63.09" ry="18"/>
<text text-anchor="middle" x="2541.34" y="-158.3" font-family="Times,serif" font-size="14.00" fill="white">PRIMITIVO</text>
</g>
<!-- n45&#45;&gt;n48 -->
<g id="edge48" class="edge">
<title>n45&#45;&gt;n48</title>
<path fill="none" stroke="#b9ff00" d="M2491.32,-216.05C2499.51,-207.37 2509.62,-196.64 2518.61,-187.11"/>
<polygon fill="#b9ff00" stroke="#b9ff00" points="2521.2,-189.47 2525.51,-179.79 2516.11,-184.66 2521.2,-189.47"/>
</g>
<!-- n47 -->
<g id="node48" class="node">
<title>n47</title>
<ellipse fill="#2b8ea4" stroke="#007add" cx="2397.34" cy="-90" rx="27" ry="18"/>
<text text-anchor="middle" x="2397.34" y="-86.3" font-family="Times,serif" font-size="14.00" fill="white">4</text>
</g>
<!-- n46&#45;&gt;n47 -->
<g id="edge47" class="edge">
<title>n46&#45;&gt;n47</title>
<path fill="none" stroke="#b9ff00" d="M2397.34,-143.7C2397.34,-135.98 2397.34,-126.71 2397.34,-118.11"/>
<polygon fill="#b9ff00" stroke="#b9ff00" points="2400.84,-118.1 2397.34,-108.1 2393.84,-118.1 2400.84,-118.1"/>
</g>
<!-- n49 -->
<g id="node50" class="node">
<title>n49</title>
<ellipse fill="#2b8ea4" stroke="#007add" cx="2541.34" cy="-90" rx="27" ry="18"/>
<text text-anchor="middle" x="2541.34" y="-86.3" font-family="Times,serif" font-size="14.00" fill="white">2</text>
</g>
<!-- n48&#45;&gt;n49 -->
<g id="edge49" class="edge">
<title>n48&#45;&gt;n49</title>
<path fill="none" stroke="#b9ff00" d="M2541.34,-143.7C2541.34,-135.98 2541.34,-126.71 2541.34,-118.11"/>
<polygon fill="#b9ff00" stroke="#b9ff00" points="2544.84,-118.1 2541.34,-108.1 2537.84,-118.1 2544.84,-118.1"/>
</g>
<!-- n51 -->
<g id="node52" class="node">
<title>n51</title>
<ellipse fill="#2b8ea4" stroke="#007add" cx="2654.34" cy="-234" rx="27" ry="18"/>
<text text-anchor="middle" x="2654.34" y="-230.3" font-family="Times,serif" font-size="14.00" fill="white">arr</text>
</g>
<!-- n50&#45;&gt;n51 -->
<g id="edge51" class="edge">
<title>n50&#45;&gt;n51</title>
<path fill="none" stroke="#b9ff00" d="M2745.6,-288.23C2726.65,-277.18 2701.93,-262.76 2683,-251.72"/>
<polygon fill="#b9ff00" stroke="#b9ff00" points="2684.62,-248.61 2674.22,-246.6 2681.1,-254.66 2684.62,-248.61"/>
</g>
<!-- n52 -->
<g id="node53" class="node">
<title>n52</title>
<ellipse fill="#2b8ea4" stroke="#007add" cx="2895.34" cy="-234" rx="196.07" ry="18"/>
<text text-anchor="middle" x="2895.34" y="-230.3" font-family="Times,serif" font-size="14.00" fill="white">EXPRESIONES DE LAS DIMENSIONES</text>
</g>
<!-- n50&#45;&gt;n52 -->
<g id="edge52" class="edge">
<title>n50&#45;&gt;n52</title>
<path fill="none" stroke="#b9ff00" d="M2803.33,-288.23C2819.52,-278.86 2839.89,-267.08 2857.35,-256.98"/>
<polygon fill="#b9ff00" stroke="#b9ff00" points="2859.27,-259.91 2866.18,-251.87 2855.77,-253.85 2859.27,-259.91"/>
</g>
<!-- n59 -->
<g id="node60" class="node">
<title>n59</title>
<ellipse fill="#2b8ea4" stroke="#007add" cx="3172.34" cy="-234" rx="63.09" ry="18"/>
<text text-anchor="middle" x="3172.34" y="-230.3" font-family="Times,serif" font-size="14.00" fill="white">PRIMITIVO</text>
</g>
<!-- n50&#45;&gt;n59 -->
<g id="edge59" class="edge">
<title>n50&#45;&gt;n59</title>
<path fill="none" stroke="#b9ff00" d="M2863.2,-292.29C2928.92,-282.47 3020.49,-267.9 3100.34,-252 3105.62,-250.95 3111.09,-249.79 3116.56,-248.58"/>
<polygon fill="#b9ff00" stroke="#b9ff00" points="3117.37,-251.99 3126.36,-246.37 3115.83,-245.16 3117.37,-251.99"/>
</g>
<!-- n53 -->
<g id="node54" class="node">
<title>n53</title>
<ellipse fill="#2b8ea4" stroke="#007add" cx="2751.34" cy="-162" rx="63.09" ry="18"/>
<text text-anchor="middle" x="2751.34" y="-158.3" font-family="Times,serif" font-size="14.00" fill="white">PRIMITIVO</text>
</g>
<!-- n52&#45;&gt;n53 -->
<g id="edge53" class="edge">
<title>n52&#45;&gt;n53</title>
<path fill="none" stroke="#b9ff00" d="M2860.85,-216.23C2839.88,-206.04 2813.03,-192.99 2791.16,-182.36"/>
<polygon fill="#b9ff00" stroke="#b9ff00" points="2792.65,-179.19 2782.12,-177.96 2789.59,-185.48 2792.65,-179.19"/>
</g>
<!-- n55 -->
<g id="node56" class="node">
<title>n55</title>
<ellipse fill="#2b8ea4" stroke="#007add" cx="2895.34" cy="-162" rx="63.09" ry="18"/>
<text text-anchor="middle" x="2895.34" y="-158.3" font-family="Times,serif" font-size="14.00" fill="white">PRIMITIVO</text>
</g>
<!-- n52&#45;&gt;n55 -->
<g id="edge55" class="edge">
<title>n52&#45;&gt;n55</title>
<path fill="none" stroke="#b9ff00" d="M2895.34,-215.7C2895.34,-207.98 2895.34,-198.71 2895.34,-190.11"/>
<polygon fill="#b9ff00" stroke="#b9ff00" points="2898.84,-190.1 2895.34,-180.1 2891.84,-190.1 2898.84,-190.1"/>
</g>
<!-- n57 -->
<g id="node58" class="node">
<title>n57</title>
<ellipse fill="#2b8ea4" stroke="#007add" cx="3039.34" cy="-162" rx="63.09" ry="18"/>
<text text-anchor="middle" x="3039.34" y="-158.3" font-family="Times,serif" font-size="14.00" fill="white">PRIMITIVO</text>
</g>
<!-- n52&#45;&gt;n57 -->
<g id="edge57" class="edge">
<title>n52&#45;&gt;n57</title>
<path fill="none" stroke="#b9ff00" d="M2929.83,-216.23C2950.8,-206.04 2977.66,-192.99 2999.53,-182.36"/>
<polygon fill="#b9ff00" stroke="#b9ff00" points="3001.1,-185.48 3008.56,-177.96 2998.04,-179.19 3001.1,-185.48"/>
</g>
<!-- n54 -->
<g id="node55" class="node">
<title>n54</title>
<ellipse fill="#2b8ea4" stroke="#007add" cx="2751.34" cy="-90" rx="27" ry="18"/>
<text text-anchor="middle" x="2751.34" y="-86.3" font-family="Times,serif" font-size="14.00" fill="white">3</text>
</g>
<!-- n53&#45;&gt;n54 -->
<g id="edge54" class="edge">
<title>n53&#45;&gt;n54</title>
<path fill="none" stroke="#b9ff00" d="M2751.34,-143.7C2751.34,-135.98 2751.34,-126.71 2751.34,-118.11"/>
<polygon fill="#b9ff00" stroke="#b9ff00" points="2754.84,-118.1 2751.34,-108.1 2747.84,-118.1 2754.84,-118.1"/>
</g>
<!-- n56 -->
<g id="node57" class="node">
<title>n56</title>
<ellipse fill="#2b8ea4" stroke="#007add" cx="2895.34" cy="-90" rx="27" ry="18"/>
<text text-anchor="middle" x="2895.34" y="-86.3" font-family="Times,serif" font-size="14.00" fill="white">4</text>
</g>
<!-- n55&#45;&gt;n56 -->
<g id="edge56" class="edge">
<title>n55&#45;&gt;n56</title>
<path fill="none" stroke="#b9ff00" d="M2895.34,-143.7C2895.34,-135.98 2895.34,-126.71 2895.34,-118.11"/>
<polygon fill="#b9ff00" stroke="#b9ff00" points="2898.84,-118.1 2895.34,-108.1 2891.84,-118.1 2898.84,-118.1"/>
</g>
<!-- n58 -->
<g id="node59" class="node">
<title>n58</title>
<ellipse fill="#2b8ea4" stroke="#007add" cx="3039.34" cy="-90" rx="27" ry="18"/>
<text text-anchor="middle" x="3039.34" y="-86.3" font-family="Times,serif" font-size="14.00" fill="white">4</text>
</g>
<!-- n57&#45;&gt;n58 -->
<g id="edge58" class="edge">
<title>n57&#45;&gt;n58</title>
<path fill="none" stroke="#b9ff00" d="M3039.34,-143.7C3039.34,-135.98 3039.34,-126.71 3039.34,-118.11"/>
<polygon fill="#b9ff00" stroke="#b9ff00" points="3042.84,-118.1 3039.34,-108.1 3035.84,-118.1 3042.84,-118.1"/>
</g>
<!-- n60 -->
<g id="node61" class="node">
<title>n60</title>
<ellipse fill="#2b8ea4" stroke="#007add" cx="3172.34" cy="-162" rx="27" ry="18"/>
<text text-anchor="middle" x="3172.34" y="-158.3" font-family="Times,serif" font-size="14.00" fill="white">9</text>
</g>
<!-- n59&#45;&gt;n60 -->
<g id="edge60" class="edge">
<title>n59&#45;&gt;n60</title>
<path fill="none" stroke="#b9ff00" d="M3172.34,-215.7C3172.34,-207.98 3172.34,-198.71 3172.34,-190.11"/>
<polygon fill="#b9ff00" stroke="#b9ff00" points="3175.84,-190.1 3172.34,-180.1 3168.84,-190.1 3175.84,-190.1"/>
</g>
<!-- n62 -->
<g id="node63" class="node">
<title>n62</title>
<ellipse fill="#2b8ea4" stroke="#007add" cx="3284.34" cy="-234" rx="30.59" ry="18"/>
<text text-anchor="middle" x="3284.34" y="-230.3" font-family="Times,serif" font-size="14.00" fill="white">arr1</text>
</g>
<!-- n61&#45;&gt;n62 -->
<g id="edge62" class="edge">
<title>n61&#45;&gt;n62</title>
<path fill="none" stroke="#b9ff00" d="M3377.12,-288.23C3358.22,-277.39 3333.67,-263.3 3314.57,-252.35"/>
<polygon fill="#b9ff00" stroke="#b9ff00" points="3316.1,-249.19 3305.69,-247.25 3312.62,-255.26 3316.1,-249.19"/>
</g>
<!-- n63 -->
<g id="node64" class="node">
<title>n63</title>
<ellipse fill="#2b8ea4" stroke="#007add" cx="3529.34" cy="-234" rx="196.07" ry="18"/>
<text text-anchor="middle" x="3529.34" y="-230.3" font-family="Times,serif" font-size="14.00" fill="white">EXPRESIONES DE LAS DIMENSIONES</text>
</g>
<!-- n61&#45;&gt;n63 -->
<g id="edge63" class="edge">
<title>n61&#45;&gt;n63</title>
<path fill="none" stroke="#b9ff00" d="M3435.49,-288.41C3451.95,-279.05 3472.72,-267.22 3490.54,-257.08"/>
<polygon fill="#b9ff00" stroke="#b9ff00" points="3492.59,-259.94 3499.55,-251.96 3489.13,-253.86 3492.59,-259.94"/>
</g>
<!-- n68 -->
<g id="node69" class="node">
<title>n68</title>
<ellipse fill="#2b8ea4" stroke="#007add" cx="3806.34" cy="-234" rx="63.09" ry="18"/>
<text text-anchor="middle" x="3806.34" y="-230.3" font-family="Times,serif" font-size="14.00" fill="white">PRIMITIVO</text>
</g>
<!-- n61&#45;&gt;n68 -->
<g id="edge68" class="edge">
<title>n61&#45;&gt;n68</title>
<path fill="none" stroke="#b9ff00" d="M3495.75,-292.32C3561.87,-282.52 3654,-267.95 3734.34,-252 3739.62,-250.95 3745.09,-249.79 3750.56,-248.59"/>
<polygon fill="#b9ff00" stroke="#b9ff00" points="3751.37,-251.99 3760.36,-246.38 3749.83,-245.16 3751.37,-251.99"/>
</g>
<!-- n64 -->
<g id="node65" class="node">
<title>n64</title>
<ellipse fill="#2b8ea4" stroke="#007add" cx="3457.34" cy="-162" rx="63.09" ry="18"/>
<text text-anchor="middle" x="3457.34" y="-158.3" font-family="Times,serif" font-size="14.00" fill="white">PRIMITIVO</text>
</g>
<!-- n63&#45;&gt;n64 -->
<g id="edge64" class="edge">
<title>n63&#45;&gt;n64</title>
<path fill="none" stroke="#b9ff00" d="M3511.91,-216.05C3502.89,-207.28 3491.73,-196.43 3481.86,-186.83"/>
<polygon fill="#b9ff00" stroke="#b9ff00" points="3484.22,-184.25 3474.61,-179.79 3479.34,-189.27 3484.22,-184.25"/>
</g>
<!-- n66 -->
<g id="node67" class="node">
<title>n66</title>
<ellipse fill="#2b8ea4" stroke="#007add" cx="3601.34" cy="-162" rx="63.09" ry="18"/>
<text text-anchor="middle" x="3601.34" y="-158.3" font-family="Times,serif" font-size="14.00" fill="white">PRIMITIVO</text>
</g>
<!-- n63&#45;&gt;n66 -->
<g id="edge66" class="edge">
<title>n63&#45;&gt;n66</title>
<path fill="none" stroke="#b9ff00" d="M3546.77,-216.05C3555.79,-207.28 3566.96,-196.43 3576.83,-186.83"/>
<polygon fill="#b9ff00" stroke="#b9ff00" points="3579.34,-189.27 3584.07,-179.79 3574.46,-184.25 3579.34,-189.27"/>
</g>
<!-- n65 -->
<g id="node66" class="node">
<title>n65</title>
<ellipse fill="#2b8ea4" stroke="#007add" cx="3457.34" cy="-90" rx="27" ry="18"/>
<text text-anchor="middle" x="3457.34" y="-86.3" font-family="Times,serif" font-size="14.00" fill="white">4</text>
</g>
<!-- n64&#45;&gt;n65 -->
<g id="edge65" class="edge">
<title>n64&#45;&gt;n65</title>
<path fill="none" stroke="#b9ff00" d="M3457.34,-143.7C3457.34,-135.98 3457.34,-126.71 3457.34,-118.11"/>
<polygon fill="#b9ff00" stroke="#b9ff00" points="3460.84,-118.1 3457.34,-108.1 3453.84,-118.1 3460.84,-118.1"/>
</g>
<!-- n67 -->
<g id="node68" class="node">
<title>n67</title>
<ellipse fill="#2b8ea4" stroke="#007add" cx="3601.34" cy="-90" rx="27" ry="18"/>
<text text-anchor="middle" x="3601.34" y="-86.3" font-family="Times,serif" font-size="14.00" fill="white">3</text>
</g>
<!-- n66&#45;&gt;n67 -->
<g id="edge67" class="edge">
<title>n66&#45;&gt;n67</title>
<path fill="none" stroke="#b9ff00" d="M3601.34,-143.7C3601.34,-135.98 3601.34,-126.71 3601.34,-118.11"/>
<polygon fill="#b9ff00" stroke="#b9ff00" points="3604.84,-118.1 3601.34,-108.1 3597.84,-118.1 3604.84,-118.1"/>
</g>
<!-- n69 -->
<g id="node70" class="node">
<title>n69</title>
<ellipse fill="#2b8ea4" stroke="#007add" cx="3806.34" cy="-162" rx="27" ry="18"/>
<text text-anchor="middle" x="3806.34" y="-158.3" font-family="Times,serif" font-size="14.00" fill="white">4</text>
</g>
<!-- n68&#45;&gt;n69 -->
<g id="edge69" class="edge">
<title>n68&#45;&gt;n69</title>
<path fill="none" stroke="#b9ff00" d="M3806.34,-215.7C3806.34,-207.98 3806.34,-198.71 3806.34,-190.11"/>
<polygon fill="#b9ff00" stroke="#b9ff00" points="3809.84,-190.1 3806.34,-180.1 3802.84,-190.1 3809.84,-190.1"/>
</g>
</g>
</svg>
